<svg width="580" height="550" xmlns="http://www.w3.org/2000/svg" xmlns:xlink="http://www.w3.org/1999/xlink" overflow="hidden"><defs><clipPath id="clip0"><rect x="0" y="0" width="580" height="550"/></clipPath></defs><g clip-path="url(#clip0)"><path d="M0 0 952.682 0 952.682 673.61 0 673.61Z" fill="#FFFFFF" transform="matrix(1 0 0 1.00008 -142.581 10.1852)"/><path d="M264.794 43.4516C264.794 41.7712 266.169 40.3963 267.849 40.3963L382.566 40.3963C384.256 40.3963 385.621 41.7712 385.621 43.4516L385.621 129.342C385.621 131.022 384.256 132.397 382.566 132.397L267.849 132.397C266.169 132.397 264.794 131.022 264.794 129.342Z" fill="#F9D2DE" fill-opacity="0.46" transform="matrix(1 0 0 1.00008 -142.581 10.1852)"/><path d="M273.196 40.3963 277.789 40.3963M280.844 40.3963 285.437 40.3963M288.493 40.3963 293.086 40.3963M296.141 40.3963 300.734 40.3963M303.79 40.3963 308.383 40.3963M311.438 40.3963 316.031 40.3963M319.087 40.3963 323.68 40.3963M326.735 40.3963 331.328 40.3963M334.383 40.3963 338.977 40.3963M342.032 40.3963 346.615 40.3963M349.68 40.3963 354.263 40.3963M357.329 40.3963 361.912 40.3963M364.977 40.3963 369.56 40.3963M372.626 40.3963 377.209 40.3963M380.274 40.3963 382.566 40.3963 384.109 40.8139 385.209 41.9138 385.626 43.4567 385.626 45.7991M385.626 48.9257 385.626 53.6105M385.626 56.732 385.626 61.4169M385.626 64.5384 385.626 69.2232M385.626 72.3498 385.626 77.0346M385.626 80.1561 385.626 84.8409M385.626 87.9624 385.626 92.6472M385.626 95.7738 385.626 100.459M385.626 103.58 385.626 108.265M385.626 111.386 385.626 116.071M385.626 119.198 385.626 123.883M385.626 127.004 385.626 129.347 385.209 130.89 384.114 131.984 382.576 132.402 380.284 132.402M377.229 132.402 372.636 132.402M369.581 132.402 364.988 132.402M361.932 132.402 357.339 132.402M354.284 132.402 349.691 132.402M346.635 132.402 342.042 132.402M338.987 132.402 334.394 132.402M331.338 132.402 326.755 132.402M323.69 132.402 319.107 132.402M316.041 132.402 311.458 132.402M308.393 132.402 303.81 132.402M300.745 132.402 296.162 132.402M293.096 132.402 288.513 132.402M285.448 132.402 280.865 132.402M277.799 132.402 273.216 132.402M270.161 132.402 267.849 132.402 266.306 131.984 265.211 130.89 264.794 129.342 264.794 126.999M264.794 123.878 264.794 119.193M264.794 116.066 264.794 111.381M264.794 108.26 264.794 103.575M264.794 100.454 264.794 95.7688M264.794 92.6421 264.794 87.9573M264.794 84.8358 264.794 80.151M264.794 77.0295 264.794 72.3447M264.794 69.2181 264.794 64.5333M264.794 61.4118 264.794 56.727M264.794 53.6054 264.794 48.9206M264.794 45.794 264.794 43.4516 265.211 41.9138 266.306 40.819 267.849 40.4014 270.14 40.4014" stroke="#5E5E5E" stroke-width="1.52766" fill="none" transform="matrix(1 0 0 1.00008 -142.581 10.1852)"/><path d="M456.352 369.693C456.352 368.012 457.726 366.637 459.407 366.637L586.874 366.637C588.555 366.637 589.93 368.012 589.93 369.693L589.93 526.532C589.93 528.213 588.555 529.587 586.874 529.587L459.407 529.587C457.726 529.587 456.352 528.213 456.352 526.532Z" fill="#FFECA9" fill-opacity="0.46" transform="matrix(1 0 0 1.00008 -142.581 10.1852)"/><path d="M464.662 366.637 469.153 366.637M472.158 366.637 476.654 366.637M479.659 366.637 484.15 366.637M487.154 366.637 491.651 366.637M494.655 366.637 499.146 366.637M502.151 366.637 506.647 366.637M509.651 366.637 514.143 366.637M517.147 366.637 521.644 366.637M524.648 366.637 529.139 366.637M532.144 366.637 536.64 366.637M539.644 366.637 544.136 366.637M547.14 366.637 551.631 366.637M554.626 366.637 559.127 366.637M562.132 366.637 566.623 366.637M569.627 366.637 574.124 366.637M577.128 366.637 581.619 366.637M584.614 366.637 586.864 366.637 588.407 367.055 589.502 368.15 589.92 369.693 589.92 371.933M589.92 374.922 589.92 379.404M589.92 382.388 589.92 386.869M589.92 389.858 589.92 394.339M589.92 397.328 589.92 401.809M589.92 404.793 589.92 409.274M589.92 412.263 589.92 416.745M589.92 419.734 589.92 424.215M589.92 427.199 589.92 431.68M589.92 434.669 589.92 439.15M589.92 442.139 589.92 446.62M589.92 449.604 589.92 454.086M589.92 457.075 589.92 461.556M589.92 464.545 589.92 469.026M589.92 472.01 589.92 476.491M589.92 479.48 589.92 483.961M589.92 486.951 589.92 491.432M589.92 494.416 589.92 498.897M589.92 501.886 589.92 506.367M589.92 509.356 589.92 513.837M589.92 516.821 589.92 521.302M589.92 524.292 589.92 526.532 589.502 528.075 588.407 529.17 586.864 529.587 584.614 529.587M581.609 529.587 577.118 529.587M574.113 529.587 569.617 529.587M566.613 529.587 562.121 529.587M559.127 529.587 554.626 529.587M551.621 529.587 547.13 529.587M544.126 529.587 539.634 529.587M536.63 529.587 532.133 529.587M529.139 529.587 524.643 529.587M521.638 529.587 517.137 529.587M514.133 529.587 509.641 529.587M506.637 529.587 502.14 529.587M499.146 529.587 494.65 529.587M491.646 529.587 487.144 529.587M484.14 529.587 479.648 529.587M476.644 529.587 472.148 529.587M469.153 529.587 464.657 529.587M461.653 529.587 459.402 529.587 457.859 529.17 456.764 528.075 456.346 526.532 456.346 524.292M456.346 521.302 456.346 516.821M456.346 513.837 456.346 509.356M456.346 506.367 456.346 501.886M456.346 498.897 456.346 494.416M456.346 491.432 456.346 486.951M456.346 483.961 456.346 479.48M456.346 476.491 456.346 472.01M456.346 469.026 456.346 464.545M456.346 461.556 456.346 457.075M456.346 454.086 456.346 449.604M456.346 446.62 456.346 442.139M456.346 439.15 456.346 434.669M456.346 431.68 456.346 427.199M456.346 424.215 456.346 419.734M456.346 416.745 456.346 412.263M456.346 409.274 456.346 404.793M456.346 401.809 456.346 397.328M456.346 394.339 456.346 389.858M456.346 386.869 456.346 382.388M456.346 379.404 456.346 374.922M456.346 371.933 456.346 369.693 456.764 368.15 457.859 367.055 459.402 366.637 461.653 366.637" stroke="#5E5E5E" stroke-width="1.52766" fill="none" transform="matrix(1 0 0 1.00008 -142.581 10.1852)"/><path d="M396.427 13.2397C396.427 11.5593 397.802 10.1844 399.482 10.1844L709.087 10.1844C710.767 10.1844 712.142 11.5593 712.142 13.2397L712.142 343.213C712.142 344.894 710.767 346.269 709.087 346.269L399.482 346.269C397.802 346.269 396.427 344.894 396.427 343.213Z" fill="#99D2F2" fill-opacity="0.46" transform="matrix(1 0 0 1.00008 -142.581 10.1852)"/><path d="M404.768 10.1844 409.3 10.1844M412.319 10.1844 416.851 10.1844M419.876 10.1844 424.408 10.1844M427.428 10.1844 431.96 10.1844M434.98 10.1844 439.512 10.1844M442.531 10.1844 447.063 10.1844M450.083 10.1844 454.615 10.1844M457.635 10.1844 462.157 10.1844M465.176 10.1844 469.708 10.1844M472.733 10.1844 477.265 10.1844M480.285 10.1844 484.817 10.1844M487.837 10.1844 492.369 10.1844M495.388 10.1844 499.92 10.1844M502.94 10.1844 507.472 10.1844M510.492 10.1844 515.024 10.1844M518.038 10.1844 522.57 10.1844M525.59 10.1844 530.122 10.1844M533.142 10.1844 537.674 10.1844M540.693 10.1844 545.225 10.1844M548.25 10.1844 552.782 10.1844M555.802 10.1844 560.334 10.1844M563.354 10.1844 567.886 10.1844M570.9 10.1844 575.432 10.1844M578.452 10.1844 582.984 10.1844M586.004 10.1844 590.536 10.1844M593.555 10.1844 598.087 10.1844M601.112 10.1844 605.644 10.1844M608.664 10.1844 613.196 10.1844M616.216 10.1844 620.748 10.1844M623.767 10.1844 628.299 10.1844M631.319 10.1844 635.851 10.1844M638.871 10.1844 643.403 10.1844M646.417 10.1844 650.949 10.1844M653.969 10.1844 658.501 10.1844M661.521 10.1844 666.053 10.1844M669.067 10.1844 673.6 10.1844M676.619 10.1844 681.151 10.1844M684.171 10.1844 688.703 10.1844M691.723 10.1844 696.255 10.1844M699.269 10.1844 703.801 10.1844M706.821 10.1844 709.087 10.1844 710.63 10.6019 711.725 11.6968 712.142 13.2397 712.142 15.5414M712.142 18.6119 712.142 23.2153M712.142 26.2808 712.142 30.8841M712.142 33.9547 712.142 38.5529M712.142 41.6235 712.142 46.2269M712.142 49.2975 712.142 53.9008M712.142 56.9714 712.142 61.5747M712.142 64.6453 712.142 69.2537M712.142 72.3294 712.142 76.9328M712.142 80.0033 712.142 84.6118M712.142 87.6824 712.142 92.2857M712.142 95.3563 712.142 99.9596M712.142 103.025 712.142 107.628M712.142 110.699 712.142 115.297M712.142 118.368 712.142 122.971M712.142 126.042 712.142 130.645M712.142 133.716 712.142 138.319M712.142 141.39 712.142 145.993M712.142 149.064 712.142 153.672M712.142 156.737 712.142 161.346M712.142 164.411 712.142 169.02M712.142 172.085 712.142 176.699M712.142 179.754 712.142 184.368M712.142 187.433 712.142 192.042M712.142 195.107 712.142 199.716M712.142 202.781 712.142 207.389M712.142 210.455 712.142 215.053M712.142 218.124 712.142 222.727M712.142 225.798 712.142 230.401M712.142 233.472 712.142 238.075M712.142 241.146 712.142 245.749M712.142 248.825 712.142 253.428M712.142 256.499 712.142 261.107M712.142 264.178 712.142 268.781M712.142 271.851 712.142 276.455M712.142 279.52 712.142 284.124M712.142 287.194 712.142 291.792M712.142 294.863 712.142 299.466M712.142 302.537 712.142 307.14M712.142 310.211 712.142 314.814M712.142 317.885 712.142 322.488M712.142 325.564 712.142 330.167M712.142 333.238 712.142 337.846M712.142 340.917 712.142 343.213 711.725 344.756 710.63 345.851 709.087 346.269 706.821 346.269M703.801 346.269 699.269 346.269M696.25 346.269 691.718 346.269M688.693 346.269 684.161 346.269M681.141 346.269 676.609 346.269M673.589 346.269 669.057 346.269M666.038 346.269 661.506 346.269M658.486 346.269 653.954 346.269M650.934 346.269 646.412 346.269M643.393 346.269 638.861 346.269M635.836 346.269 631.304 346.269M628.284 346.269 623.752 346.269M620.732 346.269 616.2 346.269M613.181 346.269 608.649 346.269M605.629 346.269 601.097 346.269M598.077 346.269 593.545 346.269M590.531 346.269 585.999 346.269M582.979 346.269 578.447 346.269M575.427 346.269 570.895 346.269M567.875 346.269 563.344 346.269M560.319 346.269 555.787 346.269M552.767 346.269 548.235 346.269M545.215 346.269 540.683 346.269M537.669 346.269 533.137 346.269M530.117 346.269 525.585 346.269M522.565 346.269 518.033 346.269M515.014 346.269 510.481 346.269M507.457 346.269 502.925 346.269M499.905 346.269 495.373 346.269M492.353 346.269 487.831 346.269M484.812 346.269 480.28 346.269M477.26 346.269 472.728 346.269M469.708 346.269 465.176 346.269M462.162 346.269 457.63 346.269M454.61 346.269 450.078 346.269M447.058 346.269 442.526 346.269M439.512 346.269 434.98 346.269M431.96 346.269 427.428 346.269M424.408 346.269 419.876 346.269M416.857 346.269 412.324 346.269M409.31 346.269 404.778 346.269M401.758 346.269 399.492 346.269 397.949 345.851 396.854 344.756 396.437 343.213 396.437 340.912M396.437 337.841 396.437 333.238M396.437 330.172 396.437 325.569M396.437 322.498 396.437 317.9M396.437 314.83 396.437 310.226M396.437 307.156 396.437 302.552M396.437 299.482 396.437 294.878M396.437 291.808 396.437 287.199M396.437 284.124 396.437 279.52M396.437 276.45 396.437 271.841M396.437 268.771 396.437 264.167M396.437 261.097 396.437 256.493M396.437 253.428 396.437 248.825M396.437 245.754 396.437 241.156M396.437 238.085 396.437 233.482M396.437 230.411 396.437 225.808M396.437 222.737 396.437 218.134M396.437 215.063 396.437 210.46M396.437 207.389 396.437 202.781M396.437 199.716 396.437 195.107M396.437 192.042 396.437 187.433M396.437 184.368 396.437 179.754M396.437 176.699 396.437 172.085M396.437 169.02 396.437 164.411M396.437 161.346 396.437 156.737M396.437 153.672 396.437 149.064M396.437 145.998 396.437 141.4M396.437 138.329 396.437 133.726M396.437 130.655 396.437 126.052M396.437 122.981 396.437 118.378M396.437 115.307 396.437 110.704M396.437 107.628 396.437 103.025M396.437 99.9545 396.437 95.3461M396.437 92.2755 396.437 87.6722M396.437 84.6016 396.437 79.9983M396.437 76.9328 396.437 72.3294M396.437 69.2588 396.437 64.6606M396.437 61.59 396.437 56.9867M396.437 53.9161 396.437 49.3127M396.437 46.2421 396.437 41.6388M396.437 38.5682 396.437 33.9649M396.437 30.8892 396.437 26.2859M396.437 23.2153 396.437 18.6068M396.437 15.5363 396.437 13.2397 396.854 11.6968 397.949 10.6019 399.492 10.1844 401.758 10.1844" stroke="#5E5E5E" stroke-width="1.52766" fill="none" transform="matrix(1 0 0 1.00008 -142.581 10.1852)"/><path d="M476.338 390.061C476.338 388.381 477.713 387.006 479.394 387.006L554.758 387.006C556.449 387.006 557.813 388.381 557.813 390.061L557.813 414.504C557.813 416.184 556.449 417.559 554.758 417.559L479.394 417.559C477.713 417.559 476.338 416.184 476.338 414.504Z" stroke="#5E5E5E" stroke-width="1.52766" fill="#FFFFFF" transform="matrix(1 0 0 1.00008 -142.581 10.1852)"/><path d="M1.35791-14.0318C6.61984-13.9752 13.0134-14.9371 12.9002-9.56199 12.8436-5.3185 8.99619-4.58296 4.30006-4.92244L4.30006 0 1.35791 0 1.35791-14.0318ZM4.30006-7.18563C6.95931-7.18563 9.95804-6.78958 9.95804-9.5054 9.95804-12.1647 6.90273-11.712 4.30006-11.712L4.30006-7.18563" fill="#333333" transform="matrix(1 0 0 1.00008 349.064 417.656)"/><path d="M1.35791 0 1.35791-14.0318 4.30006-14.0318 4.30006 0 1.35791 0" fill="#333333" transform="matrix(1 0 0 1.00008 362.643 417.656)"/><path d="M13.5792-9.84488C13.5792-7.58169 12.2778-6.39352 10.5238-5.8843L14.3147 0 10.9765 0 7.75143-5.3185 4.30006-5.3185 4.30006 0 1.35791 0 1.35791-14.0318C6.61984-13.8055 13.6357-15.3331 13.5792-9.84488ZM4.30006-7.58169C7.01589-7.69485 10.637-6.90273 10.637-9.73172 10.637-12.4476 6.90273-11.5423 4.30006-11.712L4.30006-7.58169" fill="#333333" transform="matrix(1 0 0 1.00008 368.301 417.656)"/><path d="M1.30134 0 1.30134-2.09345 4.7527-2.09345 4.7527-11.6554 1.41449-9.56199 1.41449-11.712 4.92244-14.0318 7.52511-14.0318 7.52511-2.09345 10.7502-2.09345 10.7502 0 1.30134 0" fill="#333333" transform="matrix(1 0 0 1.00008 388.615 417.656)"/><path d="M476.338 420.615C476.338 418.934 477.713 417.559 479.394 417.559L554.758 417.559C556.449 417.559 557.813 418.934 557.813 420.615L557.813 445.057C557.813 446.737 556.449 448.112 554.758 448.112L479.394 448.112C477.713 448.112 476.338 446.737 476.338 445.057Z" stroke="#5E5E5E" stroke-width="1.52766" fill="#FFFFFF" transform="matrix(1 0 0 1.00008 -142.581 10.1852)"/><path d="M1.35791-14.0318C6.61984-13.9752 13.0134-14.9371 12.9002-9.56199 12.8436-5.3185 8.99619-4.58296 4.30006-4.92244L4.30006 0 1.35791 0 1.35791-14.0318ZM4.30006-7.18563C6.95931-7.18563 9.95804-6.78958 9.95804-9.5054 9.95804-12.1647 6.90273-11.712 4.30006-11.712L4.30006-7.18563" fill="#333333" transform="matrix(1 0 0 1.00008 349.064 448.212)"/><path d="M1.35791 0 1.35791-14.0318 4.30006-14.0318 4.30006 0 1.35791 0" fill="#333333" transform="matrix(1 0 0 1.00008 362.643 448.212)"/><path d="M13.5792-9.84488C13.5792-7.58169 12.2778-6.39352 10.5238-5.8843L14.3147 0 10.9765 0 7.75143-5.3185 4.30006-5.3185 4.30006 0 1.35791 0 1.35791-14.0318C6.61984-13.8055 13.6357-15.3331 13.5792-9.84488ZM4.30006-7.58169C7.01589-7.69485 10.637-6.90273 10.637-9.73172 10.637-12.4476 6.90273-11.5423 4.30006-11.712L4.30006-7.58169" fill="#333333" transform="matrix(1 0 0 1.00008 368.301 448.212)"/><path d="M10.2975-10.2975C10.2975-5.8843 5.54482-5.43166 4.01717-2.31977L10.5238-2.31977 10.5238 0 0.678957 0C0.339479-5.71456 6.28036-5.65798 7.46853-10.1844 7.52511-11.4291 6.78958-11.9383 5.6014-11.9949 4.30006-11.9949 3.79085-11.2028 3.62111-10.0712L0.848697-10.2409C1.1316-12.787 2.65925-14.2015 5.6014-14.2015 8.48697-14.2015 10.2975-12.9568 10.2975-10.2975" fill="#333333" transform="matrix(1 0 0 1.00008 388.615 448.212)"/><path d="M476.338 451.168C476.338 449.487 477.713 448.112 479.394 448.112L554.758 448.112C556.449 448.112 557.813 449.487 557.813 451.168L557.813 475.61C557.813 477.291 556.449 478.666 554.758 478.666L479.394 478.666C477.713 478.666 476.338 477.291 476.338 475.61Z" stroke="#5E5E5E" stroke-width="1.52766" fill="#FFFFFF" transform="matrix(1 0 0 1.00008 -142.581 10.1852)"/><path d="M1.35791-14.0318C6.61984-13.9752 13.0134-14.9371 12.9002-9.56199 12.8436-5.3185 8.99619-4.58296 4.30006-4.92244L4.30006 0 1.35791 0 1.35791-14.0318ZM4.30006-7.18563C6.95931-7.18563 9.95804-6.78958 9.95804-9.5054 9.95804-12.1647 6.90273-11.712 4.30006-11.712L4.30006-7.18563" fill="#333333" transform="matrix(1 0 0 1.00008 349.064 478.767)"/><path d="M1.35791 0 1.35791-14.0318 4.30006-14.0318 4.30006 0 1.35791 0" fill="#333333" transform="matrix(1 0 0 1.00008 362.643 478.767)"/><path d="M13.5792-9.84488C13.5792-7.58169 12.2778-6.39352 10.5238-5.8843L14.3147 0 10.9765 0 7.75143-5.3185 4.30006-5.3185 4.30006 0 1.35791 0 1.35791-14.0318C6.61984-13.8055 13.6357-15.3331 13.5792-9.84488ZM4.30006-7.58169C7.01589-7.69485 10.637-6.90273 10.637-9.73172 10.637-12.4476 6.90273-11.5423 4.30006-11.712L4.30006-7.58169" fill="#333333" transform="matrix(1 0 0 1.00008 368.301 478.767)"/><path d="M7.24221-7.18563C9.16593-6.95931 10.4107-5.99746 10.5804-3.90401 10.9765 1.24476 2.20661 1.41449 0.848697-2.31977 0.622378-2.82899 0.509218-3.28163 0.452638-3.79085L3.33821-4.07374C3.39479-2.71583 4.24348-2.09345 5.6014-2.03687 6.90273-2.03687 7.80801-2.71583 7.75143-4.07374 7.69485-5.82772 5.99746-6.11062 4.07374-5.99746L4.07374-8.26065C5.8843-8.14749 7.41195-8.43039 7.41195-10.1278 7.41195-11.2594 6.67642-11.9949 5.48824-11.9949 4.30006-11.9949 3.62111-11.2594 3.50795-10.1844L0.678957-10.3541C1.01844-12.8436 2.77241-14.2015 5.54482-14.2015 8.37381-14.2015 10.2409-13.0699 10.2409-10.4673 10.2409-8.48697 8.99619-7.52511 7.24221-7.18563" fill="#333333" transform="matrix(1 0 0 1.00008 388.615 478.767)"/><path d="M476.338 481.721C476.338 480.04 477.713 478.666 479.394 478.666L554.758 478.666C556.449 478.666 557.813 480.04 557.813 481.721L557.813 506.163C557.813 507.844 556.449 509.219 554.758 509.219L479.394 509.219C477.713 509.219 476.338 507.844 476.338 506.163Z" stroke="#5E5E5E" stroke-width="1.52766" fill="#FFFFFF" transform="matrix(1 0 0 1.00008 -142.581 10.1852)"/><path d="M1.35791-14.0318C6.61984-13.9752 13.0134-14.9371 12.9002-9.56199 12.8436-5.3185 8.99619-4.58296 4.30006-4.92244L4.30006 0 1.35791 0 1.35791-14.0318ZM4.30006-7.18563C6.95931-7.18563 9.95804-6.78958 9.95804-9.5054 9.95804-12.1647 6.90273-11.712 4.30006-11.712L4.30006-7.18563" fill="#333333" transform="matrix(1 0 0 1.00008 349.064 509.323)"/><path d="M1.35791 0 1.35791-14.0318 4.30006-14.0318 4.30006 0 1.35791 0" fill="#333333" transform="matrix(1 0 0 1.00008 362.643 509.323)"/><path d="M13.5792-9.84488C13.5792-7.58169 12.2778-6.39352 10.5238-5.8843L14.3147 0 10.9765 0 7.75143-5.3185 4.30006-5.3185 4.30006 0 1.35791 0 1.35791-14.0318C6.61984-13.8055 13.6357-15.3331 13.5792-9.84488ZM4.30006-7.58169C7.01589-7.69485 10.637-6.90273 10.637-9.73172 10.637-12.4476 6.90273-11.5423 4.30006-11.712L4.30006-7.58169" fill="#333333" transform="matrix(1 0 0 1.00008 368.301 509.323)"/><path d="M9.33567-2.82899 9.33567 0 6.67642 0 6.67642-2.82899 0.282899-2.82899 0.282899-4.97902 6.22378-14.0318 9.33567-14.0318 9.33567-4.92244 11.2028-4.92244 11.2028-2.82899 9.33567-2.82899ZM6.67642-4.92244 6.78958-11.4857 2.60267-4.92244 6.67642-4.92244" fill="#333333" transform="matrix(1 0 0 1.00008 388.615 509.323)"/><path d="M303.204 176.19C303.204 174.509 304.579 173.134 306.259 173.134L412.177 173.134C413.867 173.134 415.232 174.509 415.232 176.19L415.232 424.688C415.232 426.369 413.867 427.744 412.177 427.744L306.259 427.744C304.579 427.744 303.204 426.369 303.204 424.688Z" stroke="#5E5E5E" stroke-width="1.52766" fill="#FFFFFF" transform="matrix(1 0 0 1.00008 -142.581 10.1852)"/><path d="M11.2594 0 10.0146-3.56453 4.69612-3.56453 3.45137 0 0.509218 0 5.6014-14.0318 9.05277-14.0318 14.1449 0 11.2594 0ZM9.39225-5.77114 7.35537-11.8818C6.78958-9.73172 5.99746-7.80801 5.3185-5.77114L9.39225-5.77114" fill="#333333" transform="matrix(1 0 0 1.00008 177.74 291.853)"/><path d="M7.63827-8.48697C5.43166-9.16593 4.24348-7.75143 4.24348-5.26192L4.24348 0 1.41449 0 1.35791-10.7502 4.01717-10.7502C4.13032-10.0146 3.96059-9.10935 4.1869-8.48697 4.52638-10.0712 5.71456-11.4857 7.63827-10.8067L7.63827-8.48697" fill="#333333" transform="matrix(1 0 0 1.00008 192.394 291.853)"/><path d="M4.97902-10.9765C6.733-11.0331 7.58169-10.1278 8.26065-9.05277L8.20407-14.7673 11.0331-14.7673 11.0896 0 8.37381 0C8.26065-0.565798 8.37381-1.30134 8.20407-1.75397 7.58169-0.452638 6.56326 0.226319 4.7527 0.226319 1.81055 0.226319 0.905277-2.31977 0.848697-5.37508 0.848697-8.54355 1.92371-10.8633 4.97902-10.9765ZM5.94088-1.69739C7.80801-1.69739 8.20407-3.39479 8.26065-5.43166 8.31723-7.52511 7.75143-9.05277 5.94088-9.05277 4.13032-9.05277 3.79085-7.35537 3.73427-5.37508 3.73427-2.94215 4.4698-1.69739 5.94088-1.69739" fill="#333333" transform="matrix(1 0 0 1.00008 200.315 291.853)"/><path d="M4.80928 0.226319C-0.11316 0.282899 1.52765-6.1672 1.24476-10.7502L4.07374-10.7502C4.4698-7.52511 2.77241-2.26319 5.94088-1.86713 9.33567-2.15003 7.92117-7.35537 8.20407-10.7502L11.0331-10.7502 11.0896 0 8.43039 0C8.31723-0.678957 8.48697-1.58423 8.26065-2.15003 7.58169-0.735537 6.67642 0.226319 4.80928 0.226319" fill="#333333" transform="matrix(1 0 0 1.00008 212.706 291.853)"/><path d="M1.41449-12.6739 1.41449-14.7673 4.24348-14.7673 4.24348-12.6739 1.41449-12.6739ZM1.41449 0 1.41449-10.7502 4.24348-10.7502 4.24348 0 1.41449 0" fill="#333333" transform="matrix(1 0 0 1.00008 225.097 291.853)"/><path d="M7.63827-10.9765C12.5607-11.0331 10.9199-4.58296 11.2028 0L8.37381 0C7.97775-3.22505 9.67514-8.88303 6.4501-8.88303 3.11189-8.88303 4.52638-3.39479 4.24348 0L1.41449 0 1.35791-10.7502 4.01717-10.7502C4.13032-10.0712 3.96059-9.16593 4.1869-8.60013 4.86586-10.0712 5.77114-10.9199 7.63827-10.9765" fill="#333333" transform="matrix(1 0 0 1.00008 230.755 291.853)"/><path d="M6.22378-10.9765C9.84488-10.9765 11.6554-8.93961 11.6554-5.37508 11.6554-1.75397 9.67514 0.226319 6.1672 0.226319 2.71583 0.226319 0.792117-1.81055 0.792117-5.37508 0.792117-8.88303 2.71583-10.9765 6.22378-10.9765ZM6.1672-1.69739C8.14749-1.69739 8.71329-3.28163 8.71329-5.37508 8.71329-7.63827 8.14749-9.05277 6.28036-9.05277 4.35664-9.05277 3.73427-7.58169 3.73427-5.37508 3.73427-3.33821 4.30006-1.69739 6.1672-1.69739" fill="#333333" transform="matrix(1 0 0 1.00008 243.146 291.853)"/><path d="M13.0134 0 13.1265-11.5423 9.5054 0 7.41195 0 3.84743-11.5423 3.96059 0 1.35791 0 1.35791-14.0318 5.3185-14.0318 8.48697-3.56453 11.712-14.0318 15.616-14.0318 15.616 0 13.0134 0" fill="#333333" transform="matrix(1 0 0 1.00008 186.509 316.298)"/><path d="M1.35791 0 1.35791-14.0318 12.391-14.0318 12.391-11.7686 4.30006-11.7686 4.30006-8.20407 11.7686-8.20407 11.7686-5.94088 4.30006-5.94088 4.30006-2.26319 12.787-2.26319 12.787 0 1.35791 0" fill="#333333" transform="matrix(1 0 0 1.00008 203.427 316.298)"/><path d="M3.79085-7.07247C3.79085-4.01717 5.09218-2.09345 8.03433-2.09345 9.61856-2.09345 11.0331-2.48951 11.8818-3.28163L11.8818-5.20534 8.48697-5.20534 8.48697-7.41195 14.5976-7.41195 14.5976-2.26319C13.1265-0.792117 10.8633 0.226319 7.92117 0.226319 3.28163 0.226319 1.1316-2.37635 0.848697-7.07247 0.452638-13.3528 7.12905-15.8423 12.1647-13.2397 13.2397-12.6739 13.8055-11.7686 14.2581-10.5804L11.5989-9.73172C10.9765-11.0331 9.95804-11.9383 8.03433-11.9383 5.0356-11.8818 3.79085-10.0712 3.79085-7.07247" fill="#333333" transform="matrix(1 0 0 1.00008 217.006 316.298)"/><path d="M11.2594 0 10.0146-3.56453 4.69612-3.56453 3.45137 0 0.509218 0 5.6014-14.0318 9.05277-14.0318 14.1449 0 11.2594 0ZM9.39225-5.77114 7.35537-11.8818C6.78958-9.73172 5.99746-7.80801 5.3185-5.77114L9.39225-5.77114" fill="#333333" transform="matrix(1 0 0 1.00008 232.848 316.298)"/><path d="M10.2975-10.2975C10.2975-5.8843 5.54482-5.43166 4.01717-2.31977L10.5238-2.31977 10.5238 0 0.678957 0C0.339479-5.71456 6.28036-5.65798 7.46853-10.1844 7.52511-11.4291 6.78958-11.9383 5.6014-11.9949 4.30006-11.9949 3.79085-11.2028 3.62111-10.0712L0.848697-10.2409C1.1316-12.787 2.65925-14.2015 5.6014-14.2015 8.48697-14.2015 10.2975-12.9568 10.2975-10.2975" fill="#333333" transform="matrix(1 0 0 1.00008 194.007 340.742)"/><path d="M7.86459-4.58296C7.86459-7.18563 4.7527-7.69485 3.73427-6.11062L1.01844-6.11062 1.52765-14.0318 9.95804-14.0318 9.95804-11.9383 4.07374-11.9383 3.84743-8.37381C6.33694-10.5238 11.3725-8.60013 10.7502-4.63954 11.3725 1.18818 1.18818 1.98029 0.622378-3.50795L3.39479-3.73427C3.67769-2.71583 4.24348-2.03687 5.6014-2.03687 7.07247-2.03687 7.86459-3.05531 7.86459-4.58296" fill="#333333" transform="matrix(1 0 0 1.00008 205.323 340.742)"/><path d="M6.50668-8.99619C9.22251-8.99619 10.5804-7.29879 10.5804-4.58296 10.5804-1.52765 8.88303 0.226319 5.8843 0.226319 2.26319 0.226319 0.735537-2.60267 0.735537-6.67642 0.735537-12.2212 4.01717-15.8989 8.71329-13.466 9.56199-13.0134 9.90146-12.1081 10.2409-10.9765L7.58169-10.637C7.29879-12.391 4.86586-12.391 4.13032-10.8633 3.73427-10.0712 3.50795-8.99619 3.50795-7.46853 4.01717-8.43039 5.09218-8.99619 6.50668-8.99619ZM5.77114-1.98029C7.12905-1.98029 7.80801-3.11189 7.80801-4.52638 7.80801-5.94088 7.18563-6.95931 5.71456-6.95931 4.41322-6.95931 3.67769-6.1672 3.67769-4.80928 3.67769-3.28163 4.30006-1.98029 5.77114-1.98029" fill="#333333" transform="matrix(1 0 0 1.00008 216.639 340.742)"/><path d="M5.71456-14.2015C9.56199-14.2015 10.4673-11.1462 10.4673-7.01589 10.4673-2.82899 9.39225 0.226319 5.6014 0.226319 1.81055 0.226319 0.848697-2.94215 0.792117-7.01589 0.735537-11.2594 1.75397-14.2015 5.71456-14.2015ZM5.65798-1.98029C7.75143-2.26319 7.69485-4.58296 7.69485-7.01589 7.69485-9.44882 7.92117-12.0515 5.65798-12.0515 3.45137-12.0515 3.62111-9.5054 3.62111-7.01589 3.62111-4.58296 3.45137-2.20661 5.65798-1.98029" fill="#333333" transform="matrix(1 0 0 1.00008 227.955 340.742)"/><path d="M589.93 126.032C589.93 145.295 573.971 160.913 554.284 160.913 534.598 160.913 518.639 145.295 518.639 126.032 518.639 106.768 534.598 91.1501 554.284 91.1501 573.971 91.1501 589.93 106.768 589.93 126.032Z" stroke="#5E5E5E" stroke-width="1.52766" fill="#FFFFFF" transform="matrix(1 0 0 1.00008 -142.581 10.1852)"/><path d="M8.58128-6.12948C10.3258-5.94088 11.5046-5.09219 11.5046-3.34764 11.5046 1.08445 5.46939-0.188599 1.1316 0L1.1316-11.6932C5.09219-11.4574 10.703-12.7776 10.7973-8.72273 10.7973-7.26108 9.90147-6.36523 8.58128-6.12948ZM3.58339-6.97818C5.46939-7.11963 8.34553-6.36523 8.34553-8.39268 8.34553-10.4673 5.51654-9.71287 3.58339-9.85432L3.58339-6.97818ZM3.58339-1.7917C5.84658-1.93314 9.05278-1.1316 9.05278-3.53624 9.05278-5.79943 5.79943-5.04504 3.58339-5.18649L3.58339-1.7917" fill="#333333" transform="matrix(1 0 0 1.00008 385.84 139.702)"/><path d="M4.00774 0.188599C-0.0942997 0.235749 1.27305-5.13934 1.0373-8.95848L3.39479-8.95848C3.72484-6.27093 2.31034-1.88599 4.95074-1.55595 7.77973-1.7917 6.60098-6.12948 6.83673-8.95848L9.19423-8.95848 9.24137 0 7.02533 0C6.93103-0.565799 7.07248-1.3202 6.88388-1.7917 6.31808-0.612948 5.56368 0.188599 4.00774 0.188599" fill="#333333" transform="matrix(1 0 0 1.00008 398.052 139.702)"/><path d="M1.17875 0 1.17875-12.3061 3.53624-12.3061 3.53624 0 1.17875 0" fill="#333333" transform="matrix(1 0 0 1.00008 408.378 139.702)"/><path d="M6.36523-9.14708C8.81703-9.14708 9.66572-7.11963 9.66572-4.52639 9.66572-1.88599 8.76988 0.14145 6.22378 0.188599 4.80929 0.235749 4.05489-0.518649 3.48909-1.46165L3.39479 0 1.1316 0 1.17875-12.3061 3.53624-12.3061 3.53624-7.40253C4.05489-8.48698 4.90359-9.14708 6.36523-9.14708ZM5.37509-1.4145C6.83673-1.4145 7.26108-2.68754 7.26108-4.52639 7.26108-6.27093 6.93103-7.49683 5.42224-7.49683 3.91344-7.49683 3.48909-6.17663 3.48909-4.43209 3.48909-2.73469 3.86629-1.4145 5.37509-1.4145" fill="#333333" transform="matrix(1 0 0 1.00008 413.093 139.702)"/><path d="M1.08445 0 1.08445-1.74455 3.96059-1.74455 3.96059-9.71287 1.17875-7.96833 1.17875-9.76002 4.10204-11.6932 6.27093-11.6932 6.27093-1.74455 8.95848-1.74455 8.95848 0 1.08445 0" fill="#333333" transform="matrix(1 0 0 1.00008 428.136 139.702)"/><path d="M589.93 194.522C589.93 213.083 573.971 228.13 554.284 228.13 534.598 228.13 518.639 213.083 518.639 194.522 518.639 175.96 534.598 160.913 554.284 160.913 573.971 160.913 589.93 175.96 589.93 194.522Z" stroke="#5E5E5E" stroke-width="1.52766" fill="#FFFFFF" transform="matrix(1 0 0 1.00008 -142.581 10.1852)"/><path d="M8.58128-6.12948C10.3258-5.94088 11.5046-5.09219 11.5046-3.34764 11.5046 1.08445 5.46939-0.188599 1.1316 0L1.1316-11.6932C5.09219-11.4574 10.703-12.7776 10.7973-8.72273 10.7973-7.26108 9.90147-6.36523 8.58128-6.12948ZM3.58339-6.97818C5.46939-7.11963 8.34553-6.36523 8.34553-8.39268 8.34553-10.4673 5.51654-9.71287 3.58339-9.85432L3.58339-6.97818ZM3.58339-1.7917C5.84658-1.93314 9.05278-1.1316 9.05278-3.53624 9.05278-5.79943 5.79943-5.04504 3.58339-5.18649L3.58339-1.7917" fill="#333333" transform="matrix(1 0 0 1.00008 385.84 208.595)"/><path d="M4.00774 0.188599C-0.0942997 0.235749 1.27305-5.13934 1.0373-8.95848L3.39479-8.95848C3.72484-6.27093 2.31034-1.88599 4.95074-1.55595 7.77973-1.7917 6.60098-6.12948 6.83673-8.95848L9.19423-8.95848 9.24137 0 7.02533 0C6.93103-0.565799 7.07248-1.3202 6.88388-1.7917 6.31808-0.612948 5.56368 0.188599 4.00774 0.188599" fill="#333333" transform="matrix(1 0 0 1.00008 398.052 208.595)"/><path d="M1.17875 0 1.17875-12.3061 3.53624-12.3061 3.53624 0 1.17875 0" fill="#333333" transform="matrix(1 0 0 1.00008 408.378 208.595)"/><path d="M6.36523-9.14708C8.81703-9.14708 9.66572-7.11963 9.66572-4.52639 9.66572-1.88599 8.76988 0.14145 6.22378 0.188599 4.80929 0.235749 4.05489-0.518649 3.48909-1.46165L3.39479 0 1.1316 0 1.17875-12.3061 3.53624-12.3061 3.53624-7.40253C4.05489-8.48698 4.90359-9.14708 6.36523-9.14708ZM5.37509-1.4145C6.83673-1.4145 7.26108-2.68754 7.26108-4.52639 7.26108-6.27093 6.93103-7.49683 5.42224-7.49683 3.91344-7.49683 3.48909-6.17663 3.48909-4.43209 3.48909-2.73469 3.86629-1.4145 5.37509-1.4145" fill="#333333" transform="matrix(1 0 0 1.00008 413.093 208.595)"/><path d="M8.58128-8.58128C8.58128-4.90359 4.62069-4.52639 3.34764-1.93314L8.76988-1.93314 8.76988 0 0.565799 0C0.282899-4.76214 5.23364-4.71499 6.22378-8.48698 6.27093-9.52427 5.65798-9.94862 4.66784-9.99577 3.58339-9.99577 3.15904-9.33568 3.01759-8.39268L0.707248-8.53413C0.942997-10.6559 2.21604-11.8346 4.66784-11.8346 7.07248-11.8346 8.58128-10.7973 8.58128-8.58128" fill="#333333" transform="matrix(1 0 0 1.00008 428.136 208.595)"/><path d="M589.93 263.775C589.93 283.462 573.971 299.421 554.284 299.421 534.598 299.421 518.639 283.462 518.639 263.775 518.639 244.089 534.598 228.13 554.284 228.13 573.971 228.13 589.93 244.089 589.93 263.775Z" stroke="#5E5E5E" stroke-width="1.52766" fill="#FFFFFF" transform="matrix(1 0 0 1.00008 -142.581 10.1852)"/><path d="M8.58128-6.12948C10.3258-5.94088 11.5046-5.09219 11.5046-3.34764 11.5046 1.08445 5.46939-0.188599 1.1316 0L1.1316-11.6932C5.09219-11.4574 10.703-12.7776 10.7973-8.72273 10.7973-7.26108 9.90147-6.36523 8.58128-6.12948ZM3.58339-6.97818C5.46939-7.11963 8.34553-6.36523 8.34553-8.39268 8.34553-10.4673 5.51654-9.71287 3.58339-9.85432L3.58339-6.97818ZM3.58339-1.7917C5.84658-1.93314 9.05278-1.1316 9.05278-3.53624 9.05278-5.79943 5.79943-5.04504 3.58339-5.18649L3.58339-1.7917" fill="#333333" transform="matrix(1 0 0 1.00008 385.84 277.217)"/><path d="M4.00774 0.188599C-0.0942997 0.235749 1.27305-5.13934 1.0373-8.95848L3.39479-8.95848C3.72484-6.27093 2.31034-1.88599 4.95074-1.55595 7.77973-1.7917 6.60098-6.12948 6.83673-8.95848L9.19423-8.95848 9.24137 0 7.02533 0C6.93103-0.565799 7.07248-1.3202 6.88388-1.7917 6.31808-0.612948 5.56368 0.188599 4.00774 0.188599" fill="#333333" transform="matrix(1 0 0 1.00008 398.052 277.217)"/><path d="M1.17875 0 1.17875-12.3061 3.53624-12.3061 3.53624 0 1.17875 0" fill="#333333" transform="matrix(1 0 0 1.00008 408.378 277.217)"/><path d="M6.36523-9.14708C8.81703-9.14708 9.66572-7.11963 9.66572-4.52639 9.66572-1.88599 8.76988 0.14145 6.22378 0.188599 4.80929 0.235749 4.05489-0.518649 3.48909-1.46165L3.39479 0 1.1316 0 1.17875-12.3061 3.53624-12.3061 3.53624-7.40253C4.05489-8.48698 4.90359-9.14708 6.36523-9.14708ZM5.37509-1.4145C6.83673-1.4145 7.26108-2.68754 7.26108-4.52639 7.26108-6.27093 6.93103-7.49683 5.42224-7.49683 3.91344-7.49683 3.48909-6.17663 3.48909-4.43209 3.48909-2.73469 3.86629-1.4145 5.37509-1.4145" fill="#333333" transform="matrix(1 0 0 1.00008 413.093 277.217)"/><path d="M6.03518-5.98803C7.63828-5.79943 8.67558-4.99789 8.81703-3.25334 9.14708 1.0373 1.83885 1.17875 0.707248-1.93314 0.518649-2.35749 0.424349-2.73469 0.377199-3.15904L2.78184-3.39479C2.82899-2.26319 3.53624-1.74455 4.66784-1.6974 5.75228-1.6974 6.50668-2.26319 6.45953-3.39479 6.41238-4.85644 4.99789-5.09219 3.39479-4.99789L3.39479-6.88388C4.90359-6.78958 6.17663-7.02533 6.17663-8.43983 6.17663-9.38282 5.56368-9.99577 4.57354-9.99577 3.58339-9.99577 3.01759-9.38282 2.92329-8.48698L0.565799-8.62843C0.848698-10.703 2.31034-11.8346 4.62069-11.8346 6.97818-11.8346 8.53413-10.8916 8.53413-8.72273 8.53413-7.07248 7.49683-6.27093 6.03518-5.98803" fill="#333333" transform="matrix(1 0 0 1.00008 428.136 277.217)"/><path d="M589.93 333.029C589.93 351.59 573.971 366.637 554.284 366.637 534.598 366.637 518.639 351.59 518.639 333.029 518.639 314.468 534.598 299.421 554.284 299.421 573.971 299.421 589.93 314.468 589.93 333.029Z" stroke="#5E5E5E" stroke-width="1.52766" fill="#FFFFFF" transform="matrix(1 0 0 1.00008 -142.581 10.1852)"/><path d="M8.58128-6.12948C10.3258-5.94088 11.5046-5.09219 11.5046-3.34764 11.5046 1.08445 5.46939-0.188599 1.1316 0L1.1316-11.6932C5.09219-11.4574 10.703-12.7776 10.7973-8.72273 10.7973-7.26108 9.90147-6.36523 8.58128-6.12948ZM3.58339-6.97818C5.46939-7.11963 8.34553-6.36523 8.34553-8.39268 8.34553-10.4673 5.51654-9.71287 3.58339-9.85432L3.58339-6.97818ZM3.58339-1.7917C5.84658-1.93314 9.05278-1.1316 9.05278-3.53624 9.05278-5.79943 5.79943-5.04504 3.58339-5.18649L3.58339-1.7917" fill="#333333" transform="matrix(1 0 0 1.00008 385.84 347.113)"/><path d="M4.00774 0.188599C-0.0942997 0.235749 1.27305-5.13934 1.0373-8.95848L3.39479-8.95848C3.72484-6.27093 2.31034-1.88599 4.95074-1.55595 7.77973-1.7917 6.60098-6.12948 6.83673-8.95848L9.19423-8.95848 9.24137 0 7.02533 0C6.93103-0.565799 7.07248-1.3202 6.88388-1.7917 6.31808-0.612948 5.56368 0.188599 4.00774 0.188599" fill="#333333" transform="matrix(1 0 0 1.00008 398.052 347.113)"/><path d="M1.17875 0 1.17875-12.3061 3.53624-12.3061 3.53624 0 1.17875 0" fill="#333333" transform="matrix(1 0 0 1.00008 408.378 347.113)"/><path d="M6.36523-9.14708C8.81703-9.14708 9.66572-7.11963 9.66572-4.52639 9.66572-1.88599 8.76988 0.14145 6.22378 0.188599 4.80929 0.235749 4.05489-0.518649 3.48909-1.46165L3.39479 0 1.1316 0 1.17875-12.3061 3.53624-12.3061 3.53624-7.40253C4.05489-8.48698 4.90359-9.14708 6.36523-9.14708ZM5.37509-1.4145C6.83673-1.4145 7.26108-2.68754 7.26108-4.52639 7.26108-6.27093 6.93103-7.49683 5.42224-7.49683 3.91344-7.49683 3.48909-6.17663 3.48909-4.43209 3.48909-2.73469 3.86629-1.4145 5.37509-1.4145" fill="#333333" transform="matrix(1 0 0 1.00008 413.093 347.113)"/><path d="M7.77973-2.35749 7.77973 0 5.56368 0 5.56368-2.35749 0.235749-2.35749 0.235749-4.14919 5.18649-11.6932 7.77973-11.6932 7.77973-4.10204 9.33568-4.10204 9.33568-2.35749 7.77973-2.35749ZM5.56368-4.10204 5.65798-9.57142 2.16889-4.10204 5.56368-4.10204" fill="#333333" transform="matrix(1 0 0 1.00008 428.136 347.113)"/><path d="M569.561 40.7375 598.077 40.7375M598.077 57.0325 598.077 24.4425M605.206 48.885 605.206 32.59M612.335 57.0325 612.335 24.4425M619.464 48.885 619.464 32.59M619.464 40.7375 640.852 40.7375" stroke="#5E5E5E" stroke-width="2.03687" fill="#FFFFFF" transform="matrix(1 0 0 1.00008 -142.581 10.1852)"/><path d="M1.30134 0 1.30134-2.09345 4.7527-2.09345 4.7527-11.6554 1.41449-9.56199 1.41449-11.712 4.92244-14.0318 7.52511-14.0318 7.52511-2.09345 10.7502-2.09345 10.7502 0 1.30134 0" fill="#333333" transform="matrix(1 0 0 1.00008 441.691 90.037)"/><path d="M10.2975-10.2975C10.2975-5.8843 5.54482-5.43166 4.01717-2.31977L10.5238-2.31977 10.5238 0 0.678957 0C0.339479-5.71456 6.28036-5.65798 7.46853-10.1844 7.52511-11.4291 6.78958-11.9383 5.6014-11.9949 4.30006-11.9949 3.79085-11.2028 3.62111-10.0712L0.848697-10.2409C1.1316-12.787 2.65925-14.2015 5.6014-14.2015 8.48697-14.2015 10.2975-12.9568 10.2975-10.2975" fill="#333333" transform="matrix(1 0 0 1.00008 453.007 90.037)"/><path d="M8.31723 0 5.3185 0 0.11316-14.0318 3.22505-14.0318 6.84615-2.37635C7.80801-6.4501 9.22251-10.1278 10.4107-14.0318L13.466-14.0318" fill="#333333" transform="matrix(1 0 0 1.00008 469.978 90.037)"/><path d="M474.556 402.283 469.209 402.283C467.529 402.283 466.154 400.908 466.154 399.227L466.154 362.574C466.154 360.883 464.789 359.519 463.099 359.519L427.576 359.519" stroke="#5E5E5E" stroke-width="2.03687" fill="none" transform="matrix(1 0 0 1.00008 -142.581 10.1852)"/><path d="M475.575 403.301 474.531 403.301 474.531 401.264 475.575 401.264" fill="#5E5E5E" transform="matrix(1 0 0 1.00008 -142.581 10.1852)"/><path d="M419.291 359.519 426.557 357.156 426.557 361.876Z" stroke="#5E5E5E" stroke-width="2.03687" fill="#5E5E5E" transform="matrix(1 0 0 1.00008 -142.581 10.1852)"/><path d="M474.556 432.836 459.025 432.836C457.345 432.836 455.97 431.461 455.97 429.781L455.97 376.669C455.97 374.978 454.605 373.614 452.914 373.614L427.576 373.614" stroke="#5E5E5E" stroke-width="2.03687" fill="none" transform="matrix(1 0 0 1.00008 -142.581 10.1852)"/><path d="M475.575 433.854 474.531 433.854 474.531 431.817 475.575 431.817" fill="#5E5E5E" transform="matrix(1 0 0 1.00008 -142.581 10.1852)"/><path d="M419.291 373.614 426.557 371.251 426.557 375.971Z" stroke="#5E5E5E" stroke-width="2.03687" fill="#5E5E5E" transform="matrix(1 0 0 1.00008 -142.581 10.1852)"/><path d="M474.556 463.389 448.841 463.389C447.16 463.389 445.785 462.014 445.785 460.334L445.785 389.104C445.785 387.424 444.421 386.049 442.73 386.049L427.576 386.049" stroke="#5E5E5E" stroke-width="2.03687" fill="none" transform="matrix(1 0 0 1.00008 -142.581 10.1852)"/><path d="M475.575 464.407 474.531 464.407 474.531 462.371 475.575 462.371" fill="#5E5E5E" transform="matrix(1 0 0 1.00008 -142.581 10.1852)"/><path d="M419.291 386.049 426.557 383.691 426.557 388.407Z" stroke="#5E5E5E" stroke-width="2.03687" fill="#5E5E5E" transform="matrix(1 0 0 1.00008 -142.581 10.1852)"/><path d="M474.556 493.942 438.656 493.942C436.976 493.942 435.601 492.567 435.601 490.887L435.601 401.824C435.601 400.134 434.236 398.769 432.546 398.769L427.576 398.769" stroke="#5E5E5E" stroke-width="2.03687" fill="none" transform="matrix(1 0 0 1.00008 -142.581 10.1852)"/><path d="M475.575 494.961 474.531 494.961 474.531 492.924 475.575 492.924" fill="#5E5E5E" transform="matrix(1 0 0 1.00008 -142.581 10.1852)"/><path d="M419.291 398.769 426.557 396.406 426.557 401.127Z" stroke="#5E5E5E" stroke-width="2.03687" fill="#5E5E5E" transform="matrix(1 0 0 1.00008 -142.581 10.1852)"/><path d="M417.014 333.029 506.301 333.029" stroke="#5E5E5E" stroke-width="2.03687" fill="none" transform="matrix(1 0 0 1.00008 -142.581 10.1852)"/><path d="M417.04 334.047 415.996 334.047 415.996 332.011 417.04 332.011" fill="#5E5E5E" transform="matrix(1 0 0 1.00008 -142.581 10.1852)"/><path d="M514.581 333.029 507.314 335.392 507.314 330.666Z" stroke="#5E5E5E" stroke-width="2.03687" fill="#5E5E5E" transform="matrix(1 0 0 1.00008 -142.581 10.1852)"/><path d="M417.014 263.775 506.296 263.775" stroke="#5E5E5E" stroke-width="2.03687" fill="none" transform="matrix(1 0 0 1.00008 -142.581 10.1852)"/><path d="M417.04 264.794 415.996 264.794 415.996 262.757 417.04 262.757" fill="#5E5E5E" transform="matrix(1 0 0 1.00008 -142.581 10.1852)"/><path d="M514.581 263.775 507.314 266.138 507.314 261.412Z" stroke="#5E5E5E" stroke-width="2.03687" fill="#5E5E5E" transform="matrix(1 0 0 1.00008 -142.581 10.1852)"/><path d="M417.014 219.662 445.057 219.662C446.737 219.662 448.112 218.287 448.112 216.606L448.112 192.536C448.112 190.84 449.487 189.48 451.168 189.48L506.698 189.48" stroke="#5E5E5E" stroke-width="2.03687" fill="none" transform="matrix(1 0 0 1.00008 -142.581 10.1852)"/><path d="M417.04 220.68 415.996 220.68 415.996 218.643 417.04 218.643" fill="#5E5E5E" transform="matrix(1 0 0 1.00008 -142.581 10.1852)"/><path d="M514.983 189.48 507.716 191.833 507.716 187.112Z" stroke="#5E5E5E" stroke-width="2.03687" fill="#5E5E5E" transform="matrix(1 0 0 1.00008 -142.581 10.1852)"/><path d="M417.014 198.779 439.965 198.779C441.645 198.779 443.02 197.404 443.02 195.723L443.02 129.087C443.02 127.407 444.395 126.032 446.076 126.032L506.296 126.032" stroke="#5E5E5E" stroke-width="2.03687" fill="none" transform="matrix(1 0 0 1.00008 -142.581 10.1852)"/><path d="M417.04 199.797 415.996 199.797 415.996 197.76 417.04 197.76" fill="#5E5E5E" transform="matrix(1 0 0 1.00008 -142.581 10.1852)"/><path d="M514.581 126.032 507.314 128.394 507.314 123.669Z" stroke="#5E5E5E" stroke-width="2.03687" fill="#5E5E5E" transform="matrix(1 0 0 1.00008 -142.581 10.1852)"/><path d="M568.543 40.7375 478.192 40.7375C476.501 40.7375 475.137 42.1124 475.137 43.7928L475.137 318.033C475.137 319.723 476.501 321.088 478.192 321.088L508.567 321.088" stroke="#5E5E5E" stroke-width="2.03687" fill="none" transform="matrix(1 0 0 1.00008 -142.581 10.1852)"/><path d="M569.561 41.7559 568.517 41.7559 568.517 39.7191 569.561 39.7191" fill="#5E5E5E" transform="matrix(1 0 0 1.00008 -142.581 10.1852)"/><path d="M516.857 321.088 509.585 323.451 509.585 318.725Z" stroke="#5E5E5E" stroke-width="2.03687" fill="#5E5E5E" transform="matrix(1 0 0 1.00008 -142.581 10.1852)"/><path d="M651.036 128.323 691.773 128.323M685.663 134.434 657.147 134.434M663.257 140.544 679.552 140.544M667.331 146.655 675.479 146.655M673.442 152.766 669.368 152.766M671.405 122.212 671.405 128.323Z" stroke="#5E5E5E" stroke-width="1.52766" fill="#FFFFFF" transform="matrix(1 0 0 1.00008 -142.581 10.1852)"/><path d="M641.87 40.7375 668.349 40.7375C670.03 40.7375 671.405 42.1124 671.405 43.7928L671.405 121.194" stroke="#5E5E5E" stroke-width="2.03687" fill="none" transform="matrix(1 0 0 1.00008 -142.581 10.1852)"/><path d="M641.896 41.7559 640.852 41.7559 640.852 39.7191 641.896 39.7191M672.423 123.74 672.169 123.74 672.169 122.212 670.641 122.212 670.641 123.74 670.386 123.74 670.386 121.169 672.423 121.169" fill="#5E5E5E" transform="matrix(1 0 0 1.00008 -142.581 10.1852)"/><path d="M591.712 333.029 627.994 333.029C629.674 333.029 631.049 331.654 631.049 329.974L631.049 95.0202C631.049 93.3296 632.424 91.9649 634.104 91.9649L670.386 91.9649" stroke="#5E5E5E" stroke-width="2.03687" fill="none" transform="matrix(1 0 0 1.00008 -142.581 10.1852)"/><path d="M591.738 334.047 590.658 334.047 590.694 333.029 590.658 332.011 591.738 332.011" fill="#5E5E5E" transform="matrix(1 0 0 1.00008 -142.581 10.1852)"/><path d="M670.361 91.9649 671.405 91.9649M591.712 126.032 630.031 126.032" stroke="#5E5E5E" stroke-width="2.03687" fill="none" transform="matrix(1 0 0 1.00008 -142.581 10.1852)"/><path d="M591.738 127.05 590.658 127.05 590.694 126.032 590.658 125.013 591.738 125.013" fill="#5E5E5E" transform="matrix(1 0 0 1.00008 -142.581 10.1852)"/><path d="M630.005 126.032 631.049 126.032M591.625 266.169 630.031 266.169" stroke="#5E5E5E" stroke-width="2.03687" fill="none" transform="matrix(1 0 0 1.00008 -142.581 10.1852)"/><path d="M591.651 267.187 590.515 267.187 590.602 266.413 590.643 265.15 591.651 265.15" fill="#5E5E5E" transform="matrix(1 0 0 1.00008 -142.581 10.1852)"/><path d="M630.005 266.169 631.049 266.169M591.442 190.448 630.031 190.448" stroke="#5E5E5E" stroke-width="2.03687" fill="none" transform="matrix(1 0 0 1.00008 -142.581 10.1852)"/><path d="M591.468 191.466 590.536 191.466 590.357 189.872 590.281 189.429 591.463 189.429" fill="#5E5E5E" transform="matrix(1 0 0 1.00008 -142.581 10.1852)"/><path d="M630.005 190.448 631.049 190.448" stroke="#5E5E5E" stroke-width="2.03687" fill="none" transform="matrix(1 0 0 1.00008 -142.581 10.1852)"/><path d="M277.524 64.1615C277.524 62.4811 278.899 61.1062 280.579 61.1062L366.128 61.1062C367.809 61.1062 369.184 62.4811 369.184 64.1615L369.184 119.157C369.184 120.838 367.809 122.212 366.128 122.212L280.579 122.212C278.899 122.212 277.524 120.838 277.524 119.157Z" stroke="#5E5E5E" stroke-width="1.52766" fill="#FFFFFF" transform="matrix(1 0 0 1.00008 -142.581 10.1852)"/><path d="M2.10603-3.92916C2.10603-2.26319 2.76613-1.19446 4.40066-1.16303 5.56369-1.1316 6.09805-1.85456 6.44382-2.64039L7.85831-2.10603C7.32395-0.785831 6.25522 0.125733 4.40066 0.125733 1.82313 0.125733 0.628665-1.3202 0.471499-3.92916 0.251466-7.38681 3.89772-8.83274 6.63242-7.29251 7.19821-6.97818 7.54398-6.38095 7.76401-5.72085L6.31808-5.34365C6.06662-6.12948 5.37509-6.63242 4.36922-6.63242 2.73469-6.63242 2.13746-5.56369 2.10603-3.92916" fill="#333333" transform="matrix(1 0 0 1.00008 154.133 96.9008)"/><path d="M3.45766-6.09805C5.46939-6.09805 6.47525-4.96645 6.47525-2.98616 6.47525-0.974431 5.37509 0.125733 3.42622 0.125733 1.5088 0.125733 0.440066-1.00586 0.440066-2.98616 0.440066-4.93502 1.5088-6.09805 3.45766-6.09805ZM3.42622-0.942998C4.52639-0.942998 4.84072-1.82313 4.84072-2.98616 4.84072-4.24349 4.52639-5.02932 3.48909-5.02932 2.42036-5.02932 2.07459-4.21206 2.07459-2.98616 2.07459-1.85456 2.38893-0.942998 3.42622-0.942998" fill="#333333" transform="matrix(1 0 0 1.00008 162.274 96.9008)"/><path d="M6.91532-4.93502C5.24935-4.65212 6.03518-1.7917 5.84658 0L4.30636 0 4.30636-3.36336C4.33779-4.21206 4.14919-4.90359 3.39479-4.93502 1.72883-4.62069 2.54609-1.7917 2.35749 0L0.785831 0 0.754398-5.97232 2.23176-5.97232C2.29463-5.59512 2.20033-5.09219 2.32606-4.77785 2.64039-6.44382 5.50082-6.53812 5.72085-4.77785 6.12948-5.46939 6.47525-6.12948 7.57541-6.09805 10.1529-6.06662 9.17851-2.45179 9.36711 0L7.82688 0 7.82688-3.36336C7.79545-4.14919 7.66971-4.87215 6.91532-4.93502" fill="#333333" transform="matrix(1 0 0 1.00008 169.158 96.9008)"/><path d="M4.24349-6.09805C5.90945-6.09805 6.44382-4.71499 6.44382-3.01759 6.44382-1.25733 5.84658 0.0628665 4.14919 0.125733 3.17476 0.157166 2.73469-0.408632 2.29463-0.942998 2.38893 0.0942997 2.35749 1.2259 2.35749 2.35749L0.785831 2.35749 0.754398-5.97232 2.26319-5.97232C2.32606-5.65799 2.26319-5.24935 2.35749-4.99789 2.70326-5.75229 3.26906-6.09805 4.24349-6.09805ZM3.58339-0.942998C4.62069-0.942998 4.80929-1.91743 4.84072-3.01759 4.84072-4.21206 4.55782-5.02932 3.58339-5.02932 1.82313-5.02932 1.85456-0.942998 3.58339-0.942998" fill="#333333" transform="matrix(1 0 0 1.00008 179.217 96.9008)"/><path d="M2.67183 0.125733C-0.0628665 0.157166 0.848698-3.42622 0.691532-5.97232L2.26319-5.97232C2.48323-4.18062 1.54023-1.25733 3.30049-1.0373 5.18649-1.19446 4.40066-4.08632 4.55782-5.97232L6.12948-5.97232 6.16092 0 4.68355 0C4.62069-0.377199 4.71499-0.880131 4.58925-1.19446 4.21206-0.408632 3.70912 0.125733 2.67183 0.125733" fill="#333333" transform="matrix(1 0 0 1.00008 186.1 96.9008)"/><path d="M3.61482-0.0942997C2.48323 0.345766 0.880131 0.125733 0.880131-1.4145L0.880131-4.93502 0.125733-4.93502 0.125733-5.97232 0.974431-5.97232 1.44593-7.38681 2.42036-7.38681 2.42036-5.97232 3.55196-5.97232 3.55196-4.93502 2.42036-4.93502 2.42036-1.82313C2.38893-1.10016 2.92329-0.848698 3.61482-1.0373L3.61482-0.0942997" fill="#333333" transform="matrix(1 0 0 1.00008 192.984 96.9008)"/><path d="M5.81515-1.5088C5.40652-0.565799 4.65212 0.157166 3.23762 0.125733 1.35163 0.0628665 0.440066-1.0373 0.440066-3.01759 0.440066-4.99789 1.38306-6.09805 3.26906-6.09805 5.21792-6.09805 5.87802-4.68355 5.90945-2.70326L2.07459-2.70326C2.07459-1.72883 2.32606-0.974431 3.30049-0.942998 3.86629-0.942998 4.24349-1.16303 4.36922-1.63453ZM4.40066-3.67769C4.55782-5.12362 2.60896-5.65799 2.20033-4.33779 2.13746-4.14919 2.07459-3.92916 2.07459-3.67769L4.40066-3.67769" fill="#333333" transform="matrix(1 0 0 1.00008 196.725 96.9008)"/><path d="M4.24349-4.71499C3.01759-5.09219 2.35749-4.30636 2.35749-2.92329L2.35749 0 0.785831 0 0.754398-5.97232 2.23176-5.97232C2.29463-5.56369 2.20033-5.06075 2.32606-4.71499 2.51466-5.59512 3.17476-6.38095 4.24349-6.00375L4.24349-4.71499" fill="#333333" transform="matrix(1 0 0 1.00008 203.012 96.9008)"/><path d="M2.10603-2.92329C2.10603-0.597232 2.79756 0.942998 3.77199 2.35749L2.20033 2.35749C1.25733 0.942998 0.565799-0.565799 0.565799-2.92329 0.565799-5.28079 1.25733-6.78958 2.20033-8.20408L3.77199-8.20408C2.76613-6.82102 2.10603-5.24935 2.10603-2.92329" fill="#333333" transform="matrix(1 0 0 1.00008 142.047 110.481)"/><path d="M7.22965 0 7.29251-6.41238 5.28079 0 4.11776 0 2.13746-6.41238 2.20033 0 0.754398 0 0.754398-7.79545 2.95473-7.79545 4.71499-1.98029 6.50668-7.79545 8.67558-7.79545 8.67558 0 7.22965 0" fill="#333333" transform="matrix(1 0 0 1.00008 145.788 110.481)"/><path d="M6.25522 0 5.56369-1.98029 2.60896-1.98029 1.91743 0 0.282899 0 3.11189-7.79545 5.02932-7.79545 7.85831 0 6.25522 0ZM5.21792-3.20619 4.08632-6.60098C3.77199-5.40652 3.33192-4.33779 2.95473-3.20619L5.21792-3.20619" fill="#333333" transform="matrix(1 0 0 1.00008 155.186 110.481)"/><path d="M4.27492-6.53812 4.27492 0 2.64039 0 2.64039-6.53812 0.125733-6.53812 0.125733-7.79545 6.78958-7.79545 6.78958-6.53812 4.27492-6.53812" fill="#333333" transform="matrix(1 0 0 1.00008 162.479 110.481)"/><path d="M0.754398 0 0.754398-7.79545 2.38893-7.79545 2.38893-1.25733 6.56955-1.25733 6.56955 0 0.754398 0" fill="#333333" transform="matrix(1 0 0 1.00008 169.363 110.481)"/><path d="M6.25522 0 5.56369-1.98029 2.60896-1.98029 1.91743 0 0.282899 0 3.11189-7.79545 5.02932-7.79545 7.85831 0 6.25522 0ZM5.21792-3.20619 4.08632-6.60098C3.77199-5.40652 3.33192-4.33779 2.95473-3.20619L5.21792-3.20619" fill="#333333" transform="matrix(1 0 0 1.00008 176.246 110.481)"/><path d="M5.72085-4.08632C6.88388-3.96059 7.66971-3.39479 7.66971-2.23176 7.66971 0.722965 3.64626-0.125733 0.754398 0L0.754398-7.79545C3.39479-7.63828 7.13535-8.51841 7.19821-5.81515 7.19821-4.84072 6.60098-4.24349 5.72085-4.08632ZM2.38893-4.65212C3.64626-4.74642 5.56369-4.24349 5.56369-5.59512 5.56369-6.97818 3.67769-6.47525 2.38893-6.56955L2.38893-4.65212ZM2.38893-1.19446C3.89772-1.28876 6.03518-0.754398 6.03518-2.35749 6.03518-3.86629 3.86629-3.36336 2.38893-3.45766L2.38893-1.19446" fill="#333333" transform="matrix(1 0 0 1.00008 184.388 110.481)"/><path d="M2.10603-3.92916C2.10603-2.23176 2.82899-1.16303 4.46352-1.16303 5.34365-1.16303 6.12948-1.38306 6.60098-1.82313L6.60098-2.89186 4.71499-2.89186 4.71499-4.11776 8.10978-4.11776 8.10978-1.25733C7.29251-0.440066 6.03518 0.125733 4.40066 0.125733 1.82313 0.125733 0.628665-1.3202 0.471499-3.92916 0.251466-7.41825 3.96059-8.80131 6.75815-7.35538 7.35538-7.04105 7.66971-6.53812 7.92118-5.87802L6.44382-5.40652C6.09805-6.12948 5.53225-6.63242 4.46352-6.63242 2.79756-6.60098 2.10603-5.59512 2.10603-3.92916" fill="#333333" transform="matrix(1 0 0 1.00008 195.672 110.481)"/><path d="M7.48111-2.98616C7.48111-0.817264 6.09805 0.125733 3.99202 0.125733 1.98029 0.125733 0.691532-0.785831 0.691532-2.92329L0.691532-7.79545 2.29463-7.79545 2.29463-3.04903C2.26319-1.85456 2.89186-1.19446 4.02346-1.16303 6.85245-1.1316 5.56369-5.24935 5.84658-7.79545L7.48111-7.79545 7.48111-2.98616" fill="#333333" transform="matrix(1 0 0 1.00008 204.473 110.481)"/><path d="M0.754398 0 0.754398-7.79545 2.38893-7.79545 2.38893 0 0.754398 0" fill="#333333" transform="matrix(1 0 0 1.00008 212.614 110.481)"/><path d="M3.20619-2.92329C3.20619-0.597232 2.51466 0.942998 1.57166 2.35749L0 2.35749C0.942998 0.911564 1.6974-0.565799 1.66596-2.92329 1.66596-5.24935 0.974431-6.78958 0-8.20408L1.57166-8.20408C2.51466-6.78958 3.20619-5.24935 3.20619-2.92329" fill="#333333" transform="matrix(1 0 0 1.00008 215.758 110.481)"/><path d="M321.195 124.372C322.386 123.18 324.321 123.18 325.513 124.372L340.397 139.256C341.594 140.453 341.192 141.42 339.506 141.42L336.013 141.42C334.322 141.42 332.958 142.785 332.958 144.476L332.958 150.871C332.958 152.562 334.322 153.927 336.013 153.927L339.506 153.927C341.187 153.927 341.594 154.894 340.397 156.091L325.513 170.975C324.321 172.167 322.386 172.167 321.195 170.975L306.31 156.091C305.114 154.894 305.516 153.927 307.201 153.927L310.695 153.927C312.385 153.927 313.75 152.562 313.75 150.871L313.75 144.476C313.75 142.785 312.385 141.42 310.695 141.42L307.201 141.42C305.521 141.42 305.114 140.453 306.31 139.256Z" stroke="#5E5E5E" stroke-width="1.52766" fill="#FFFFFF" transform="matrix(1 0 0 1.00008 -142.581 10.1852)"/><path d="M7.29251-2.92329C7.26108-0.880131 6.03518 0.125733 4.02346 0.125733 2.10603 0.125733 0.880131-0.880131 0.880131-2.82899L0.880131-7.79545 1.91743-7.79545C2.16889-4.99789 0.880131-0.754398 4.02346-0.754398 7.22965-0.754398 6.03518-4.93502 6.25522-7.79545L7.29251-7.79545 7.29251-2.92329" fill="#333333" transform="matrix(1 0 0 1.00008 174.706 195.952)"/><path d="M5.81515-5.94088C5.65799-7.44968 1.94886-7.63828 1.91743-5.87802 2.35749-3.52052 6.88388-5.43795 7.04105-2.13746 7.13535 0.314333 3.23762 0.597232 1.54023-0.408632 1.00586-0.722965 0.660098-1.2259 0.502932-1.85456L1.54023-2.07459C1.6974-0.314333 5.97232-0.0942997 5.97232-2.10603 5.97232-4.55782 1.10016-2.54609 0.880131-5.81515 0.722965-8.39268 5.43795-8.45554 6.50668-6.88388 6.66385-6.66385 6.75815-6.38095 6.85245-6.09805" fill="#333333" transform="matrix(1 0 0 1.00008 182.847 195.952)"/><path d="M5.02932-4.11776C6.12948-3.96059 6.94675-3.39479 6.94675-2.20033 6.94675 0.534365 3.61482-0.0628665 0.942998 0L0.942998-7.79545C3.33192-7.70115 6.50668-8.32981 6.50668-5.90945 6.50668-4.87215 5.90945-4.33779 5.02932-4.11776ZM1.98029-4.46352C3.55196-4.49496 5.43795-4.18062 5.43795-5.78372 5.43795-7.26108 3.45766-6.91532 1.98029-6.94675L1.98029-4.46352ZM1.98029-0.848698C3.70912-0.911564 5.87802-0.408632 5.87802-2.26319 5.87802-4.02346 3.67769-3.58339 1.98029-3.64626L1.98029-0.848698" fill="#333333" transform="matrix(1 0 0 1.00008 190.391 195.952)"/><path d="M5.81515-5.94088C5.65799-7.44968 1.94886-7.63828 1.91743-5.87802 2.35749-3.52052 6.88388-5.43795 7.04105-2.13746 7.13535 0.314333 3.23762 0.597232 1.54023-0.408632 1.00586-0.722965 0.660098-1.2259 0.502932-1.85456L1.54023-2.07459C1.6974-0.314333 5.97232-0.0942997 5.97232-2.10603 5.97232-4.55782 1.10016-2.54609 0.880131-5.81515 0.722965-8.39268 5.43795-8.45554 6.50668-6.88388 6.66385-6.66385 6.75815-6.38095 6.85245-6.09805" fill="#333333" transform="matrix(1 0 0 1.00008 201.078 195.952)"/><path d="M3.14333-6.09805C5.12362-6.09805 5.84658-4.77785 5.78372-2.76613L1.54023-2.76613C1.54023-1.5088 1.98029-0.660098 3.20619-0.628665 4.02346-0.597232 4.55782-1.00586 4.74642-1.54023L5.62655-1.28876C5.28079-0.408632 4.46352 0.125733 3.20619 0.125733 1.38306 0.125733 0.440066-1.0373 0.471499-3.01759 0.502932-4.93502 1.28876-6.09805 3.14333-6.09805ZM4.77785-3.55196C4.96645-5.43795 2.38893-5.97232 1.72883-4.43209 1.63453-4.21206 1.54023-3.89772 1.54023-3.55196L4.77785-3.55196" fill="#333333" transform="matrix(1 0 0 1.00008 208.622 195.952)"/><path d="M3.58339-5.12362C1.1316-5.62655 1.91743-2.26319 1.7917 0L0.785831 0 0.754398-5.97232 1.6974-5.97232C1.72883-5.59512 1.66596-5.06075 1.76026-4.74642 1.94886-5.59512 2.48323-6.28665 3.58339-6.03518L3.58339-5.12362" fill="#333333" transform="matrix(1 0 0 1.00008 214.909 195.952)"/><path d="M0.754398-7.26108 0.754398-8.20408 1.76026-8.20408 1.76026-7.26108 0.754398-7.26108ZM0.754398 0 0.754398-5.97232 1.76026-5.97232 1.76026 0 0.754398 0" fill="#333333" transform="matrix(1 0 0 1.00008 218.649 195.952)"/><path d="M4.43209-1.1316C3.96059-0.471499 3.45766 0.157166 2.29463 0.125733 1.16303 0.0942997 0.471499-0.534365 0.471499-1.66596 0.440066-3.67769 2.45179-3.64626 4.40066-3.64626 4.49496-4.74642 4.11776-5.34365 3.11189-5.34365 2.35749-5.31222 1.82313-5.12362 1.7917-4.36922L0.754398-4.46352C0.911564-5.62655 1.7917-6.09805 3.14333-6.09805 4.55782-6.09805 5.40652-5.46939 5.40652-4.08632L5.40652-1.5088C5.37509-0.880131 5.62655-0.502932 6.28665-0.660098L6.28665-0.0314333C5.31222 0.251466 4.36922-0.0942997 4.43209-1.1316ZM1.5088-1.66596C1.5088-1.0373 1.886-0.628665 2.51466-0.628665 3.80342-0.722965 4.49496-1.54023 4.40066-2.95473 3.04903-2.89186 1.5088-3.11189 1.5088-1.66596" fill="#333333" transform="matrix(1 0 0 1.00008 221.133 195.952)"/><path d="M0.754398 0 0.754398-8.20408 1.76026-8.20408 1.76026 0 0.754398 0" fill="#333333" transform="matrix(1 0 0 1.00008 227.419 195.952)"/><path d="M3.01759-5.31222C1.76026-5.31222 1.5088-4.27492 1.5088-3.01759 1.5088-1.76026 1.7917-0.660098 3.01759-0.660098 3.77199-0.660098 4.30636-1.10016 4.36922-1.85456L5.37509-1.7917C5.18649-0.628665 4.40066 0.125733 3.04903 0.125733 1.19446 0.125733 0.660098-1.16303 0.471499-2.98616 0.157166-5.90945 3.64626-7.10391 5.09219-4.99789 5.21792-4.77785 5.24935-4.55782 5.31222-4.30636L4.30636-4.21206C4.18062-4.87215 3.80342-5.31222 3.01759-5.31222" fill="#333333" transform="matrix(1 0 0 1.00008 164.333 209.532)"/><path d="M3.14333-6.09805C5.09219-6.12948 5.81515-4.93502 5.81515-2.98616 5.84658-1.00586 4.96645 0.125733 3.11189 0.125733 1.25733 0.125733 0.502932-1.10016 0.471499-2.98616 0.471499-5.06075 1.35163-6.09805 3.14333-6.09805ZM3.11189-0.628665C4.49496-0.597232 4.77785-1.6031 4.77785-2.98616 4.77785-4.33779 4.52639-5.34365 3.17476-5.34365 1.82313-5.34365 1.5088-4.33779 1.5088-2.98616 1.5088-1.63453 1.82313-0.660098 3.11189-0.628665" fill="#333333" transform="matrix(1 0 0 1.00008 169.991 209.532)"/><path d="M6.60098-5.31222C4.49496-5.21792 5.40652-2.01173 5.21792 0L4.24349 0 4.24349-3.80342C4.24349-4.71499 4.08632-5.37509 3.14333-5.31222 1.06873-5.18649 1.94886-2.04316 1.76026 0L0.785831 0 0.754398-5.97232 1.6974-5.97232C1.72883-5.65799 1.66596-5.21792 1.76026-4.96645 2.07459-6.34952 4.87215-6.53812 5.12362-4.96645 5.46939-5.62655 5.97232-6.06662 6.94675-6.09805 9.61858-6.16092 8.42411-2.35749 8.67558 0L7.70115 0 7.70115-3.80342C7.70115-4.71499 7.54398-5.34365 6.60098-5.31222" fill="#333333" transform="matrix(1 0 0 1.00008 176.278 209.532)"/><path d="M6.60098-5.31222C4.49496-5.21792 5.40652-2.01173 5.21792 0L4.24349 0 4.24349-3.80342C4.24349-4.71499 4.08632-5.37509 3.14333-5.31222 1.06873-5.18649 1.94886-2.04316 1.76026 0L0.785831 0 0.754398-5.97232 1.6974-5.97232C1.72883-5.65799 1.66596-5.21792 1.76026-4.96645 2.07459-6.34952 4.87215-6.53812 5.12362-4.96645 5.46939-5.62655 5.97232-6.06662 6.94675-6.09805 9.61858-6.16092 8.42411-2.35749 8.67558 0L7.70115 0 7.70115-3.80342C7.70115-4.71499 7.54398-5.34365 6.60098-5.31222" fill="#333333" transform="matrix(1 0 0 1.00008 185.676 209.532)"/><path d="M2.64039 0.125733C-0.157166 0.251466 0.942998-3.52052 0.722965-5.97232L1.72883-5.97232 1.72883-2.20033C1.72883-1.2259 1.94886-0.628665 2.95473-0.660098 5.21792-0.722965 4.36922-3.83486 4.52639-5.97232L5.50082-5.97232 5.53225 0 4.58925 0C4.55782-0.314333 4.62069-0.785831 4.52639-1.0373 4.18062-0.345766 3.64626 0.0942997 2.64039 0.125733" fill="#333333" transform="matrix(1 0 0 1.00008 195.075 209.532)"/><path d="M3.67769-6.09805C6.47525-6.22378 5.34365-2.45179 5.56369 0L4.55782 0 4.55782-3.80342C4.55782-4.77785 4.30636-5.34365 3.33192-5.31222 1.06873-5.24935 1.94886-2.10603 1.7917 0L0.785831 0 0.754398-5.97232 1.6974-5.97232C1.72883-5.65799 1.66596-5.21792 1.76026-4.96645 2.10603-5.65799 2.67183-6.06662 3.67769-6.09805" fill="#333333" transform="matrix(1 0 0 1.00008 201.361 209.532)"/><path d="M0.754398-7.26108 0.754398-8.20408 1.76026-8.20408 1.76026-7.26108 0.754398-7.26108ZM0.754398 0 0.754398-5.97232 1.76026-5.97232 1.76026 0 0.754398 0" fill="#333333" transform="matrix(1 0 0 1.00008 207.648 209.532)"/><path d="M3.01759-5.31222C1.76026-5.31222 1.5088-4.27492 1.5088-3.01759 1.5088-1.76026 1.7917-0.660098 3.01759-0.660098 3.77199-0.660098 4.30636-1.10016 4.36922-1.85456L5.37509-1.7917C5.18649-0.628665 4.40066 0.125733 3.04903 0.125733 1.19446 0.125733 0.660098-1.16303 0.471499-2.98616 0.157166-5.90945 3.64626-7.10391 5.09219-4.99789 5.21792-4.77785 5.24935-4.55782 5.31222-4.30636L4.30636-4.21206C4.18062-4.87215 3.80342-5.31222 3.01759-5.31222" fill="#333333" transform="matrix(1 0 0 1.00008 210.131 209.532)"/><path d="M4.43209-1.1316C3.96059-0.471499 3.45766 0.157166 2.29463 0.125733 1.16303 0.0942997 0.471499-0.534365 0.471499-1.66596 0.440066-3.67769 2.45179-3.64626 4.40066-3.64626 4.49496-4.74642 4.11776-5.34365 3.11189-5.34365 2.35749-5.31222 1.82313-5.12362 1.7917-4.36922L0.754398-4.46352C0.911564-5.62655 1.7917-6.09805 3.14333-6.09805 4.55782-6.09805 5.40652-5.46939 5.40652-4.08632L5.40652-1.5088C5.37509-0.880131 5.62655-0.502932 6.28665-0.660098L6.28665-0.0314333C5.31222 0.251466 4.36922-0.0942997 4.43209-1.1316ZM1.5088-1.66596C1.5088-1.0373 1.886-0.628665 2.51466-0.628665 3.80342-0.722965 4.49496-1.54023 4.40066-2.95473 3.04903-2.89186 1.5088-3.11189 1.5088-1.66596" fill="#333333" transform="matrix(1 0 0 1.00008 215.789 209.532)"/><path d="M1.85456-1.47736C1.7917-0.722965 2.42036-0.565799 3.04903-0.785831L3.04903-0.0314333C2.01173 0.282899 0.848698 0.125733 0.848698-1.25733L0.848698-5.24935 0.157166-5.24935 0.157166-5.97232 0.911564-5.97232 1.19446-7.32395 1.85456-7.32395 1.85456-5.97232 2.95473-5.97232 2.95473-5.24935 1.85456-5.24935 1.85456-1.47736" fill="#333333" transform="matrix(1 0 0 1.00008 222.076 209.532)"/><path d="M0.754398-7.26108 0.754398-8.20408 1.76026-8.20408 1.76026-7.26108 0.754398-7.26108ZM0.754398 0 0.754398-5.97232 1.76026-5.97232 1.76026 0 0.754398 0" fill="#333333" transform="matrix(1 0 0 1.00008 225.219 209.532)"/><path d="M3.14333-6.09805C5.09219-6.12948 5.81515-4.93502 5.81515-2.98616 5.84658-1.00586 4.96645 0.125733 3.11189 0.125733 1.25733 0.125733 0.502932-1.10016 0.471499-2.98616 0.471499-5.06075 1.35163-6.09805 3.14333-6.09805ZM3.11189-0.628665C4.49496-0.597232 4.77785-1.6031 4.77785-2.98616 4.77785-4.33779 4.52639-5.34365 3.17476-5.34365 1.82313-5.34365 1.5088-4.33779 1.5088-2.98616 1.5088-1.63453 1.82313-0.660098 3.11189-0.628665" fill="#333333" transform="matrix(1 0 0 1.00008 227.702 209.532)"/><path d="M3.67769-6.09805C6.47525-6.22378 5.34365-2.45179 5.56369 0L4.55782 0 4.55782-3.80342C4.55782-4.77785 4.30636-5.34365 3.33192-5.31222 1.06873-5.24935 1.94886-2.10603 1.7917 0L0.785831 0 0.754398-5.97232 1.6974-5.97232C1.72883-5.65799 1.66596-5.21792 1.76026-4.96645 2.10603-5.65799 2.67183-6.06662 3.67769-6.09805" fill="#333333" transform="matrix(1 0 0 1.00008 233.989 209.532)"/><path d="M3.61482-6.09805C5.34365-6.06662 5.81515-4.80929 5.81515-3.01759 5.81515-1.2259 5.31222 0.0628665 3.61482 0.125733 2.64039 0.125733 2.07459-0.282899 1.72883-0.942998L1.76026 2.35749 0.754398 2.35749 0.722965-5.97232 1.6974-5.97232 1.76026-5.02932C2.07459-5.68942 2.64039-6.09805 3.61482-6.09805ZM3.36336-0.628665C4.62069-0.628665 4.77785-1.6974 4.77785-2.98616 4.77785-4.27492 4.58925-5.28079 3.36336-5.31222 2.04316-5.31222 1.76026-4.30636 1.76026-2.92329 1.76026-1.57166 2.07459-0.628665 3.36336-0.628665" fill="#333333" transform="matrix(1 0 0 1.00008 192.576 223.112)"/><path d="M3.14333-6.09805C5.09219-6.12948 5.81515-4.93502 5.81515-2.98616 5.84658-1.00586 4.96645 0.125733 3.11189 0.125733 1.25733 0.125733 0.502932-1.10016 0.471499-2.98616 0.471499-5.06075 1.35163-6.09805 3.14333-6.09805ZM3.11189-0.628665C4.49496-0.597232 4.77785-1.6031 4.77785-2.98616 4.77785-4.33779 4.52639-5.34365 3.17476-5.34365 1.82313-5.34365 1.5088-4.33779 1.5088-2.98616 1.5088-1.63453 1.82313-0.660098 3.11189-0.628665" fill="#333333" transform="matrix(1 0 0 1.00008 198.862 223.112)"/><path d="M3.58339-5.12362C1.1316-5.62655 1.91743-2.26319 1.7917 0L0.785831 0 0.754398-5.97232 1.6974-5.97232C1.72883-5.59512 1.66596-5.06075 1.76026-4.74642 1.94886-5.59512 2.48323-6.28665 3.58339-6.03518L3.58339-5.12362" fill="#333333" transform="matrix(1 0 0 1.00008 205.149 223.112)"/><path d="M1.85456-1.47736C1.7917-0.722965 2.42036-0.565799 3.04903-0.785831L3.04903-0.0314333C2.01173 0.282899 0.848698 0.125733 0.848698-1.25733L0.848698-5.24935 0.157166-5.24935 0.157166-5.97232 0.911564-5.97232 1.19446-7.32395 1.85456-7.32395 1.85456-5.97232 2.95473-5.97232 2.95473-5.24935 1.85456-5.24935 1.85456-1.47736" fill="#333333" transform="matrix(1 0 0 1.00008 208.89 223.112)"/><path d="M458.297 86.5672C458.297 100.622 446.89 112.028 432.836 112.028 418.781 112.028 407.375 100.622 407.375 86.5672 407.375 72.5127 418.781 61.1062 432.836 61.1062 446.89 61.1062 458.297 72.5127 458.297 86.5672Z" stroke="#5E5E5E" stroke-width="1.52766" fill="#FFFFFF" transform="matrix(1 0 0 1.00008 -142.581 10.1852)"/><path d="M6.86502-4.90359C8.26066-4.75271 9.20366-4.07375 9.20366-2.67811 9.20366 0.867558 4.37551-0.15088 0.905278 0L0.905278-9.35454C4.07375-9.16594 8.56242-10.2221 8.63786-6.97818 8.63786-5.80887 7.92118-5.09219 6.86502-4.90359ZM2.86671-5.58255C4.37551-5.69571 6.67642-5.09219 6.67642-6.71414 6.67642-8.37382 4.41323-7.7703 2.86671-7.88346L2.86671-5.58255ZM2.86671-1.43336C4.67727-1.54652 7.24222-0.905278 7.24222-2.82899 7.24222-4.63955 4.63955-4.03603 2.86671-4.14919L2.86671-1.43336" fill="#333333" transform="matrix(1 0 0 1.00008 268.037 91.327)"/><path d="M3.20619 0.15088C-0.0754398 0.1886 1.01844-4.11147 0.829838-7.16678L2.71583-7.16678C2.97987-5.01675 1.84828-1.5088 3.96059-1.24476 6.22378-1.43336 5.28079-4.90359 5.46939-7.16678L7.35538-7.16678 7.3931 0 5.62027 0C5.54483-0.452639 5.65799-1.05616 5.50711-1.43336 5.05447-0.490359 4.45095 0.15088 3.20619 0.15088" fill="#333333" transform="matrix(1 0 0 1.00008 277.807 91.327)"/><path d="M0.452639 0 0.452639-1.3202 4.03603-5.84659 0.716678-5.84659 0.716678-7.16678 6.07291-7.16678 6.07291-5.84659 2.52723-1.35792 6.41238-1.35792 6.41238 0 0.452639 0" fill="#333333" transform="matrix(1 0 0 1.00008 286.068 91.327)"/><path d="M0.452639 0 0.452639-1.3202 4.03603-5.84659 0.716678-5.84659 0.716678-7.16678 6.07291-7.16678 6.07291-5.84659 2.52723-1.35792 6.41238-1.35792 6.41238 0 0.452639 0" fill="#333333" transform="matrix(1 0 0 1.00008 292.857 91.327)"/><path d="M6.97818-1.81056C6.48782-0.678958 5.58255 0.1886 3.88515 0.15088 1.62196 0.0754398 0.528079-1.24476 0.528079-3.62111 0.528079-5.99747 1.65968-7.31766 3.92287-7.31766 6.26151-7.31766 7.05362-5.62027 7.09134-3.24391L2.48951-3.24391C2.48951-2.07459 2.79127-1.16932 3.96059-1.1316 4.63955-1.1316 5.09219-1.39564 5.24307-1.96144ZM5.28079-4.41323C5.46939-6.14834 3.13075-6.78958 2.64039-5.20535 2.56495-4.97903 2.48951-4.71499 2.48951-4.41323L5.28079-4.41323" fill="#333333" transform="matrix(1 0 0 1.00008 299.647 91.327)"/><path d="M5.09219-5.65799C3.62111-6.11063 2.82899-5.16763 2.82899-3.50795L2.82899 0 0.942998 0 0.905278-7.16678 2.67811-7.16678C2.75355-6.67642 2.64039-6.07291 2.79127-5.65799 3.01759-6.71414 3.80971-7.65714 5.09219-7.2045L5.09219-5.65799" fill="#333333" transform="matrix(1 0 0 1.00008 307.191 91.327)"/><path d="M7.50626 0 6.67642-2.37635 3.13075-2.37635 2.30091 0 0.339479 0 3.73427-9.35454 6.03519-9.35454 9.42998 0 7.50626 0ZM6.26151-3.84743 4.90359-7.92118C4.52639-6.48782 3.99831-5.20535 3.54567-3.84743L6.26151-3.84743" fill="#333333" transform="matrix(1 0 0 1.00008 271.036 107.623)"/><path d="M0.942998 0 0.942998-9.8449 2.82899-9.8449 2.82899 0 0.942998 0" fill="#333333" transform="matrix(1 0 0 1.00008 280.806 107.623)"/><path d="M5.01675-1.28248C4.41323-0.565799 3.88515 0.1886 2.60267 0.15088 1.20704 0.11316 0.414919-0.603519 0.414919-2.03688 0.377199-4.30007 2.48951-4.41323 4.79043-4.33779 4.82815-5.31851 4.67727-6.11063 3.73427-6.11063 3.05531-6.07291 2.75355-5.77115 2.67811-5.09219L0.716678-5.16763C0.980718-6.60098 2.07459-7.35538 3.80971-7.31766 5.54483-7.27994 6.60098-6.48782 6.6387-4.75271L6.67642-1.65968C6.6387-1.1316 7.12906-0.980718 7.61942-1.09388L7.61942-0.0754398C6.48782 0.226319 4.94131 0.11316 5.01675-1.28248ZM3.20619-1.16932C4.30007-1.16932 4.82815-2.07459 4.79043-3.31935 3.58339-3.31935 2.30091-3.43251 2.33863-2.18775 2.33863-1.54652 2.64039-1.16932 3.20619-1.16932" fill="#333333" transform="matrix(1 0 0 1.00008 284.578 107.623)"/><path d="M5.09219-5.65799C3.62111-6.11063 2.82899-5.16763 2.82899-3.50795L2.82899 0 0.942998 0 0.905278-7.16678 2.67811-7.16678C2.75355-6.67642 2.64039-6.07291 2.79127-5.65799 3.01759-6.71414 3.80971-7.65714 5.09219-7.2045L5.09219-5.65799" fill="#333333" transform="matrix(1 0 0 1.00008 292.122 107.623)"/><path d="M8.29838-5.92203C6.29922-5.58255 7.24222-2.15003 7.0159 0L5.16763 0 5.16763-4.03603C5.20535-5.05447 4.97903-5.88431 4.07375-5.92203 2.07459-5.54483 3.05531-2.15003 2.82899 0L0.942998 0 0.905278-7.16678 2.67811-7.16678C2.75355-6.71414 2.64039-6.11063 2.79127-5.73343 3.16847-7.73258 6.60098-7.84574 6.86502-5.73343 7.35538-6.56326 7.7703-7.35538 9.0905-7.31766 12.1835-7.27994 11.0142-2.94215 11.2405 0L9.39226 0 9.39226-4.03603C9.35454-4.97903 9.20366-5.84659 8.29838-5.92203" fill="#333333" transform="matrix(1 0 0 1.00008 297.402 107.623)"/><path d="M485.998 105.933 512.661 105.933" stroke="#5E5E5E" stroke-width="2.03687" fill="none" transform="matrix(1 0 0 1.00008 -142.581 10.1852)"/><path d="M486.339 105.933C486.339 110.159 482.917 113.571 478.701 113.571 474.475 113.571 471.063 110.159 471.063 105.933 471.063 101.716 474.475 98.2945 478.701 98.2945 482.917 98.2945 486.339 101.716 486.339 105.933ZM520.941 105.933 513.679 108.296 513.679 103.575Z" stroke="#5E5E5E" stroke-width="2.03687" fill="#5E5E5E" transform="matrix(1 0 0 1.00008 -142.581 10.1852)"/><path d="M485.998 179.561 509.932 179.561" stroke="#5E5E5E" stroke-width="2.03687" fill="none" transform="matrix(1 0 0 1.00008 -142.581 10.1852)"/><path d="M486.339 179.561C486.339 183.787 482.917 187.199 478.701 187.199 474.475 187.199 471.063 183.787 471.063 179.561 471.063 175.344 474.475 171.922 478.701 171.922 482.917 171.922 486.339 175.344 486.339 179.561ZM518.222 179.561 510.955 181.923 510.955 177.208Z" stroke="#5E5E5E" stroke-width="2.03687" fill="#5E5E5E" transform="matrix(1 0 0 1.00008 -142.581 10.1852)"/><path d="M485.998 242.414 513.236 242.414" stroke="#5E5E5E" stroke-width="2.03687" fill="none" transform="matrix(1 0 0 1.00008 -142.581 10.1852)"/><path d="M486.339 242.414C486.339 246.63 482.917 250.052 478.701 250.052 474.475 250.052 471.063 246.63 471.063 242.414 471.063 238.187 474.475 234.775 478.701 234.775 482.917 234.775 486.339 238.187 486.339 242.414ZM521.521 242.414 514.255 244.771 514.255 240.051Z" stroke="#5E5E5E" stroke-width="2.03687" fill="#5E5E5E" transform="matrix(1 0 0 1.00008 -142.581 10.1852)"/><path d="M485.998 321.179 508.531 321.179" stroke="#5E5E5E" stroke-width="2.03687" fill="none" transform="matrix(1 0 0 1.00008 -142.581 10.1852)"/><path d="M486.339 321.179C486.339 325.406 482.917 328.818 478.701 328.818 474.475 328.818 471.063 325.406 471.063 321.179 471.063 316.963 474.475 313.541 478.701 313.541 482.917 313.541 486.339 316.963 486.339 321.179ZM516.816 321.179 509.55 323.542 509.55 318.822Z" stroke="#5E5E5E" stroke-width="2.03687" fill="#5E5E5E" transform="matrix(1 0 0 1.00008 -142.581 10.1852)"/><path d="M417.014 184.317 429.781 184.317C431.461 184.317 432.836 182.942 432.836 181.261L432.836 124.372" stroke="#5E5E5E" stroke-width="2.03687" fill="none" transform="matrix(1 0 0 1.00008 -142.581 10.1852)"/><path d="M417.04 185.335 415.996 185.335 415.996 183.298 417.04 183.298" fill="#5E5E5E" transform="matrix(1 0 0 1.00008 -142.581 10.1852)"/><path d="M432.836 116.087 435.199 123.353 430.473 123.353Z" stroke="#5E5E5E" stroke-width="2.03687" fill="#5E5E5E" transform="matrix(1 0 0 1.00008 -142.581 10.1852)"/><path d="M6.90588-7.43711C6.86502-9.19422 3.06474-9.31681 2.94215-7.55969 3.67769-4.86272 9.1125-7.15106 9.23509-2.90129 9.35768 0.980717 2.49266 0.898991 0.898991-1.43021 0.653811-1.75712 0.490359-2.20661 0.408632-2.65611L2.45179-2.98301C2.57438-1.10331 7.02847-0.694675 7.19193-2.7787 6.49725-5.59826 1.06244-3.18733 0.898991-7.43711 0.735538-10.9922 7.15106-11.0331 8.58127-8.86732 8.78559-8.54041 8.90818-8.13178 8.98991-7.72315" fill="#333333" transform="matrix(1 0 0 1.00008 365.123 33.4131)"/><path d="M4.49495-7.92746C7.1102-7.92746 8.41782-6.45639 8.41782-3.88201 8.41782-1.26676 6.98761 0.163453 4.45409 0.163453 1.96143 0.163453 0.572085-1.30762 0.572085-3.88201 0.572085-6.41552 1.96143-7.92746 4.49495-7.92746ZM4.45409-1.2259C5.8843-1.2259 6.29294-2.37007 6.29294-3.88201 6.29294-5.51653 5.8843-6.53811 4.53582-6.53811 3.14647-6.53811 2.69697-5.47567 2.69697-3.88201 2.69697-2.41093 3.1056-1.2259 4.45409-1.2259" fill="#333333" transform="matrix(1 0 0 1.00008 374.93 33.4131)"/><path d="M3.47337 0.163453C-0.0817264 0.204316 1.10331-4.45409 0.898991-7.76401L2.94215-7.76401C3.22819-5.43481 2.0023-1.63453 4.29064-1.34849 6.74243-1.5528 5.72085-5.31222 5.92517-7.76401L7.96833-7.76401 8.00919 0 6.08862 0C6.00689-0.490359 6.12948-1.14417 5.96603-1.5528 5.47567-0.531222 4.82186 0.163453 3.47337 0.163453" fill="#333333" transform="matrix(1 0 0 1.00008 383.879 33.4131)"/><path d="M5.51653-7.92746C9.07163-7.96833 7.8866-3.30992 8.09092 0L6.04776 0C5.76171-2.3292 6.98761-6.41552 4.65841-6.41552 2.24748-6.41552 3.26906-2.45179 3.06474 0L1.02158 0 0.980717-7.76401 2.90129-7.76401C2.98301-7.27365 2.86042-6.61984 3.02388-6.21121 3.51424-7.27365 4.16805-7.8866 5.51653-7.92746" fill="#333333" transform="matrix(1 0 0 1.00008 392.828 33.4131)"/><path d="M3.59596-7.92746C4.86272-7.96833 5.47567-7.31452 5.96603-6.53811L5.92517-10.6653 7.96833-10.6653 8.00919 0 6.04776 0C5.96603-0.408632 6.04776-0.939854 5.92517-1.26676 5.47567-0.326906 4.74013 0.163453 3.43251 0.163453 1.30762 0.163453 0.653811-1.67539 0.612948-3.88201 0.612948-6.17035 1.38935-7.84574 3.59596-7.92746ZM4.29064-1.2259C5.63912-1.2259 5.92517-2.45179 5.96603-3.92287 6.00689-5.43481 5.59826-6.53811 4.29064-6.53811 2.98301-6.53811 2.73784-5.31222 2.69697-3.88201 2.69697-2.12489 3.22819-1.2259 4.29064-1.2259" fill="#333333" transform="matrix(1 0 0 1.00008 401.777 33.4131)"/><path d="M5.43481-1.38935C4.781-0.612948 4.20891 0.204316 2.81956 0.163453 1.30762 0.12259 0.449495-0.653811 0.449495-2.20661 0.408632-4.65841 2.69697-4.781 5.18963-4.69927 5.23049-5.76171 5.06704-6.61984 4.04546-6.61984 3.30992-6.57898 2.98301-6.25207 2.90129-5.51653L0.776401-5.59826C1.06244-7.15106 2.24748-7.96833 4.12718-7.92746 6.00689-7.8866 7.15106-7.02847 7.19193-5.14877L7.23279-1.79798C7.19193-1.2259 7.72315-1.06244 8.25437-1.18503L8.25437-0.0817264C7.02847 0.245179 5.35308 0.12259 5.43481-1.38935ZM3.47337-1.26676C4.65841-1.26676 5.23049-2.24748 5.18963-3.59596 3.88201-3.59596 2.49266-3.71855 2.53352-2.37007 2.53352-1.67539 2.86042-1.26676 3.47337-1.26676" fill="#333333" transform="matrix(1 0 0 1.00008 414.815 33.4131)"/><path d="M5.51653-7.92746C9.07163-7.96833 7.8866-3.30992 8.09092 0L6.04776 0C5.76171-2.3292 6.98761-6.41552 4.65841-6.41552 2.24748-6.41552 3.26906-2.45179 3.06474 0L1.02158 0 0.980717-7.76401 2.90129-7.76401C2.98301-7.27365 2.86042-6.61984 3.02388-6.21121 3.51424-7.27365 4.16805-7.8866 5.51653-7.92746" fill="#333333" transform="matrix(1 0 0 1.00008 422.987 33.4131)"/><path d="M3.59596-7.92746C4.86272-7.96833 5.47567-7.31452 5.96603-6.53811L5.92517-10.6653 7.96833-10.6653 8.00919 0 6.04776 0C5.96603-0.408632 6.04776-0.939854 5.92517-1.26676 5.47567-0.326906 4.74013 0.163453 3.43251 0.163453 1.30762 0.163453 0.653811-1.67539 0.612948-3.88201 0.612948-6.17035 1.38935-7.84574 3.59596-7.92746ZM4.29064-1.2259C5.63912-1.2259 5.92517-2.45179 5.96603-3.92287 6.00689-5.43481 5.59826-6.53811 4.29064-6.53811 2.98301-6.53811 2.73784-5.31222 2.69697-3.88201 2.69697-2.12489 3.22819-1.2259 4.29064-1.2259" fill="#333333" transform="matrix(1 0 0 1.00008 431.936 33.4131)"/><path d="M0.980717 0 0.980717-10.1341 3.1056-10.1341 3.1056-1.63453 8.54041-1.63453 8.54041 0 0.980717 0" fill="#333333" transform="matrix(1 0 0 1.00008 444.97 33.4131)"/><path d="M1.02158-9.15336 1.02158-10.6653 3.06474-10.6653 3.06474-9.15336 1.02158-9.15336ZM1.02158 0 1.02158-7.76401 3.06474-7.76401 3.06474 0 1.02158 0" fill="#333333" transform="matrix(1 0 0 1.00008 453.92 33.4131)"/><path d="M7.96833-0.245179C8.41782 3.35078 3.06474 4.08632 1.26676 1.87971 1.10331 1.63453 1.02158 1.34849 0.939854 1.02158L2.94215 0.776401C3.06474 1.43021 3.59596 1.75712 4.3315 1.79798 5.96603 1.79798 6.04776 0.286043 5.96603-1.43021 5.51653-0.531222 4.74013 0 3.47337 0 1.30762 0 0.612948-1.75712 0.612948-3.96373 0.612948-6.25207 1.34849-7.8866 3.59596-7.92746 4.82186-7.92746 5.47567-7.35538 6.00689-6.53811L6.08862-7.76401 8.00919-7.76401ZM4.29064-1.43021C5.59826-1.43021 5.96603-2.53352 5.96603-4.0046 5.96603-5.43481 5.59826-6.53811 4.3315-6.53811 3.02388-6.53811 2.73784-5.35308 2.69697-3.96373 2.69697-2.49266 3.06474-1.43021 4.29064-1.43021" fill="#333333" transform="matrix(1 0 0 1.00008 458.006 33.4131)"/><path d="M4.65841-6.41552C2.24748-6.41552 3.26906-2.45179 3.06474 0L1.02158 0 1.02158-10.6653 3.06474-10.6653 3.02388-6.21121C3.51424-7.27365 4.16805-7.8866 5.51653-7.92746 9.03077-7.96833 7.8866-3.30992 8.09092 0L6.04776 0C5.76171-2.3292 6.98761-6.41552 4.65841-6.41552" fill="#333333" transform="matrix(1 0 0 1.00008 466.955 33.4131)"/><path d="M4.69927-0.12259C3.22819 0.449495 1.14417 0.163453 1.14417-1.83884L1.14417-6.41552 0.163453-6.41552 0.163453-7.76401 1.26676-7.76401 1.87971-9.60286 3.14647-9.60286 3.14647-7.76401 4.61754-7.76401 4.61754-6.41552 3.14647-6.41552 3.14647-2.37007C3.1056-1.43021 3.80028-1.10331 4.69927-1.34849L4.69927-0.12259" fill="#333333" transform="matrix(1 0 0 1.00008 475.904 33.4131)"/><path d="M8.13178 0 7.23279-2.57438 3.39165-2.57438 2.49266 0 0.367769 0 4.04546-10.1341 6.53811-10.1341 10.2158 0 8.13178 0ZM6.78329-4.16805 5.31222-8.58127C4.90359-7.02847 4.3315-5.63912 3.84114-4.16805L6.78329-4.16805" fill="#333333" transform="matrix(1 0 0 1.00008 484.853 33.4131)"/><path d="M1.02158 0 1.02158-10.6653 3.06474-10.6653 3.06474 0 1.02158 0" fill="#333333" transform="matrix(1 0 0 1.00008 495.436 33.4131)"/><path d="M7.55969-1.96143C7.02847-0.735538 6.04776 0.204316 4.20891 0.163453 1.75712 0.0817264 0.572085-1.34849 0.572085-3.92287 0.572085-6.49725 1.79798-7.92746 4.24977-7.92746 6.78329-7.92746 7.64142-6.08862 7.68228-3.51424L2.69697-3.51424C2.69697-2.24748 3.02388-1.26676 4.29064-1.2259 5.02618-1.2259 5.51653-1.51194 5.67999-2.12489ZM5.72085-4.781C5.92517-6.6607 3.39165-7.35538 2.86042-5.63912 2.7787-5.39394 2.69697-5.1079 2.69697-4.781L5.72085-4.781" fill="#333333" transform="matrix(1 0 0 1.00008 499.522 33.4131)"/><path d="M5.51653-6.12948C3.92287-6.61984 3.06474-5.59826 3.06474-3.80028L3.06474 0 1.02158 0 0.980717-7.76401 2.90129-7.76401C2.98301-7.23279 2.86042-6.57898 3.02388-6.12948 3.26906-7.27365 4.12718-8.29523 5.51653-7.80487L5.51653-6.12948" fill="#333333" transform="matrix(1 0 0 1.00008 507.695 33.4131)"/><path d="M4.69927-0.12259C3.22819 0.449495 1.14417 0.163453 1.14417-1.83884L1.14417-6.41552 0.163453-6.41552 0.163453-7.76401 1.26676-7.76401 1.87971-9.60286 3.14647-9.60286 3.14647-7.76401 4.61754-7.76401 4.61754-6.41552 3.14647-6.41552 3.14647-2.37007C3.1056-1.43021 3.80028-1.10331 4.69927-1.34849L4.69927-0.12259" fill="#333333" transform="matrix(1 0 0 1.00008 513.416 33.4131)"/><path d="M5.59826-5.63912C5.63912-6.82416 2.73784-7.02847 2.69697-5.80258 3.30992-3.92287 7.51883-5.51653 7.55969-2.28834 7.60056 1.10331 0.858128 0.817264 0.531222-1.92057L2.28834-2.20661C2.45179-1.43021 3.1056-1.18503 4.08632-1.18503 5.43481-0.858128 6.41552-2.41093 5.06704-2.86042 3.30992-3.43251 0.898991-3.30992 0.817264-5.5574 0.735538-8.82645 7.1102-8.58127 7.39624-5.84344" fill="#333333" transform="matrix(1 0 0 1.00008 518.279 33.4131)"/><path d="M9.39854 0 9.48027-8.3361 6.86502 0 5.35308 0 2.7787-8.3361 2.86042 0 0.980717 0 0.980717-10.1341 3.84114-10.1341 6.12948-2.57438 8.45869-10.1341 11.2782-10.1341 11.2782 0 9.39854 0" fill="#333333" transform="matrix(1 0 0 1.00008 325.873 394.35)"/><path d="M4.49495-7.92746C7.1102-7.92746 8.41782-6.45639 8.41782-3.88201 8.41782-1.26676 6.98761 0.163453 4.45409 0.163453 1.96143 0.163453 0.572085-1.30762 0.572085-3.88201 0.572085-6.41552 1.96143-7.92746 4.49495-7.92746ZM4.45409-1.2259C5.8843-1.2259 6.29294-2.37007 6.29294-3.88201 6.29294-5.51653 5.8843-6.53811 4.53582-6.53811 3.14647-6.53811 2.69697-5.47567 2.69697-3.88201 2.69697-2.41093 3.1056-1.2259 4.45409-1.2259" fill="#333333" transform="matrix(1 0 0 1.00008 338.092 394.35)"/><path d="M4.69927-0.12259C3.22819 0.449495 1.14417 0.163453 1.14417-1.83884L1.14417-6.41552 0.163453-6.41552 0.163453-7.76401 1.26676-7.76401 1.87971-9.60286 3.14647-9.60286 3.14647-7.76401 4.61754-7.76401 4.61754-6.41552 3.14647-6.41552 3.14647-2.37007C3.1056-1.43021 3.80028-1.10331 4.69927-1.34849L4.69927-0.12259" fill="#333333" transform="matrix(1 0 0 1.00008 347.041 394.35)"/><path d="M1.02158-9.15336 1.02158-10.6653 3.06474-10.6653 3.06474-9.15336 1.02158-9.15336ZM1.02158 0 1.02158-7.76401 3.06474-7.76401 3.06474 0 1.02158 0" fill="#333333" transform="matrix(1 0 0 1.00008 351.903 394.35)"/><path d="M4.49495-7.92746C7.1102-7.92746 8.41782-6.45639 8.41782-3.88201 8.41782-1.26676 6.98761 0.163453 4.45409 0.163453 1.96143 0.163453 0.572085-1.30762 0.572085-3.88201 0.572085-6.41552 1.96143-7.92746 4.49495-7.92746ZM4.45409-1.2259C5.8843-1.2259 6.29294-2.37007 6.29294-3.88201 6.29294-5.51653 5.8843-6.53811 4.53582-6.53811 3.14647-6.53811 2.69697-5.47567 2.69697-3.88201 2.69697-2.41093 3.1056-1.2259 4.45409-1.2259" fill="#333333" transform="matrix(1 0 0 1.00008 355.99 394.35)"/><path d="M5.51653-7.92746C9.07163-7.96833 7.8866-3.30992 8.09092 0L6.04776 0C5.76171-2.3292 6.98761-6.41552 4.65841-6.41552 2.24748-6.41552 3.26906-2.45179 3.06474 0L1.02158 0 0.980717-7.76401 2.90129-7.76401C2.98301-7.27365 2.86042-6.61984 3.02388-6.21121 3.51424-7.27365 4.16805-7.8866 5.51653-7.92746" fill="#333333" transform="matrix(1 0 0 1.00008 364.939 394.35)"/><path d="M6.90588-7.43711C6.86502-9.19422 3.06474-9.31681 2.94215-7.55969 3.67769-4.86272 9.1125-7.15106 9.23509-2.90129 9.35768 0.980717 2.49266 0.898991 0.898991-1.43021 0.653811-1.75712 0.490359-2.20661 0.408632-2.65611L2.45179-2.98301C2.57438-1.10331 7.02847-0.694675 7.19193-2.7787 6.49725-5.59826 1.06244-3.18733 0.898991-7.43711 0.735538-10.9922 7.15106-11.0331 8.58127-8.86732 8.78559-8.54041 8.90818-8.13178 8.98991-7.72315" fill="#333333" transform="matrix(1 0 0 1.00008 377.973 394.35)"/><path d="M7.55969-1.96143C7.02847-0.735538 6.04776 0.204316 4.20891 0.163453 1.75712 0.0817264 0.572085-1.34849 0.572085-3.92287 0.572085-6.49725 1.79798-7.92746 4.24977-7.92746 6.78329-7.92746 7.64142-6.08862 7.68228-3.51424L2.69697-3.51424C2.69697-2.24748 3.02388-1.26676 4.29064-1.2259 5.02618-1.2259 5.51653-1.51194 5.67999-2.12489ZM5.72085-4.781C5.92517-6.6607 3.39165-7.35538 2.86042-5.63912 2.7787-5.39394 2.69697-5.1079 2.69697-4.781L5.72085-4.781" fill="#333333" transform="matrix(1 0 0 1.00008 387.78 394.35)"/><path d="M5.51653-7.92746C9.07163-7.96833 7.8866-3.30992 8.09092 0L6.04776 0C5.76171-2.3292 6.98761-6.41552 4.65841-6.41552 2.24748-6.41552 3.26906-2.45179 3.06474 0L1.02158 0 0.980717-7.76401 2.90129-7.76401C2.98301-7.27365 2.86042-6.61984 3.02388-6.21121 3.51424-7.27365 4.16805-7.8866 5.51653-7.92746" fill="#333333" transform="matrix(1 0 0 1.00008 395.952 394.35)"/><path d="M5.59826-5.63912C5.63912-6.82416 2.73784-7.02847 2.69697-5.80258 3.30992-3.92287 7.51883-5.51653 7.55969-2.28834 7.60056 1.10331 0.858128 0.817264 0.531222-1.92057L2.28834-2.20661C2.45179-1.43021 3.1056-1.18503 4.08632-1.18503 5.43481-0.858128 6.41552-2.41093 5.06704-2.86042 3.30992-3.43251 0.898991-3.30992 0.817264-5.5574 0.735538-8.82645 7.1102-8.58127 7.39624-5.84344" fill="#333333" transform="matrix(1 0 0 1.00008 404.901 394.35)"/><path d="M4.49495-7.92746C7.1102-7.92746 8.41782-6.45639 8.41782-3.88201 8.41782-1.26676 6.98761 0.163453 4.45409 0.163453 1.96143 0.163453 0.572085-1.30762 0.572085-3.88201 0.572085-6.41552 1.96143-7.92746 4.49495-7.92746ZM4.45409-1.2259C5.8843-1.2259 6.29294-2.37007 6.29294-3.88201 6.29294-5.51653 5.8843-6.53811 4.53582-6.53811 3.14647-6.53811 2.69697-5.47567 2.69697-3.88201 2.69697-2.41093 3.1056-1.2259 4.45409-1.2259" fill="#333333" transform="matrix(1 0 0 1.00008 413.074 394.35)"/><path d="M5.51653-6.12948C3.92287-6.61984 3.06474-5.59826 3.06474-3.80028L3.06474 0 1.02158 0 0.980717-7.76401 2.90129-7.76401C2.98301-7.23279 2.86042-6.57898 3.02388-6.12948 3.26906-7.27365 4.12718-8.29523 5.51653-7.80487L5.51653-6.12948" fill="#333333" transform="matrix(1 0 0 1.00008 422.023 394.35)"/><path d="M5.59826-5.63912C5.63912-6.82416 2.73784-7.02847 2.69697-5.80258 3.30992-3.92287 7.51883-5.51653 7.55969-2.28834 7.60056 1.10331 0.858128 0.817264 0.531222-1.92057L2.28834-2.20661C2.45179-1.43021 3.1056-1.18503 4.08632-1.18503 5.43481-0.858128 6.41552-2.41093 5.06704-2.86042 3.30992-3.43251 0.898991-3.30992 0.817264-5.5574 0.735538-8.82645 7.1102-8.58127 7.39624-5.84344" fill="#333333" transform="matrix(1 0 0 1.00008 427.744 394.35)"/><path d="M2.73784-5.1079C2.73784-2.90129 3.67769-1.51194 5.80258-1.51194 6.94675-1.51194 7.96833-1.79798 8.58127-2.37007L8.58127-3.75942 6.12948-3.75942 6.12948-5.35308 10.5427-5.35308 10.5427-1.63453C9.48027-0.572085 7.84574 0.163453 5.72085 0.163453 2.37007 0.163453 0.817264-1.71626 0.612948-5.1079 0.326906-9.64372 5.14877-11.4417 8.78559-9.56199 9.56199-9.15336 9.97062-8.49955 10.2975-7.64142L8.37696-7.02847C7.92746-7.96833 7.19193-8.62214 5.80258-8.62214 3.63683-8.58127 2.73784-7.27365 2.73784-5.1079" fill="#333333" transform="matrix(1 0 0 1.00008 167.899 64.902)"/><path d="M9.72545-3.88201C9.72545-1.06244 7.92746 0.163453 5.18963 0.163453 2.57438 0.163453 0.898991-1.02158 0.898991-3.80028L0.898991-10.1341 2.98301-10.1341 2.98301-3.96373C2.94215-2.41093 3.75942-1.5528 5.23049-1.51194 8.90818-1.47108 7.23279-6.82416 7.60056-10.1341L9.72545-10.1341 9.72545-3.88201" fill="#333333" transform="matrix(1 0 0 1.00008 179.341 64.902)"/><path d="M0.980717 0 0.980717-10.1341 3.1056-10.1341 3.1056 0 0.980717 0" fill="#333333" transform="matrix(1 0 0 1.00008 189.924 64.902)"/><path d="M152.766 64.1615C152.766 62.4811 154.14 61.1062 155.821 61.1062L231.185 61.1062C232.866 61.1062 234.241 62.4811 234.241 64.1615L234.241 119.157C234.241 120.838 232.866 122.212 231.185 122.212L155.821 122.212C154.14 122.212 152.766 120.838 152.766 119.157Z" stroke="#5E5E5E" stroke-width="1.52766" fill="#FFFFFF" transform="matrix(1 0 0 1.00008 -142.581 10.1852)"/><path d="M9.72545-3.88201C9.72545-1.06244 7.92746 0.163453 5.18963 0.163453 2.57438 0.163453 0.898991-1.02158 0.898991-3.80028L0.898991-10.1341 2.98301-10.1341 2.98301-3.96373C2.94215-2.41093 3.75942-1.5528 5.23049-1.51194 8.90818-1.47108 7.23279-6.82416 7.60056-10.1341L9.72545-10.1341 9.72545-3.88201" fill="#333333" transform="matrix(1 0 0 1.00008 35.4345 96.1156)"/><path d="M6.90588-7.43711C6.86502-9.19422 3.06474-9.31681 2.94215-7.55969 3.67769-4.86272 9.1125-7.15106 9.23509-2.90129 9.35768 0.980717 2.49266 0.898991 0.898991-1.43021 0.653811-1.75712 0.490359-2.20661 0.408632-2.65611L2.45179-2.98301C2.57438-1.10331 7.02847-0.694675 7.19193-2.7787 6.49725-5.59826 1.06244-3.18733 0.898991-7.43711 0.735538-10.9922 7.15106-11.0331 8.58127-8.86732 8.78559-8.54041 8.90818-8.13178 8.98991-7.72315" fill="#333333" transform="matrix(1 0 0 1.00008 46.0181 96.1156)"/><path d="M7.43711-5.31222C8.94904-5.14877 9.97062-4.41323 9.97062-2.90129 9.97062 0.939854 4.74013-0.163453 0.980717 0L0.980717-10.1341C4.41323-9.92976 9.27595-11.0739 9.35768-7.55969 9.35768-6.29294 8.58127-5.51653 7.43711-5.31222ZM3.1056-6.04776C4.74013-6.17035 7.23279-5.51653 7.23279-7.27365 7.23279-9.07163 4.781-8.41782 3.1056-8.54041L3.1056-6.04776ZM3.1056-1.5528C5.06704-1.67539 7.84574-0.980717 7.84574-3.06474 7.84574-5.02618 5.02618-4.37236 3.1056-4.49495L3.1056-1.5528" fill="#333333" transform="matrix(1 0 0 1.00008 55.8252 96.1156)"/><path d="M11.2374 0 8.74473 0 6.94675-8.00919 5.14877 0 2.61525 0 0-10.1341 2.16575-10.1341 3.96373-2.0023 5.80258-10.1341 8.17264-10.1341 9.92976-2.0023 11.7277-10.1341 13.8526-10.1341" fill="#333333" transform="matrix(1 0 0 1.00008 20.8668 113.77)"/><path d="M7.55969-1.96143C7.02847-0.735538 6.04776 0.204316 4.20891 0.163453 1.75712 0.0817264 0.572085-1.34849 0.572085-3.92287 0.572085-6.49725 1.79798-7.92746 4.24977-7.92746 6.78329-7.92746 7.64142-6.08862 7.68228-3.51424L2.69697-3.51424C2.69697-2.24748 3.02388-1.26676 4.29064-1.2259 5.02618-1.2259 5.51653-1.51194 5.67999-2.12489ZM5.72085-4.781C5.92517-6.6607 3.39165-7.35538 2.86042-5.63912 2.7787-5.39394 2.69697-5.1079 2.69697-4.781L5.72085-4.781" fill="#333333" transform="matrix(1 0 0 1.00008 34.4334 113.77)"/><path d="M5.51653-7.92746C7.64142-7.92746 8.37696-6.17035 8.37696-3.92287 8.37696-1.63453 7.60056 0.12259 5.39394 0.163453 4.16805 0.204316 3.51424-0.449495 3.02388-1.26676L2.94215 0 0.980717 0 1.02158-10.6653 3.06474-10.6653 3.06474-6.41552C3.51424-7.35538 4.24977-7.92746 5.51653-7.92746ZM4.65841-1.2259C5.92517-1.2259 6.29294-2.3292 6.29294-3.92287 6.29294-5.43481 6.00689-6.49725 4.69927-6.49725 3.39165-6.49725 3.02388-5.35308 3.02388-3.84114 3.02388-2.37007 3.35078-1.2259 4.65841-1.2259" fill="#333333" transform="matrix(1 0 0 1.00008 42.606 113.77)"/><path d="M7.76401-2.57438C7.47797-0.858128 6.21121 0.163453 4.24977 0.163453 1.83884 0.163453 0.817264-1.38935 0.572085-3.84114 0.0817264-8.3361 6.86502-9.4394 7.68228-5.31222L5.67999-5.23049C5.59826-6.00689 5.06704-6.53811 4.24977-6.53811 3.02388-6.53811 2.81956-5.39394 2.69697-3.92287 2.45179-0.898991 5.35308-0.367769 5.72085-2.69697" fill="#333333" transform="matrix(1 0 0 1.00008 51.555 113.77)"/><path d="M5.43481-1.38935C4.781-0.612948 4.20891 0.204316 2.81956 0.163453 1.30762 0.12259 0.449495-0.653811 0.449495-2.20661 0.408632-4.65841 2.69697-4.781 5.18963-4.69927 5.23049-5.76171 5.06704-6.61984 4.04546-6.61984 3.30992-6.57898 2.98301-6.25207 2.90129-5.51653L0.776401-5.59826C1.06244-7.15106 2.24748-7.96833 4.12718-7.92746 6.00689-7.8866 7.15106-7.02847 7.19193-5.14877L7.23279-1.79798C7.19193-1.2259 7.72315-1.06244 8.25437-1.18503L8.25437-0.0817264C7.02847 0.245179 5.35308 0.12259 5.43481-1.38935ZM3.47337-1.26676C4.65841-1.26676 5.23049-2.24748 5.18963-3.59596 3.88201-3.59596 2.49266-3.71855 2.53352-2.37007 2.53352-1.67539 2.86042-1.26676 3.47337-1.26676" fill="#333333" transform="matrix(1 0 0 1.00008 59.7277 113.77)"/><path d="M8.98991-6.41552C6.82416-6.04776 7.84574-2.3292 7.60056 0L5.59826 0 5.59826-4.37236C5.63912-5.47567 5.39394-6.37466 4.41323-6.41552 2.24748-6.00689 3.30992-2.3292 3.06474 0L1.02158 0 0.980717-7.76401 2.90129-7.76401C2.98301-7.27365 2.86042-6.61984 3.02388-6.21121 3.43251-8.37696 7.15106-8.49955 7.43711-6.21121 7.96833-7.1102 8.41782-7.96833 9.84803-7.92746 13.1988-7.8866 11.9321-3.18733 12.1772 0L10.1749 0 10.1749-4.37236C10.1341-5.39394 9.97062-6.3338 8.98991-6.41552" fill="#333333" transform="matrix(1 0 0 1.00008 67.9003 113.77)"/><path d="M231.694 88.3494C231.694 86.669 233.069 85.2941 234.75 85.2941L263.011 85.2941C264.692 85.2941 266.067 83.9192 266.067 82.2388L266.067 81.9842C266.067 80.3038 266.983 79.9473 268.104 81.2L275.487 89.3882C276.608 90.6409 276.608 92.6778 275.487 93.9305L268.104 102.119C266.983 103.371 266.067 103.02 266.067 101.335L266.067 101.08C266.067 99.3995 264.692 98.0246 263.011 98.0246L234.75 98.0246C233.069 98.0246 231.694 96.6497 231.694 94.9693Z" stroke="#5E5E5E" stroke-width="1.52766" fill="#FFFFFF" transform="matrix(1 0 0 1.00008 -142.581 10.1852)"/></g></svg>