<svg width="605" height="146" xmlns="http://www.w3.org/2000/svg" xmlns:xlink="http://www.w3.org/1999/xlink" overflow="hidden"><defs><clipPath id="clip0"><rect x="0" y="0" width="605" height="146"/></clipPath></defs><g clip-path="url(#clip0)"><path d="M-598.334 0 619.527 0 619.527 438.047-598.334 438.047Z" fill="#FFFFFF" transform="matrix(1 0 0 1.3778 130.319 -55.2765)"/><path d="M162.999 103.4C162.999 102.307 163.893 101.413 164.986 101.413L219.714 101.413C220.807 101.413 221.701 102.307 221.701 103.4L221.701 115.569C221.701 116.662 220.807 117.556 219.714 117.556L164.983 117.556C163.89 117.556 162.996 116.662 162.996 115.569Z" stroke="#5E5E5E" stroke-width="0.993432" fill="#FFFFFF" transform="matrix(1 0 0 1.3778 130.319 -55.2765)"/><path d="M1.28778-4.49702 1.28778-2.61645 4.10864-2.61645 4.10864-2.0441 1.28778-2.0441 1.28778 0 0.61323 0 0.61323-5.06936 4.1904-5.06936 4.1904-4.49702 1.28778-4.49702" fill="#333333" transform="matrix(1 0 0 1.3778 302.39 98.0363)"/><path d="M1.71704 0.0817639C-0.102205 0.163528 0.61323-2.28939 0.470143-3.88379L1.12425-3.88379 1.12425-1.43087C1.12425-0.797198 1.26734-0.40882 1.92145-0.429261 3.3932-0.470143 2.8413-2.4938 2.9435-3.88379L3.57717-3.88379 3.59761 0 2.98438 0C2.96394-0.20441 3.00483-0.511025 2.9435-0.674553 2.71865-0.224851 2.37115 0.061323 1.71704 0.0817639" fill="#333333" transform="matrix(1 0 0 1.3778 306.866 98.0363)"/><path d="M0.183969 0 0.183969-0.490584 2.55512-3.3932 0.327056-3.3932 0.327056-3.88379 3.27056-3.88379 3.27056-3.3932 0.899403-0.490584 3.41364-0.490584 3.41364 0 0.183969 0" fill="#333333" transform="matrix(1 0 0 1.3778 310.954 98.0363)"/><path d="M0.183969 0 0.183969-0.490584 2.55512-3.3932 0.327056-3.3932 0.327056-3.88379 3.27056-3.88379 3.27056-3.3932 0.899403-0.490584 3.41364-0.490584 3.41364 0 0.183969 0" fill="#333333" transform="matrix(1 0 0 1.3778 314.634 98.0363)"/><path d="M0.490584-4.72187 0.490584-5.3351 1.1447-5.3351 1.1447-4.72187 0.490584-4.72187ZM0.490584 0 0.490584-3.88379 1.1447-3.88379 1.1447 0 0.490584 0" fill="#333333" transform="matrix(1 0 0 1.3778 318.313 98.0363)"/><path d="M2.06454-4.78319C1.43087-4.96716 1.20602-4.57878 1.28778-3.88379L2.06454-3.88379 2.06454-3.41364 1.28778-3.41364 1.28778 0 0.654112 0 0.654112-3.41364 0.102205-3.41364 0.102205-3.88379 0.654112-3.88379C0.511025-4.94672 1.00161-5.55995 2.06454-5.27377L2.06454-4.78319" fill="#333333" transform="matrix(1 0 0 1.3778 319.928 98.0363)"/><path d="M0.490584-4.72187 0.490584-5.3351 1.1447-5.3351 1.1447-4.72187 0.490584-4.72187ZM0.490584 0 0.490584-3.88379 1.1447-3.88379 1.1447 0 0.490584 0" fill="#333333" transform="matrix(1 0 0 1.3778 321.972 98.0363)"/><path d="M1.96233-3.45453C1.1447-3.45453 0.981167-2.77997 0.981167-1.96233 0.981167-1.1447 1.16514-0.429261 1.96233-0.429261 2.45292-0.429261 2.80042-0.715435 2.8413-1.20602L3.49541-1.16514C3.37276-0.40882 2.86174 0.0817639 1.98278 0.0817639 0.776757 0.0817639 0.429261-0.756316 0.306615-1.94189 0.102205-3.84291 2.37115-4.61966 3.31144-3.25012 3.3932-3.10703 3.41364-2.96394 3.45453-2.80042L2.80042-2.73909C2.71865-3.16835 2.47336-3.45453 1.96233-3.45453" fill="#333333" transform="matrix(1 0 0 1.3778 323.587 98.0363)"/><path d="M2.88218-0.735875C2.57556-0.306615 2.24851 0.102205 1.49219 0.0817639 0.756316 0.061323 0.306615-0.347497 0.306615-1.08337 0.286174-2.3916 1.5944-2.37115 2.86174-2.37115 2.92306-3.08659 2.67777-3.47497 2.02366-3.47497 1.53307-3.45453 1.18558-3.33188 1.16514-2.8413L0.490584-2.90262C0.592789-3.65894 1.16514-3.96555 2.0441-3.96555 2.96394-3.96555 3.51585-3.55673 3.51585-2.65733L3.51585-0.981167C3.49541-0.572348 3.65894-0.327056 4.0882-0.429261L4.0882-0.020441C3.45453 0.163528 2.8413-0.061323 2.88218-0.735875ZM0.981167-1.08337C0.981167-0.674553 1.22646-0.40882 1.63528-0.40882 2.47336-0.470143 2.92306-1.00161 2.86174-1.92145 1.98278-1.88057 0.981167-2.02366 0.981167-1.08337" fill="#333333" transform="matrix(1 0 0 1.3778 327.266 98.0363)"/><path d="M1.20602-0.960726C1.16514-0.470143 1.57396-0.367938 1.98278-0.511025L1.98278-0.020441C1.30822 0.183969 0.551907 0.0817639 0.551907-0.817639L0.551907-3.41364 0.102205-3.41364 0.102205-3.88379 0.592789-3.88379 0.776757-4.76275 1.20602-4.76275 1.20602-3.88379 1.92145-3.88379 1.92145-3.41364 1.20602-3.41364 1.20602-0.960726" fill="#333333" transform="matrix(1 0 0 1.3778 331.355 98.0363)"/><path d="M0.490584-4.72187 0.490584-5.3351 1.1447-5.3351 1.1447-4.72187 0.490584-4.72187ZM0.490584 0 0.490584-3.88379 1.1447-3.88379 1.1447 0 0.490584 0" fill="#333333" transform="matrix(1 0 0 1.3778 333.399 98.0363)"/><path d="M2.0441-3.96555C3.31144-3.98599 3.78158-3.20923 3.78158-1.94189 3.80202-0.654112 3.22968 0.0817639 2.02366 0.0817639 0.817639 0.0817639 0.327056-0.715435 0.306615-1.94189 0.306615-3.291 0.878962-3.96555 2.0441-3.96555ZM2.02366-0.40882C2.92306-0.388379 3.10703-1.04249 3.10703-1.94189 3.10703-2.82086 2.9435-3.47497 2.06454-3.47497 1.18558-3.47497 0.981167-2.82086 0.981167-1.94189 0.981167-1.06293 1.18558-0.429261 2.02366-0.40882" fill="#333333" transform="matrix(1 0 0 1.3778 335.014 98.0363)"/><path d="M2.3916-3.96555C4.21084-4.04732 3.47497-1.5944 3.61805 0L2.96394 0 2.96394-2.47336C2.96394-3.10703 2.80042-3.47497 2.16674-3.45453 0.694994-3.41364 1.26734-1.36955 1.16514 0L0.511025 0 0.490584-3.88379 1.10381-3.88379C1.12425-3.67938 1.08337-3.3932 1.1447-3.22968 1.36955-3.67938 1.73748-3.94511 2.3916-3.96555" fill="#333333" transform="matrix(1 0 0 1.3778 339.102 98.0363)"/><path d="M317.749 103.4C317.749 102.307 318.637 101.413 319.736 101.413L374.461 101.413C375.56 101.413 376.448 102.307 376.448 103.4L376.448 115.569C376.448 116.662 375.56 117.556 374.461 117.556L319.739 117.556C318.64 117.556 317.752 116.662 317.752 115.569Z" stroke="#5E5E5E" stroke-width="0.993432" fill="#FFFFFF" transform="matrix(1 0 0 1.3778 130.319 -55.2765)"/><path d="M0.61323-5.06936C3.02527-5.21245 5.02848-4.90584 4.96716-2.57556 4.90584-0.981167 4.0882 0 2.4938 0L0.61323 0 0.61323-5.06936ZM1.28778-0.551907C3.10703-0.388379 4.27217-0.878962 4.27217-2.57556 4.27217-4.27217 3.04571-4.6401 1.28778-4.51746L1.28778-0.551907" fill="#333333" transform="matrix(1 0 0 1.3778 453.664 98.0363)"/><path d="M2.0441-3.96555C3.33188-3.96555 3.80202-3.10703 3.76114-1.79881L1.00161-1.79881C1.00161-0.981167 1.28778-0.429261 2.08498-0.40882 2.61645-0.388379 2.96394-0.654112 3.08659-1.00161L3.65894-0.83808C3.43409-0.265733 2.90262 0.0817639 2.08498 0.0817639 0.899403 0.0817639 0.286174-0.674553 0.306615-1.96233 0.327056-3.20923 0.83808-3.96555 2.0441-3.96555ZM3.10703-2.30983C3.22968-3.53629 1.55351-3.88379 1.12425-2.88218 1.06293-2.73909 1.00161-2.53468 1.00161-2.30983L3.10703-2.30983" fill="#333333" transform="matrix(1 0 0 1.3778 458.958 98.0363)"/><path d="M2.06454-4.78319C1.43087-4.96716 1.20602-4.57878 1.28778-3.88379L2.06454-3.88379 2.06454-3.41364 1.28778-3.41364 1.28778 0 0.654112 0 0.654112-3.41364 0.102205-3.41364 0.102205-3.88379 0.654112-3.88379C0.511025-4.94672 1.00161-5.55995 2.06454-5.27377L2.06454-4.78319" fill="#333333" transform="matrix(1 0 0 1.3778 463.047 98.0363)"/><path d="M1.71704 0.0817639C-0.102205 0.163528 0.61323-2.28939 0.470143-3.88379L1.12425-3.88379 1.12425-1.43087C1.12425-0.797198 1.26734-0.40882 1.92145-0.429261 3.3932-0.470143 2.8413-2.4938 2.9435-3.88379L3.57717-3.88379 3.59761 0 2.98438 0C2.96394-0.20441 3.00483-0.511025 2.9435-0.674553 2.71865-0.224851 2.37115 0.061323 1.71704 0.0817639" fill="#333333" transform="matrix(1 0 0 1.3778 465.091 98.0363)"/><path d="M0.183969 0 0.183969-0.490584 2.55512-3.3932 0.327056-3.3932 0.327056-3.88379 3.27056-3.88379 3.27056-3.3932 0.899403-0.490584 3.41364-0.490584 3.41364 0 0.183969 0" fill="#333333" transform="matrix(1 0 0 1.3778 469.179 98.0363)"/><path d="M0.183969 0 0.183969-0.490584 2.55512-3.3932 0.327056-3.3932 0.327056-3.88379 3.27056-3.88379 3.27056-3.3932 0.899403-0.490584 3.41364-0.490584 3.41364 0 0.183969 0" fill="#333333" transform="matrix(1 0 0 1.3778 472.858 98.0363)"/><path d="M0.490584-4.72187 0.490584-5.3351 1.1447-5.3351 1.1447-4.72187 0.490584-4.72187ZM0.490584 0 0.490584-3.88379 1.1447-3.88379 1.1447 0 0.490584 0" fill="#333333" transform="matrix(1 0 0 1.3778 476.538 98.0363)"/><path d="M2.06454-4.78319C1.43087-4.96716 1.20602-4.57878 1.28778-3.88379L2.06454-3.88379 2.06454-3.41364 1.28778-3.41364 1.28778 0 0.654112 0 0.654112-3.41364 0.102205-3.41364 0.102205-3.88379 0.654112-3.88379C0.511025-4.94672 1.00161-5.55995 2.06454-5.27377L2.06454-4.78319" fill="#333333" transform="matrix(1 0 0 1.3778 478.153 98.0363)"/><path d="M0.490584-4.72187 0.490584-5.3351 1.1447-5.3351 1.1447-4.72187 0.490584-4.72187ZM0.490584 0 0.490584-3.88379 1.1447-3.88379 1.1447 0 0.490584 0" fill="#333333" transform="matrix(1 0 0 1.3778 480.197 98.0363)"/><path d="M1.96233-3.45453C1.1447-3.45453 0.981167-2.77997 0.981167-1.96233 0.981167-1.1447 1.16514-0.429261 1.96233-0.429261 2.45292-0.429261 2.80042-0.715435 2.8413-1.20602L3.49541-1.16514C3.37276-0.40882 2.86174 0.0817639 1.98278 0.0817639 0.776757 0.0817639 0.429261-0.756316 0.306615-1.94189 0.102205-3.84291 2.37115-4.61966 3.31144-3.25012 3.3932-3.10703 3.41364-2.96394 3.45453-2.80042L2.80042-2.73909C2.71865-3.16835 2.47336-3.45453 1.96233-3.45453" fill="#333333" transform="matrix(1 0 0 1.3778 481.811 98.0363)"/><path d="M2.88218-0.735875C2.57556-0.306615 2.24851 0.102205 1.49219 0.0817639 0.756316 0.061323 0.306615-0.347497 0.306615-1.08337 0.286174-2.3916 1.5944-2.37115 2.86174-2.37115 2.92306-3.08659 2.67777-3.47497 2.02366-3.47497 1.53307-3.45453 1.18558-3.33188 1.16514-2.8413L0.490584-2.90262C0.592789-3.65894 1.16514-3.96555 2.0441-3.96555 2.96394-3.96555 3.51585-3.55673 3.51585-2.65733L3.51585-0.981167C3.49541-0.572348 3.65894-0.327056 4.0882-0.429261L4.0882-0.020441C3.45453 0.163528 2.8413-0.061323 2.88218-0.735875ZM0.981167-1.08337C0.981167-0.674553 1.22646-0.40882 1.63528-0.40882 2.47336-0.470143 2.92306-1.00161 2.86174-1.92145 1.98278-1.88057 0.981167-2.02366 0.981167-1.08337" fill="#333333" transform="matrix(1 0 0 1.3778 485.491 98.0363)"/><path d="M1.20602-0.960726C1.16514-0.470143 1.57396-0.367938 1.98278-0.511025L1.98278-0.020441C1.30822 0.183969 0.551907 0.0817639 0.551907-0.817639L0.551907-3.41364 0.102205-3.41364 0.102205-3.88379 0.592789-3.88379 0.776757-4.76275 1.20602-4.76275 1.20602-3.88379 1.92145-3.88379 1.92145-3.41364 1.20602-3.41364 1.20602-0.960726" fill="#333333" transform="matrix(1 0 0 1.3778 489.579 98.0363)"/><path d="M0.490584-4.72187 0.490584-5.3351 1.1447-5.3351 1.1447-4.72187 0.490584-4.72187ZM0.490584 0 0.490584-3.88379 1.1447-3.88379 1.1447 0 0.490584 0" fill="#333333" transform="matrix(1 0 0 1.3778 491.623 98.0363)"/><path d="M2.0441-3.96555C3.31144-3.98599 3.78158-3.20923 3.78158-1.94189 3.80202-0.654112 3.22968 0.0817639 2.02366 0.0817639 0.817639 0.0817639 0.327056-0.715435 0.306615-1.94189 0.306615-3.291 0.878962-3.96555 2.0441-3.96555ZM2.02366-0.40882C2.92306-0.388379 3.10703-1.04249 3.10703-1.94189 3.10703-2.82086 2.9435-3.47497 2.06454-3.47497 1.18558-3.47497 0.981167-2.82086 0.981167-1.94189 0.981167-1.06293 1.18558-0.429261 2.02366-0.40882" fill="#333333" transform="matrix(1 0 0 1.3778 493.238 98.0363)"/><path d="M2.3916-3.96555C4.21084-4.04732 3.47497-1.5944 3.61805 0L2.96394 0 2.96394-2.47336C2.96394-3.10703 2.80042-3.47497 2.16674-3.45453 0.694994-3.41364 1.26734-1.36955 1.16514 0L0.511025 0 0.490584-3.88379 1.10381-3.88379C1.12425-3.67938 1.08337-3.3932 1.1447-3.22968 1.36955-3.67938 1.73748-3.94511 2.3916-3.96555" fill="#333333" transform="matrix(1 0 0 1.3778 497.326 98.0363)"/><path d="M243.043 98.0186C243.043 96.9258 243.931 96.0317 245.03 96.0317L294.42 96.0317C295.513 96.0317 296.407 96.9258 296.407 98.0186L296.407 123.285C296.407 124.378 295.513 125.272 294.42 125.272L245.027 125.272C243.927 125.272 243.04 124.378 243.04 123.285Z" stroke="#5E5E5E" stroke-width="0.993432" fill="#FFFFFF" transform="matrix(1 0 0 1.3778 130.319 -55.2765)"/><path d="M1.28778-4.49702 1.28778-2.61645 4.10864-2.61645 4.10864-2.0441 1.28778-2.0441 1.28778 0 0.61323 0 0.61323-5.06936 4.1904-5.06936 4.1904-4.49702 1.28778-4.49702" fill="#333333" transform="matrix(1 0 0 1.3778 390.382 90.6222)"/><path d="M1.71704 0.0817639C-0.102205 0.163528 0.61323-2.28939 0.470143-3.88379L1.12425-3.88379 1.12425-1.43087C1.12425-0.797198 1.26734-0.40882 1.92145-0.429261 3.3932-0.470143 2.8413-2.4938 2.9435-3.88379L3.57717-3.88379 3.59761 0 2.98438 0C2.96394-0.20441 3.00483-0.511025 2.9435-0.674553 2.71865-0.224851 2.37115 0.061323 1.71704 0.0817639" fill="#333333" transform="matrix(1 0 0 1.3778 394.859 90.6222)"/><path d="M0.183969 0 0.183969-0.490584 2.55512-3.3932 0.327056-3.3932 0.327056-3.88379 3.27056-3.88379 3.27056-3.3932 0.899403-0.490584 3.41364-0.490584 3.41364 0 0.183969 0" fill="#333333" transform="matrix(1 0 0 1.3778 398.947 90.6222)"/><path d="M0.183969 0 0.183969-0.490584 2.55512-3.3932 0.327056-3.3932 0.327056-3.88379 3.27056-3.88379 3.27056-3.3932 0.899403-0.490584 3.41364-0.490584 3.41364 0 0.183969 0" fill="#333333" transform="matrix(1 0 0 1.3778 402.626 90.6222)"/><path d="M3.65894-3.88379 1.90101 0.633671C1.61484 1.20602 1.1447 1.67616 0.245292 1.49219L0.245292 1.00161C1.04249 1.12425 1.32866 0.592789 1.55351-0.020441L0.020441-3.88379 0.715435-3.88379 1.88057-0.694994 2.98438-3.88379 3.65894-3.88379" fill="#333333" transform="matrix(1 0 0 1.3778 406.305 90.6222)"/><path d="M0.674553 0 0.674553-5.06936 1.36955-5.06936 1.36955 0 0.674553 0" fill="#333333" transform="matrix(1 0 0 1.3778 384.863 102.789)"/><path d="M2.3916-3.96555C4.21084-4.04732 3.47497-1.5944 3.61805 0L2.96394 0 2.96394-2.47336C2.96394-3.10703 2.80042-3.47497 2.16674-3.45453 0.694994-3.41364 1.26734-1.36955 1.16514 0L0.511025 0 0.490584-3.88379 1.10381-3.88379C1.12425-3.67938 1.08337-3.3932 1.1447-3.22968 1.36955-3.67938 1.73748-3.94511 2.3916-3.96555" fill="#333333" transform="matrix(1 0 0 1.3778 386.907 102.789)"/><path d="M2.06454-4.78319C1.43087-4.96716 1.20602-4.57878 1.28778-3.88379L2.06454-3.88379 2.06454-3.41364 1.28778-3.41364 1.28778 0 0.654112 0 0.654112-3.41364 0.102205-3.41364 0.102205-3.88379 0.654112-3.88379C0.511025-4.94672 1.00161-5.55995 2.06454-5.27377L2.06454-4.78319" fill="#333333" transform="matrix(1 0 0 1.3778 390.995 102.789)"/><path d="M2.0441-3.96555C3.33188-3.96555 3.80202-3.10703 3.76114-1.79881L1.00161-1.79881C1.00161-0.981167 1.28778-0.429261 2.08498-0.40882 2.61645-0.388379 2.96394-0.654112 3.08659-1.00161L3.65894-0.83808C3.43409-0.265733 2.90262 0.0817639 2.08498 0.0817639 0.899403 0.0817639 0.286174-0.674553 0.306615-1.96233 0.327056-3.20923 0.83808-3.96555 2.0441-3.96555ZM3.10703-2.30983C3.22968-3.53629 1.55351-3.88379 1.12425-2.88218 1.06293-2.73909 1.00161-2.53468 1.00161-2.30983L3.10703-2.30983" fill="#333333" transform="matrix(1 0 0 1.3778 393.04 102.789)"/><path d="M2.33027-3.33188C0.735875-3.65894 1.2469-1.47175 1.16514 0L0.511025 0 0.490584-3.88379 1.10381-3.88379C1.12425-3.6385 1.08337-3.291 1.1447-3.08659 1.26734-3.6385 1.61484-4.0882 2.33027-3.92467L2.33027-3.33188" fill="#333333" transform="matrix(1 0 0 1.3778 397.128 102.789)"/><path d="M2.0441-3.96555C3.33188-3.96555 3.80202-3.10703 3.76114-1.79881L1.00161-1.79881C1.00161-0.981167 1.28778-0.429261 2.08498-0.40882 2.61645-0.388379 2.96394-0.654112 3.08659-1.00161L3.65894-0.83808C3.43409-0.265733 2.90262 0.0817639 2.08498 0.0817639 0.899403 0.0817639 0.286174-0.674553 0.306615-1.96233 0.327056-3.20923 0.83808-3.96555 2.0441-3.96555ZM3.10703-2.30983C3.22968-3.53629 1.55351-3.88379 1.12425-2.88218 1.06293-2.73909 1.00161-2.53468 1.00161-2.30983L3.10703-2.30983" fill="#333333" transform="matrix(1 0 0 1.3778 399.56 102.789)"/><path d="M2.3916-3.96555C4.21084-4.04732 3.47497-1.5944 3.61805 0L2.96394 0 2.96394-2.47336C2.96394-3.10703 2.80042-3.47497 2.16674-3.45453 0.694994-3.41364 1.26734-1.36955 1.16514 0L0.511025 0 0.490584-3.88379 1.10381-3.88379C1.12425-3.67938 1.08337-3.3932 1.1447-3.22968 1.36955-3.67938 1.73748-3.94511 2.3916-3.96555" fill="#333333" transform="matrix(1 0 0 1.3778 403.648 102.789)"/><path d="M1.96233-3.45453C1.1447-3.45453 0.981167-2.77997 0.981167-1.96233 0.981167-1.1447 1.16514-0.429261 1.96233-0.429261 2.45292-0.429261 2.80042-0.715435 2.8413-1.20602L3.49541-1.16514C3.37276-0.40882 2.86174 0.0817639 1.98278 0.0817639 0.776757 0.0817639 0.429261-0.756316 0.306615-1.94189 0.102205-3.84291 2.37115-4.61966 3.31144-3.25012 3.3932-3.10703 3.41364-2.96394 3.45453-2.80042L2.80042-2.73909C2.71865-3.16835 2.47336-3.45453 1.96233-3.45453" fill="#333333" transform="matrix(1 0 0 1.3778 407.737 102.789)"/><path d="M2.0441-3.96555C3.33188-3.96555 3.80202-3.10703 3.76114-1.79881L1.00161-1.79881C1.00161-0.981167 1.28778-0.429261 2.08498-0.40882 2.61645-0.388379 2.96394-0.654112 3.08659-1.00161L3.65894-0.83808C3.43409-0.265733 2.90262 0.0817639 2.08498 0.0817639 0.899403 0.0817639 0.286174-0.674553 0.306615-1.96233 0.327056-3.20923 0.83808-3.96555 2.0441-3.96555ZM3.10703-2.30983C3.22968-3.53629 1.55351-3.88379 1.12425-2.88218 1.06293-2.73909 1.00161-2.53468 1.00161-2.30983L3.10703-2.30983" fill="#333333" transform="matrix(1 0 0 1.3778 411.416 102.789)"/><path d="M3.78158-3.86335C3.67938-4.84451 1.26734-4.96716 1.2469-3.82246 1.53307-2.28939 4.47658-3.53629 4.57878-1.38999 4.6401 0.20441 2.10542 0.388379 1.00161-0.265733 0.654112-0.470143 0.429261-0.797198 0.327056-1.20602L1.00161-1.34911C1.10381-0.20441 3.88379-0.061323 3.88379-1.36955 3.88379-2.96394 0.715435-1.65572 0.572348-3.78158 0.470143-5.45774 3.53629-5.49863 4.23128-4.47658 4.33349-4.33349 4.39481-4.14952 4.45613-3.96555" fill="#333333" transform="matrix(1 0 0 1.3778 387.929 114.955)"/><path d="M3.65894-3.88379 1.90101 0.633671C1.61484 1.20602 1.1447 1.67616 0.245292 1.49219L0.245292 1.00161C1.04249 1.12425 1.32866 0.592789 1.55351-0.020441L0.020441-3.88379 0.715435-3.88379 1.88057-0.694994 2.98438-3.88379 3.65894-3.88379" fill="#333333" transform="matrix(1 0 0 1.3778 392.835 114.955)"/><path d="M2.75953-2.92306C2.69821-3.61805 1.00161-3.69982 0.981167-2.92306 1.28778-1.83969 3.33188-2.67777 3.41364-1.08337 3.49541 0.511025 0.347497 0.429261 0.20441-0.919844L0.776757-1.02205C0.858521-0.286174 2.75953-0.102205 2.77997-1.02205 2.57556-2.16674 0.470143-1.32866 0.367938-2.86174 0.286174-4.02687 2.0441-4.14952 2.86174-3.72026 3.10703-3.57717 3.291-3.33188 3.35232-3.00483" fill="#333333" transform="matrix(1 0 0 1.3778 396.514 114.955)"/><path d="M1.20602-0.960726C1.16514-0.470143 1.57396-0.367938 1.98278-0.511025L1.98278-0.020441C1.30822 0.183969 0.551907 0.0817639 0.551907-0.817639L0.551907-3.41364 0.102205-3.41364 0.102205-3.88379 0.592789-3.88379 0.776757-4.76275 1.20602-4.76275 1.20602-3.88379 1.92145-3.88379 1.92145-3.41364 1.20602-3.41364 1.20602-0.960726" fill="#333333" transform="matrix(1 0 0 1.3778 400.194 114.955)"/><path d="M2.0441-3.96555C3.33188-3.96555 3.80202-3.10703 3.76114-1.79881L1.00161-1.79881C1.00161-0.981167 1.28778-0.429261 2.08498-0.40882 2.61645-0.388379 2.96394-0.654112 3.08659-1.00161L3.65894-0.83808C3.43409-0.265733 2.90262 0.0817639 2.08498 0.0817639 0.899403 0.0817639 0.286174-0.674553 0.306615-1.96233 0.327056-3.20923 0.83808-3.96555 2.0441-3.96555ZM3.10703-2.30983C3.22968-3.53629 1.55351-3.88379 1.12425-2.88218 1.06293-2.73909 1.00161-2.53468 1.00161-2.30983L3.10703-2.30983" fill="#333333" transform="matrix(1 0 0 1.3778 402.238 114.955)"/><path d="M4.29261-3.45453C2.92306-3.3932 3.51585-1.30822 3.3932 0L2.75953 0 2.75953-2.47336C2.75953-3.06615 2.65733-3.49541 2.0441-3.45453 0.694994-3.37276 1.26734-1.32866 1.1447 0L0.511025 0 0.490584-3.88379 1.10381-3.88379C1.12425-3.67938 1.08337-3.3932 1.1447-3.22968 1.34911-4.12908 3.16835-4.25173 3.33188-3.22968 3.55673-3.65894 3.88379-3.94511 4.51746-3.96555 6.25494-4.00643 5.47818-1.53307 5.64171 0L5.00804 0 5.00804-2.47336C5.00804-3.06615 4.90584-3.47497 4.29261-3.45453" fill="#333333" transform="matrix(1 0 0 1.3778 406.326 114.955)"/><path d="M222.529 109.486 232.37 109.486 232.37 109.479 236.417 109.479" stroke="#5E5E5E" stroke-width="0.662288" fill="none" transform="matrix(1 0 0 1.3778 130.319 -55.2765)"/><path d="M222.529 109.817 222.198 109.817 222.198 109.155 222.529 109.155" fill="#5E5E5E" transform="matrix(1 0 0 1.3778 130.319 -55.2765)"/><path d="M241.47 109.476 236.748 111.016 236.748 107.946Z" stroke="#5E5E5E" stroke-width="0.662288" fill="#5E5E5E" transform="matrix(1 0 0 1.3778 130.319 -55.2765)"/><path d="M297.235 110.652 311.126 110.652" stroke="#5E5E5E" stroke-width="0.662288" fill="none" transform="matrix(1 0 0 1.3778 130.319 -55.2765)"/><path d="M297.235 110.983 296.904 110.983 296.904 110.321 297.235 110.321" fill="#5E5E5E" transform="matrix(1 0 0 1.3778 130.319 -55.2765)"/><path d="M316.176 110.655 311.457 112.188 311.457 109.115Z" stroke="#5E5E5E" stroke-width="0.662288" fill="#5E5E5E" transform="matrix(1 0 0 1.3778 130.319 -55.2765)"/><path d="M221.701 71.8185C221.701 79.2461 209.747 85.2696 195.017 85.2696 180.281 85.2696 168.334 79.2427 168.334 71.8152 168.334 64.3876 180.281 58.3641 195.017 58.3641 209.753 58.3641 221.698 64.3909 221.698 71.8185Z" stroke="#5E5E5E" stroke-width="0.993432" fill="#FFFFFF" transform="matrix(1 0 0 1.3778 130.319 -55.2765)"/><path d="M3.96555 0 1.94189-2.45292 1.28778-1.94189 1.28778 0 0.61323 0 0.61323-5.06936 1.28778-5.06936 1.28778-2.53468 3.72026-5.06936 4.5379-5.06936 2.3916-2.86174 4.82407 0 3.96555 0" fill="#333333" transform="matrix(1 0 0 1.3778 307.141 39.6363)"/><path d="M2.3916-3.96555C4.21084-4.04732 3.47497-1.5944 3.61805 0L2.96394 0 2.96394-2.47336C2.96394-3.10703 2.80042-3.47497 2.16674-3.45453 0.694994-3.41364 1.26734-1.36955 1.16514 0L0.511025 0 0.490584-3.88379 1.10381-3.88379C1.12425-3.67938 1.08337-3.3932 1.1447-3.22968 1.36955-3.67938 1.73748-3.94511 2.3916-3.96555" fill="#333333" transform="matrix(1 0 0 1.3778 312.047 39.6363)"/><path d="M2.0441-3.96555C3.31144-3.98599 3.78158-3.20923 3.78158-1.94189 3.80202-0.654112 3.22968 0.0817639 2.02366 0.0817639 0.817639 0.0817639 0.327056-0.715435 0.306615-1.94189 0.306615-3.291 0.878962-3.96555 2.0441-3.96555ZM2.02366-0.40882C2.92306-0.388379 3.10703-1.04249 3.10703-1.94189 3.10703-2.82086 2.9435-3.47497 2.06454-3.47497 1.18558-3.47497 0.981167-2.82086 0.981167-1.94189 0.981167-1.06293 1.18558-0.429261 2.02366-0.40882" fill="#333333" transform="matrix(1 0 0 1.3778 316.135 39.6363)"/><path d="M4.21084 0 3.47497 0 2.65733-3.35232 1.81925 0 1.08337 0-0.020441-3.88379 0.633671-3.88379 1.43087-0.531466 2.30983-3.88379 3.00483-3.88379 3.84291-0.531466 4.70143-3.88379 5.3351-3.88379" fill="#333333" transform="matrix(1 0 0 1.3778 320.223 39.6363)"/><path d="M0.490584 0 0.490584-5.3351 1.1447-5.3351 1.1447 0 0.490584 0" fill="#333333" transform="matrix(1 0 0 1.3778 325.517 39.6363)"/><path d="M2.0441-3.96555C3.33188-3.96555 3.80202-3.10703 3.76114-1.79881L1.00161-1.79881C1.00161-0.981167 1.28778-0.429261 2.08498-0.40882 2.61645-0.388379 2.96394-0.654112 3.08659-1.00161L3.65894-0.83808C3.43409-0.265733 2.90262 0.0817639 2.08498 0.0817639 0.899403 0.0817639 0.286174-0.674553 0.306615-1.96233 0.327056-3.20923 0.83808-3.96555 2.0441-3.96555ZM3.10703-2.30983C3.22968-3.53629 1.55351-3.88379 1.12425-2.88218 1.06293-2.73909 1.00161-2.53468 1.00161-2.30983L3.10703-2.30983" fill="#333333" transform="matrix(1 0 0 1.3778 327.132 39.6363)"/><path d="M1.73748-3.96555C2.37115-3.96555 2.71865-3.69982 2.96394-3.291L2.9435-5.3351 3.59761-5.3351 3.61805 0 3.00483 0C2.96394-0.20441 3.00483-0.470143 2.9435-0.633671 2.73909-0.163528 2.37115 0.0817639 1.73748 0.0817639 0.654112 0.0817639 0.327056-0.715435 0.306615-1.92145 0.306615-3.27056 0.776757-3.96555 1.73748-3.96555ZM1.92145-3.47497C1.10381-3.47497 0.981167-2.77997 0.981167-1.94189 0.981167-1.12425 1.10381-0.429261 1.90101-0.429261 2.75953-0.429261 2.9435-1.08337 2.9435-1.98278 2.9435-2.8413 2.75953-3.49541 1.92145-3.47497" fill="#333333" transform="matrix(1 0 0 1.3778 331.22 39.6363)"/><path d="M3.61805-3.88379C3.41364-1.32866 4.45613 2.10542 1.36955 1.45131 0.899403 1.32866 0.592789 1.04249 0.470143 0.572348L1.12425 0.470143C1.43087 1.43087 3.16835 1.12425 2.9435-0.102205L2.9435-0.715435C2.71865-0.286174 2.35071 0.020441 1.6966 0.020441 0.592789 0.020441 0.306615-0.817639 0.306615-1.94189 0.306615-3.08659 0.633671-3.92467 1.75792-3.94511 2.35071-3.96555 2.73909-3.61805 2.96394-3.22968 2.98438-3.43409 2.96394-3.69982 3.00483-3.88379L3.61805-3.88379ZM1.92145-0.449702C2.65733-0.449702 2.9435-1.10381 2.9435-1.94189 2.9435-2.80042 2.65733-3.47497 1.92145-3.47497 1.12425-3.47497 0.981167-2.77997 0.981167-1.94189 0.981167-1.10381 1.10381-0.449702 1.92145-0.449702" fill="#333333" transform="matrix(1 0 0 1.3778 335.309 39.6363)"/><path d="M2.0441-3.96555C3.33188-3.96555 3.80202-3.10703 3.76114-1.79881L1.00161-1.79881C1.00161-0.981167 1.28778-0.429261 2.08498-0.40882 2.61645-0.388379 2.96394-0.654112 3.08659-1.00161L3.65894-0.83808C3.43409-0.265733 2.90262 0.0817639 2.08498 0.0817639 0.899403 0.0817639 0.286174-0.674553 0.306615-1.96233 0.327056-3.20923 0.83808-3.96555 2.0441-3.96555ZM3.10703-2.30983C3.22968-3.53629 1.55351-3.88379 1.12425-2.88218 1.06293-2.73909 1.00161-2.53468 1.00161-2.30983L3.10703-2.30983" fill="#333333" transform="matrix(1 0 0 1.3778 339.397 39.6363)"/><path d="M3.27056-2.67777C3.98599-2.57556 4.51746-2.20763 4.51746-1.43087 4.51746 0.347497 2.35071-0.040882 0.61323 0L0.61323-5.06936C2.16674-5.00804 4.23128-5.41686 4.23128-3.84291 4.23128-3.16835 3.84291-2.82086 3.27056-2.67777ZM1.28778-2.90262C2.30983-2.92306 3.53629-2.71865 3.53629-3.76114 3.53629-4.72187 2.24851-4.49702 1.28778-4.51746L1.28778-2.90262ZM1.28778-0.551907C2.41204-0.592789 3.82246-0.265733 3.82246-1.47175 3.82246-2.61645 2.3916-2.33027 1.28778-2.37115L1.28778-0.551907" fill="#333333" transform="matrix(1 0 0 1.3778 316.932 51.8026)"/><path d="M2.88218-0.735875C2.57556-0.306615 2.24851 0.102205 1.49219 0.0817639 0.756316 0.061323 0.306615-0.347497 0.306615-1.08337 0.286174-2.3916 1.5944-2.37115 2.86174-2.37115 2.92306-3.08659 2.67777-3.47497 2.02366-3.47497 1.53307-3.45453 1.18558-3.33188 1.16514-2.8413L0.490584-2.90262C0.592789-3.65894 1.16514-3.96555 2.0441-3.96555 2.96394-3.96555 3.51585-3.55673 3.51585-2.65733L3.51585-0.981167C3.49541-0.572348 3.65894-0.327056 4.0882-0.429261L4.0882-0.020441C3.45453 0.163528 2.8413-0.061323 2.88218-0.735875ZM0.981167-1.08337C0.981167-0.674553 1.22646-0.40882 1.63528-0.40882 2.47336-0.470143 2.92306-1.00161 2.86174-1.92145 1.98278-1.88057 0.981167-2.02366 0.981167-1.08337" fill="#333333" transform="matrix(1 0 0 1.3778 321.838 51.8026)"/><path d="M2.75953-2.92306C2.69821-3.61805 1.00161-3.69982 0.981167-2.92306 1.28778-1.83969 3.33188-2.67777 3.41364-1.08337 3.49541 0.511025 0.347497 0.429261 0.20441-0.919844L0.776757-1.02205C0.858521-0.286174 2.75953-0.102205 2.77997-1.02205 2.57556-2.16674 0.470143-1.32866 0.367938-2.86174 0.286174-4.02687 2.0441-4.14952 2.86174-3.72026 3.10703-3.57717 3.291-3.33188 3.35232-3.00483" fill="#333333" transform="matrix(1 0 0 1.3778 325.926 51.8026)"/><path d="M2.0441-3.96555C3.33188-3.96555 3.80202-3.10703 3.76114-1.79881L1.00161-1.79881C1.00161-0.981167 1.28778-0.429261 2.08498-0.40882 2.61645-0.388379 2.96394-0.654112 3.08659-1.00161L3.65894-0.83808C3.43409-0.265733 2.90262 0.0817639 2.08498 0.0817639 0.899403 0.0817639 0.286174-0.674553 0.306615-1.96233 0.327056-3.20923 0.83808-3.96555 2.0441-3.96555ZM3.10703-2.30983C3.22968-3.53629 1.55351-3.88379 1.12425-2.88218 1.06293-2.73909 1.00161-2.53468 1.00161-2.30983L3.10703-2.30983" fill="#333333" transform="matrix(1 0 0 1.3778 329.606 51.8026)"/><path d="M195.017 86.0974 195.017 93.3263C195.017 93.3362 195.024 93.3429 195.031 93.3429 195.037 93.3429 195.044 93.3429 195.044 93.3561L195.044 94.79" stroke="#5E5E5E" stroke-width="0.662288" fill="none" transform="matrix(1 0 0 1.3778 130.319 -55.2765)"/><path d="M195.011 85.7663 195.348 85.7663 195.348 86.1074 194.686 86.1074 194.686 85.7563" fill="#5E5E5E" transform="matrix(1 0 0 1.3778 130.319 -55.2765)"/><path d="M195.044 99.8399 193.511 95.1211 196.58 95.1211Z" stroke="#5E5E5E" stroke-width="0.662288" fill="#5E5E5E" transform="matrix(1 0 0 1.3778 130.319 -55.2765)"/><path d="M291.066 69.1263C291.066 75.0703 281.512 79.8885 269.723 79.8885 257.935 79.8885 248.378 75.0703 248.378 69.1263 248.378 63.1823 257.935 58.3641 269.723 58.3641 281.512 58.3641 291.066 63.1823 291.066 69.1263Z" stroke="#5E5E5E" stroke-width="0.993432" fill="#FFFFFF" transform="matrix(1 0 0 1.3778 130.319 -55.2765)"/><path d="M4.76275-3.61805C4.74231-2.77997 4.29261-2.30983 3.53629-2.18719L4.96716 0 4.1904 0 2.86174-2.10542 1.28778-2.10542 1.28778 0 0.61323 0 0.61323-5.06936C2.41204-5.00804 4.80363-5.49863 4.76275-3.61805ZM1.28778-2.63689C2.51424-2.67777 4.0882-2.37115 4.0882-3.59761 4.0882-4.84451 2.45292-4.45613 1.28778-4.51746L1.28778-2.63689" fill="#333333" transform="matrix(1 0 0 1.3778 383.112 41.8035)"/><path d="M1.71704 0.0817639C-0.102205 0.163528 0.61323-2.28939 0.470143-3.88379L1.12425-3.88379 1.12425-1.43087C1.12425-0.797198 1.26734-0.40882 1.92145-0.429261 3.3932-0.470143 2.8413-2.4938 2.9435-3.88379L3.57717-3.88379 3.59761 0 2.98438 0C2.96394-0.20441 3.00483-0.511025 2.9435-0.674553 2.71865-0.224851 2.37115 0.061323 1.71704 0.0817639" fill="#333333" transform="matrix(1 0 0 1.3778 388.406 41.8035)"/><path d="M0.490584 0 0.490584-5.3351 1.1447-5.3351 1.1447 0 0.490584 0" fill="#333333" transform="matrix(1 0 0 1.3778 392.494 41.8035)"/><path d="M2.0441-3.96555C3.33188-3.96555 3.80202-3.10703 3.76114-1.79881L1.00161-1.79881C1.00161-0.981167 1.28778-0.429261 2.08498-0.40882 2.61645-0.388379 2.96394-0.654112 3.08659-1.00161L3.65894-0.83808C3.43409-0.265733 2.90262 0.0817639 2.08498 0.0817639 0.899403 0.0817639 0.286174-0.674553 0.306615-1.96233 0.327056-3.20923 0.83808-3.96555 2.0441-3.96555ZM3.10703-2.30983C3.22968-3.53629 1.55351-3.88379 1.12425-2.88218 1.06293-2.73909 1.00161-2.53468 1.00161-2.30983L3.10703-2.30983" fill="#333333" transform="matrix(1 0 0 1.3778 394.109 41.8035)"/><path d="M3.27056-2.67777C3.98599-2.57556 4.51746-2.20763 4.51746-1.43087 4.51746 0.347497 2.35071-0.040882 0.61323 0L0.61323-5.06936C2.16674-5.00804 4.23128-5.41686 4.23128-3.84291 4.23128-3.16835 3.84291-2.82086 3.27056-2.67777ZM1.28778-2.90262C2.30983-2.92306 3.53629-2.71865 3.53629-3.76114 3.53629-4.72187 2.24851-4.49702 1.28778-4.51746L1.28778-2.90262ZM1.28778-0.551907C2.41204-0.592789 3.82246-0.265733 3.82246-1.47175 3.82246-2.61645 2.3916-2.33027 1.28778-2.37115L1.28778-0.551907" fill="#333333" transform="matrix(1 0 0 1.3778 400.241 41.8035)"/><path d="M2.88218-0.735875C2.57556-0.306615 2.24851 0.102205 1.49219 0.0817639 0.756316 0.061323 0.306615-0.347497 0.306615-1.08337 0.286174-2.3916 1.5944-2.37115 2.86174-2.37115 2.92306-3.08659 2.67777-3.47497 2.02366-3.47497 1.53307-3.45453 1.18558-3.33188 1.16514-2.8413L0.490584-2.90262C0.592789-3.65894 1.16514-3.96555 2.0441-3.96555 2.96394-3.96555 3.51585-3.55673 3.51585-2.65733L3.51585-0.981167C3.49541-0.572348 3.65894-0.327056 4.0882-0.429261L4.0882-0.020441C3.45453 0.163528 2.8413-0.061323 2.88218-0.735875ZM0.981167-1.08337C0.981167-0.674553 1.22646-0.40882 1.63528-0.40882 2.47336-0.470143 2.92306-1.00161 2.86174-1.92145 1.98278-1.88057 0.981167-2.02366 0.981167-1.08337" fill="#333333" transform="matrix(1 0 0 1.3778 405.147 41.8035)"/><path d="M2.75953-2.92306C2.69821-3.61805 1.00161-3.69982 0.981167-2.92306 1.28778-1.83969 3.33188-2.67777 3.41364-1.08337 3.49541 0.511025 0.347497 0.429261 0.20441-0.919844L0.776757-1.02205C0.858521-0.286174 2.75953-0.102205 2.77997-1.02205 2.57556-2.16674 0.470143-1.32866 0.367938-2.86174 0.286174-4.02687 2.0441-4.14952 2.86174-3.72026 3.10703-3.57717 3.291-3.33188 3.35232-3.00483" fill="#333333" transform="matrix(1 0 0 1.3778 409.235 41.8035)"/><path d="M2.0441-3.96555C3.33188-3.96555 3.80202-3.10703 3.76114-1.79881L1.00161-1.79881C1.00161-0.981167 1.28778-0.429261 2.08498-0.40882 2.61645-0.388379 2.96394-0.654112 3.08659-1.00161L3.65894-0.83808C3.43409-0.265733 2.90262 0.0817639 2.08498 0.0817639 0.899403 0.0817639 0.286174-0.674553 0.306615-1.96233 0.327056-3.20923 0.83808-3.96555 2.0441-3.96555ZM3.10703-2.30983C3.22968-3.53629 1.55351-3.88379 1.12425-2.88218 1.06293-2.73909 1.00161-2.53468 1.00161-2.30983L3.10703-2.30983" fill="#333333" transform="matrix(1 0 0 1.3778 412.915 41.8035)"/><path d="M269.723 80.7163 269.723 89.4089" stroke="#5E5E5E" stroke-width="0.662288" fill="none" transform="matrix(1 0 0 1.3778 130.319 -55.2765)"/><path d="M269.717 80.3852 270.055 80.3852 270.055 80.7263 269.392 80.7263 269.392 80.3719" fill="#5E5E5E" transform="matrix(1 0 0 1.3778 130.319 -55.2765)"/><path d="M269.723 94.4621 268.187 89.74 271.257 89.74Z" stroke="#5E5E5E" stroke-width="0.662288" fill="#5E5E5E" transform="matrix(1 0 0 1.3778 130.319 -55.2765)"/><path d="M149.995 46.741 153.952 46.741M157.913 46.741 161.87 46.741M165.83 46.741 169.787 46.741M173.748 46.741 177.705 46.741M181.666 46.741 185.623 46.741M189.587 46.741 193.544 46.741M197.501 46.741 201.458 46.741M205.415 46.741 209.372 46.741M213.33 46.741 217.287 46.741M221.244 46.741 225.201 46.741M229.158 46.741 233.115 46.741M237.073 46.741 241.03 46.741M244.987 46.741 248.944 46.741M252.901 46.741 256.862 46.741M260.819 46.741 264.776 46.741M268.733 46.741 272.69 46.741M276.648 46.741 280.605 46.741M284.562 46.741 288.519 46.741M292.476 46.741 296.433 46.741M300.391 46.741 304.348 46.741M308.305 46.741 312.262 46.741M316.219 46.741 320.176 46.741M324.134 46.741 328.094 46.741M332.051 46.741 336.005 46.741M339.962 46.741 343.916 46.741M347.873 46.741 351.827 46.741M355.784 46.741 359.738 46.741M363.695 46.741 367.649 46.741M371.606 46.741 375.56 46.741M379.517 46.741 381.494 46.741 382.498 47.0125 383.21 47.7278 383.481 48.7278 383.481 50.7478M383.481 54.7811 383.481 58.8145M383.481 62.8544 383.481 66.8845M383.481 70.9178 383.481 74.9577M383.481 78.9878 383.481 83.0211M383.481 87.0544 383.481 91.0878M383.481 95.1211 383.481 99.1611M383.481 103.191 383.481 107.231M383.481 111.261 383.481 115.294M383.481 119.334 383.481 123.364M383.481 127.398 383.481 131.431M383.481 135.464 383.481 137.484 383.21 138.484 382.498 139.196 381.494 139.468 379.514 139.468M375.554 139.468 371.596 139.468M367.636 139.468 363.679 139.468M359.718 139.468 355.761 139.468M351.801 139.468 347.844 139.468M343.883 139.468 339.926 139.468M335.965 139.468 332.008 139.468M328.048 139.468 324.087 139.468M320.13 139.468 316.173 139.468M312.216 139.468 308.259 139.468M304.301 139.468 300.344 139.468M296.387 139.468 292.43 139.468M288.473 139.468 284.516 139.468M280.558 139.468 276.601 139.468M272.644 139.468 268.687 139.468M264.73 139.468 260.773 139.468M256.815 139.468 252.855 139.468M248.898 139.468 244.941 139.468M240.983 139.468 237.026 139.468M233.069 139.468 229.112 139.468M225.155 139.468 221.198 139.468M217.24 139.468 213.283 139.468M209.326 139.468 205.369 139.468M201.412 139.468 197.455 139.468M193.497 139.468 189.54 139.468M185.58 139.468 181.626 139.468M177.669 139.468 173.715 139.468M169.758 139.468 165.804 139.468M161.847 139.468 157.893 139.468M153.936 139.468 149.982 139.468M146.025 139.468 144.048 139.468 143.048 139.196 142.336 138.484 142.064 137.481 142.064 135.461M142.064 131.431 142.064 127.391M142.064 123.358 142.064 119.324M142.064 115.284 142.064 111.254M142.064 107.221 142.064 103.181M142.064 99.1511 142.064 95.1112M142.064 91.0811 142.064 87.0478M142.064 83.0145 142.064 78.9811M142.064 74.9478 142.064 70.9079M142.064 66.8778 142.064 62.8511M142.064 58.8112 142.064 54.7811M142.064 50.7412 142.064 48.7278 142.336 47.7278 143.051 47.0125 144.054 46.741 146.034 46.741" stroke="#5E5E5E" stroke-width="0.993432" fill="none" transform="matrix(1 0 0 1.3778 130.319 -55.2765)"/><path d="M1.55351-4.25173 1.55351-2.67777 4.14952-2.67777 4.14952-1.86013 1.55351-1.86013 1.55351 0 0.490584 0 0.490584-5.06936 4.23128-5.06936 4.23128-4.25173 1.55351-4.25173" fill="#C92D39" transform="matrix(1 0 0 1.3778 455.942 28.1159)"/><path d="M4.86495-1.94189C4.86495-0.531466 3.96555 0.0817639 2.59601 0.0817639 1.28778 0.0817639 0.449702-0.511025 0.449702-1.90101L0.449702-5.06936 1.49219-5.06936 1.49219-1.98278C1.47175-1.20602 1.88057-0.776757 2.61645-0.756316 4.45613-0.735875 3.61805-3.41364 3.80202-5.06936L4.86495-5.06936 4.86495-1.94189" fill="#C92D39" transform="matrix(1 0 0 1.3778 460.419 28.1159)"/><path d="M4.29261 0 0.224851 0 0.224851-0.756316 2.96394-4.23128 0.490584-4.23128 0.490584-5.06936 4.12908-5.06936 4.12908-4.33349 1.38999-0.83808 4.29261-0.83808 4.29261 0" fill="#C92D39" transform="matrix(1 0 0 1.3778 465.713 28.1159)"/><path d="M4.29261 0 0.224851 0 0.224851-0.756316 2.96394-4.23128 0.490584-4.23128 0.490584-5.06936 4.12908-5.06936 4.12908-4.33349 1.38999-0.83808 4.29261-0.83808 4.29261 0" fill="#C92D39" transform="matrix(1 0 0 1.3778 470.19 28.1159)"/><path d="M2.98438-2.08498 2.98438 0 1.92145 0 1.92145-2.08498 0.122646-5.06936 1.22646-5.06936 2.45292-2.92306 3.67938-5.06936 4.78319-5.06936" fill="#C92D39" transform="matrix(1 0 0 1.3778 474.666 28.1159)"/><path d="M0.490584 0 0.490584-5.06936 1.55351-5.06936 1.55351-0.817639 4.27217-0.817639 4.27217 0 0.490584 0" fill="#C92D39" transform="matrix(1 0 0 1.3778 481.474 28.1159)"/><path d="M2.86174-5.13069C4.49702-5.13069 5.41686-4.21084 5.41686-2.55512 5.41686-0.899403 4.47658 0.0817639 2.8413 0.0817639 1.18558 0.0817639 0.306615-0.899403 0.306615-2.55512 0.306615-4.21084 1.20602-5.13069 2.86174-5.13069ZM2.8413-0.756316C3.90423-0.756316 4.33349-1.47175 4.33349-2.55512 4.33349-3.57717 3.90423-4.31305 2.86174-4.31305 1.79881-4.31305 1.36955-3.59761 1.36955-2.55512 1.36955-1.51263 1.81925-0.756316 2.8413-0.756316" fill="#C92D39" transform="matrix(1 0 0 1.3778 485.951 28.1159)"/><path d="M1.36955-2.55512C1.36955-1.45131 1.83969-0.756316 2.90262-0.756316 3.47497-0.756316 3.98599-0.899403 4.29261-1.18558L4.29261-1.88057 3.06615-1.88057 3.06615-2.67777 5.27377-2.67777 5.27377-0.817639C4.74231-0.286174 3.92467 0.0817639 2.86174 0.0817639 1.18558 0.0817639 0.40882-0.858521 0.306615-2.55512 0.163528-4.82407 2.57556-5.72348 4.39481-4.78319 4.78319-4.57878 4.9876-4.25173 5.15113-3.82246L4.1904-3.51585C3.96555-3.98599 3.59761-4.31305 2.90262-4.31305 1.81925-4.29261 1.36955-3.6385 1.36955-2.55512" fill="#C92D39" transform="matrix(1 0 0 1.3778 491.674 28.1159)"/><path d="M0.490584 0 0.490584-5.06936 1.55351-5.06936 1.55351 0 0.490584 0" fill="#C92D39" transform="matrix(1 0 0 1.3778 497.398 28.1159)"/><path d="M1.36955-2.55512C1.36955-1.47175 1.79881-0.776757 2.86174-0.756316 3.61805-0.735875 3.96555-1.20602 4.1904-1.71704L5.11025-1.36955C4.76275-0.511025 4.06776 0.0817639 2.86174 0.0817639 1.18558 0.0817639 0.40882-0.858521 0.306615-2.55512 0.163528-4.80363 2.53468-5.74392 4.31305-4.74231 4.68099-4.5379 4.90584-4.14952 5.04892-3.72026L4.10864-3.47497C3.94511-3.98599 3.49541-4.31305 2.8413-4.31305 1.77837-4.31305 1.38999-3.61805 1.36955-2.55512" fill="#C92D39" transform="matrix(1 0 0 1.3778 499.442 28.1159)"/><path d="M1.36955-2.55512C1.36955-1.47175 1.79881-0.776757 2.86174-0.756316 3.61805-0.735875 3.96555-1.20602 4.1904-1.71704L5.11025-1.36955C4.76275-0.511025 4.06776 0.0817639 2.86174 0.0817639 1.18558 0.0817639 0.40882-0.858521 0.306615-2.55512 0.163528-4.80363 2.53468-5.74392 4.31305-4.74231 4.68099-4.5379 4.90584-4.14952 5.04892-3.72026L4.10864-3.47497C3.94511-3.98599 3.49541-4.31305 2.8413-4.31305 1.77837-4.31305 1.38999-3.61805 1.36955-2.55512" fill="#C92D39" transform="matrix(1 0 0 1.3778 454.859 40.2823)"/><path d="M2.86174-5.13069C4.49702-5.13069 5.41686-4.21084 5.41686-2.55512 5.41686-0.899403 4.47658 0.0817639 2.8413 0.0817639 1.18558 0.0817639 0.306615-0.899403 0.306615-2.55512 0.306615-4.21084 1.20602-5.13069 2.86174-5.13069ZM2.8413-0.756316C3.90423-0.756316 4.33349-1.47175 4.33349-2.55512 4.33349-3.57717 3.90423-4.31305 2.86174-4.31305 1.79881-4.31305 1.36955-3.59761 1.36955-2.55512 1.36955-1.51263 1.81925-0.756316 2.8413-0.756316" fill="#C92D39" transform="matrix(1 0 0 1.3778 460.153 40.2823)"/><path d="M3.57717 0 1.36955-3.90423C1.49219-2.71865 1.41043-1.28778 1.43087 0L0.490584 0 0.490584-5.06936 1.6966-5.06936 3.94511-1.12425C3.82246-2.30983 3.90423-3.76114 3.88379-5.06936L4.82407-5.06936 4.82407 0 3.57717 0" fill="#C92D39" transform="matrix(1 0 0 1.3778 465.877 40.2823)"/><path d="M2.77997-4.25173 2.77997 0 1.71704 0 1.71704-4.25173 0.0817639-4.25173 0.0817639-5.06936 4.41525-5.06936 4.41525-4.25173 2.77997-4.25173" fill="#C92D39" transform="matrix(1 0 0 1.3778 471.171 40.2823)"/><path d="M4.90584-3.55673C4.90584-2.73909 4.43569-2.30983 3.80202-2.12586L5.17157 0 3.96555 0 2.80042-1.92145 1.55351-1.92145 1.55351 0 0.490584 0 0.490584-5.06936C2.3916-4.9876 4.92628-5.53951 4.90584-3.55673ZM1.55351-2.73909C2.53468-2.77997 3.84291-2.4938 3.84291-3.51585 3.84291-4.49702 2.4938-4.16996 1.55351-4.23128L1.55351-2.73909" fill="#C92D39" transform="matrix(1 0 0 1.3778 475.647 40.2823)"/><path d="M2.86174-5.13069C4.49702-5.13069 5.41686-4.21084 5.41686-2.55512 5.41686-0.899403 4.47658 0.0817639 2.8413 0.0817639 1.18558 0.0817639 0.306615-0.899403 0.306615-2.55512 0.306615-4.21084 1.20602-5.13069 2.86174-5.13069ZM2.8413-0.756316C3.90423-0.756316 4.33349-1.47175 4.33349-2.55512 4.33349-3.57717 3.90423-4.31305 2.86174-4.31305 1.79881-4.31305 1.36955-3.59761 1.36955-2.55512 1.36955-1.51263 1.81925-0.756316 2.8413-0.756316" fill="#C92D39" transform="matrix(1 0 0 1.3778 480.942 40.2823)"/><path d="M0.490584 0 0.490584-5.06936 1.55351-5.06936 1.55351-0.817639 4.27217-0.817639 4.27217 0 0.490584 0" fill="#C92D39" transform="matrix(1 0 0 1.3778 486.665 40.2823)"/><path d="M0.490584 0 0.490584-5.06936 1.55351-5.06936 1.55351-0.817639 4.27217-0.817639 4.27217 0 0.490584 0" fill="#C92D39" transform="matrix(1 0 0 1.3778 491.142 40.2823)"/><path d="M0.490584 0 0.490584-5.06936 4.47658-5.06936 4.47658-4.25173 1.55351-4.25173 1.55351-2.96394 4.25173-2.96394 4.25173-2.1463 1.55351-2.1463 1.55351-0.817639 4.61966-0.817639 4.61966 0 0.490584 0" fill="#C92D39" transform="matrix(1 0 0 1.3778 495.618 40.2823)"/><path d="M4.90584-3.55673C4.90584-2.73909 4.43569-2.30983 3.80202-2.12586L5.17157 0 3.96555 0 2.80042-1.92145 1.55351-1.92145 1.55351 0 0.490584 0 0.490584-5.06936C2.3916-4.9876 4.92628-5.53951 4.90584-3.55673ZM1.55351-2.73909C2.53468-2.77997 3.84291-2.4938 3.84291-3.51585 3.84291-4.49702 2.4938-4.16996 1.55351-4.23128L1.55351-2.73909" fill="#C92D39" transform="matrix(1 0 0 1.3778 500.524 40.2823)"/><path d="M-33.1144 101.33C-33.1144 100.237-32.2203 99.3432-31.1275 99.3432L37.7504 99.3432C38.8432 99.3432 39.7373 100.237 39.7373 101.33L39.7373 122.964C39.7373 124.063 38.8432 124.951 37.7504 124.951L-31.1275 124.951C-32.2203 124.951-33.1144 124.063-33.1144 122.964Z" stroke="#5E5E5E" stroke-width="0.993432" fill="#FFFFFF" transform="matrix(1 0 0 1.3778 130.319 -55.2765)"/><path d="M0.490584 0 0.490584-5.06936 1.55351-5.06936 1.55351 0 0.490584 0" fill="#333333" transform="matrix(1 0 0 1.3778 102.019 101.344)"/><path d="M4.49702-3.20923C3.41364-3.02527 3.92467-1.16514 3.80202 0L2.80042 0 2.80042-2.18719C2.82086-2.73909 2.69821-3.18879 2.20763-3.20923 1.12425-3.00483 1.65572-1.16514 1.53307 0L0.511025 0 0.490584-3.88379 1.45131-3.88379C1.49219-3.6385 1.43087-3.31144 1.51263-3.10703 1.71704-4.1904 3.57717-4.25173 3.72026-3.10703 3.98599-3.55673 4.21084-3.98599 4.92628-3.96555 6.60244-3.94511 5.96877-1.5944 6.09141 0L5.08981 0 5.08981-2.18719C5.06936-2.69821 4.9876-3.16835 4.49702-3.20923" fill="#333333" transform="matrix(1 0 0 1.3778 104.063 101.344)"/><path d="M2.71865-0.694994C2.3916-0.306615 2.10542 0.102205 1.41043 0.0817639 0.654112 0.061323 0.224851-0.327056 0.224851-1.10381 0.20441-2.33027 1.34911-2.3916 2.59601-2.35071 2.61645-2.88218 2.53468-3.31144 2.02366-3.31144 1.65572-3.291 1.49219-3.12747 1.45131-2.75953L0.388379-2.80042C0.531466-3.57717 1.12425-3.98599 2.06454-3.96555 3.00483-3.94511 3.57717-3.51585 3.59761-2.57556L3.61805-0.899403C3.59761-0.61323 3.86335-0.531466 4.12908-0.592789L4.12908-0.040882C3.51585 0.122646 2.67777 0.061323 2.71865-0.694994ZM1.73748-0.633671C2.33027-0.633671 2.61645-1.12425 2.59601-1.79881 1.94189-1.79881 1.2469-1.86013 1.26734-1.18558 1.26734-0.83808 1.43087-0.633671 1.73748-0.633671" fill="#333333" transform="matrix(1 0 0 1.3778 110.604 101.344)"/><path d="M3.98599-0.122646C4.21084 1.67616 1.53307 2.0441 0.633671 0.940285 0.551907 0.817639 0.511025 0.674553 0.470143 0.511025L1.47175 0.388379C1.53307 0.715435 1.79881 0.878962 2.16674 0.899403 2.98438 0.899403 3.02527 0.143087 2.98438-0.715435 2.75953-0.265733 2.37115 0 1.73748 0 0.654112 0 0.306615-0.878962 0.306615-1.98278 0.306615-3.12747 0.674553-3.94511 1.79881-3.96555 2.41204-3.96555 2.73909-3.67938 3.00483-3.27056L3.04571-3.88379 4.00643-3.88379ZM2.1463-0.715435C2.80042-0.715435 2.98438-1.26734 2.98438-2.00322 2.98438-2.71865 2.80042-3.27056 2.16674-3.27056 1.51263-3.27056 1.36955-2.67777 1.34911-1.98278 1.34911-1.2469 1.53307-0.715435 2.1463-0.715435" fill="#333333" transform="matrix(1 0 0 1.3778 114.692 101.344)"/><path d="M3.78158-0.981167C3.51585-0.367938 3.02527 0.102205 2.10542 0.0817639 0.878962 0.040882 0.286174-0.674553 0.286174-1.96233 0.286174-3.25012 0.899403-3.96555 2.12586-3.96555 3.3932-3.96555 3.82246-3.04571 3.84291-1.75792L1.34911-1.75792C1.34911-1.12425 1.51263-0.633671 2.1463-0.61323 2.51424-0.61323 2.75953-0.756316 2.8413-1.06293ZM2.86174-2.3916C2.96394-3.33188 1.6966-3.67938 1.43087-2.82086 1.38999-2.69821 1.34911-2.55512 1.34911-2.3916L2.86174-2.3916" fill="#333333" transform="matrix(1 0 0 1.3778 119.169 101.344)"/><path d="M4.06776 0 3.61805-1.28778 1.6966-1.28778 1.2469 0 0.183969 0 2.02366-5.06936 3.27056-5.06936 5.11025 0 4.06776 0ZM3.3932-2.08498 2.65733-4.29261C2.45292-3.51585 2.16674-2.82086 1.92145-2.08498L3.3932-2.08498" fill="#333333" transform="matrix(1 0 0 1.3778 125.301 101.344)"/><path d="M3.88379-1.28778C3.7407-0.429261 3.10703 0.0817639 2.12586 0.0817639 0.919844 0.0817639 0.40882-0.694994 0.286174-1.92145 0.040882-4.16996 3.43409-4.72187 3.84291-2.65733L2.8413-2.61645C2.80042-3.00483 2.53468-3.27056 2.12586-3.27056 1.51263-3.27056 1.41043-2.69821 1.34911-1.96233 1.22646-0.449702 2.67777-0.183969 2.86174-1.34911" fill="#333333" transform="matrix(1 0 0 1.3778 130.595 101.344)"/><path d="M1.71704 0.0817639C0.654112 0.0817639 0.306615-0.83808 0.306615-1.94189 0.306615-3.06615 0.674553-3.96555 1.79881-3.96555 2.3916-3.96555 2.75953-3.72026 2.98438-3.27056L3.02527-3.88379 4.00643-3.88379 3.98599 1.53307 2.98438 1.53307 2.98438-0.654112C2.77997-0.183969 2.33027 0.0817639 1.71704 0.0817639ZM2.1463-0.61323C2.80042-0.61323 2.98438-1.20602 2.98438-1.96233 2.98438-2.69821 2.80042-3.27056 2.16674-3.27056 1.49219-3.27056 1.36955-2.65733 1.34911-1.94189 1.34911-1.06293 1.61484-0.61323 2.1463-0.61323" fill="#333333" transform="matrix(1 0 0 1.3778 134.684 101.344)"/><path d="M1.73748 0.0817639C-0.040882 0.102205 0.551907-2.22807 0.449702-3.88379L1.47175-3.88379C1.61484-2.71865 1.00161-0.817639 2.1463-0.674553 3.37276-0.776757 2.86174-2.65733 2.96394-3.88379L3.98599-3.88379 4.00643 0 3.04571 0C3.00483-0.245292 3.06615-0.572348 2.98438-0.776757 2.73909-0.265733 2.41204 0.0817639 1.73748 0.0817639" fill="#333333" transform="matrix(1 0 0 1.3778 139.16 101.344)"/><path d="M0.511025-4.57878 0.511025-5.3351 1.53307-5.3351 1.53307-4.57878 0.511025-4.57878ZM0.511025 0 0.511025-3.88379 1.53307-3.88379 1.53307 0 0.511025 0" fill="#333333" transform="matrix(1 0 0 1.3778 143.637 101.344)"/><path d="M2.80042-2.82086C2.82086-3.41364 1.36955-3.51585 1.34911-2.90262 1.65572-1.96233 3.76114-2.75953 3.78158-1.1447 3.80202 0.551907 0.429261 0.40882 0.265733-0.960726L1.1447-1.10381C1.22646-0.715435 1.55351-0.592789 2.0441-0.592789 2.71865-0.429261 3.20923-1.20602 2.53468-1.43087 1.65572-1.71704 0.449702-1.65572 0.40882-2.77997 0.367938-4.41525 3.55673-4.29261 3.69982-2.92306" fill="#333333" transform="matrix(1 0 0 1.3778 145.681 101.344)"/><path d="M0.511025-4.57878 0.511025-5.3351 1.53307-5.3351 1.53307-4.57878 0.511025-4.57878ZM0.511025 0 0.511025-3.88379 1.53307-3.88379 1.53307 0 0.511025 0" fill="#333333" transform="matrix(1 0 0 1.3778 149.769 101.344)"/><path d="M2.35071-0.061323C1.61484 0.224851 0.572348 0.0817639 0.572348-0.919844L0.572348-3.20923 0.0817639-3.20923 0.0817639-3.88379 0.633671-3.88379 0.940285-4.80363 1.57396-4.80363 1.57396-3.88379 2.30983-3.88379 2.30983-3.20923 1.57396-3.20923 1.57396-1.18558C1.55351-0.715435 1.90101-0.551907 2.35071-0.674553L2.35071-0.061323" fill="#333333" transform="matrix(1 0 0 1.3778 151.813 101.344)"/><path d="M0.511025-4.57878 0.511025-5.3351 1.53307-5.3351 1.53307-4.57878 0.511025-4.57878ZM0.511025 0 0.511025-3.88379 1.53307-3.88379 1.53307 0 0.511025 0" fill="#333333" transform="matrix(1 0 0 1.3778 154.246 101.344)"/><path d="M2.24851-3.96555C3.55673-3.96555 4.21084-3.22968 4.21084-1.94189 4.21084-0.633671 3.49541 0.0817639 2.22807 0.0817639 0.981167 0.0817639 0.286174-0.654112 0.286174-1.94189 0.286174-3.20923 0.981167-3.96555 2.24851-3.96555ZM2.22807-0.61323C2.9435-0.61323 3.14791-1.18558 3.14791-1.94189 3.14791-2.75953 2.9435-3.27056 2.26895-3.27056 1.57396-3.27056 1.34911-2.73909 1.34911-1.94189 1.34911-1.20602 1.55351-0.61323 2.22807-0.61323" fill="#333333" transform="matrix(1 0 0 1.3778 156.29 101.344)"/><path d="M2.75953-3.96555C4.5379-3.98599 3.94511-1.65572 4.04732 0L3.02527 0C2.88218-1.16514 3.49541-3.20923 2.33027-3.20923 1.12425-3.20923 1.63528-1.22646 1.53307 0L0.511025 0 0.490584-3.88379 1.45131-3.88379C1.49219-3.6385 1.43087-3.31144 1.51263-3.10703 1.75792-3.6385 2.08498-3.94511 2.75953-3.96555" fill="#333333" transform="matrix(1 0 0 1.3778 160.766 101.344)"/><path d="M59.6059 101.33C59.6059 100.237 60.5 99.3432 61.5928 99.3432L130.471 99.3432C131.563 99.3432 132.458 100.237 132.458 101.33L132.458 122.964C132.458 124.063 131.563 124.951 130.471 124.951L61.5928 124.951C60.5 124.951 59.6059 124.063 59.6059 122.964Z" stroke="#5E5E5E" stroke-width="0.993432" fill="#FFFFFF" transform="matrix(1 0 0 1.3778 130.319 -55.2765)"/><path d="M0.490584 0 0.490584-5.06936 1.55351-5.06936 1.55351 0 0.490584 0" fill="#333333" transform="matrix(1 0 0 1.3778 215.732 95.1847)"/><path d="M4.49702-3.20923C3.41364-3.02527 3.92467-1.16514 3.80202 0L2.80042 0 2.80042-2.18719C2.82086-2.73909 2.69821-3.18879 2.20763-3.20923 1.12425-3.00483 1.65572-1.16514 1.53307 0L0.511025 0 0.490584-3.88379 1.45131-3.88379C1.49219-3.6385 1.43087-3.31144 1.51263-3.10703 1.71704-4.1904 3.57717-4.25173 3.72026-3.10703 3.98599-3.55673 4.21084-3.98599 4.92628-3.96555 6.60244-3.94511 5.96877-1.5944 6.09141 0L5.08981 0 5.08981-2.18719C5.06936-2.69821 4.9876-3.16835 4.49702-3.20923" fill="#333333" transform="matrix(1 0 0 1.3778 217.776 95.1847)"/><path d="M2.71865-0.694994C2.3916-0.306615 2.10542 0.102205 1.41043 0.0817639 0.654112 0.061323 0.224851-0.327056 0.224851-1.10381 0.20441-2.33027 1.34911-2.3916 2.59601-2.35071 2.61645-2.88218 2.53468-3.31144 2.02366-3.31144 1.65572-3.291 1.49219-3.12747 1.45131-2.75953L0.388379-2.80042C0.531466-3.57717 1.12425-3.98599 2.06454-3.96555 3.00483-3.94511 3.57717-3.51585 3.59761-2.57556L3.61805-0.899403C3.59761-0.61323 3.86335-0.531466 4.12908-0.592789L4.12908-0.040882C3.51585 0.122646 2.67777 0.061323 2.71865-0.694994ZM1.73748-0.633671C2.33027-0.633671 2.61645-1.12425 2.59601-1.79881 1.94189-1.79881 1.2469-1.86013 1.26734-1.18558 1.26734-0.83808 1.43087-0.633671 1.73748-0.633671" fill="#333333" transform="matrix(1 0 0 1.3778 224.317 95.1847)"/><path d="M3.98599-0.122646C4.21084 1.67616 1.53307 2.0441 0.633671 0.940285 0.551907 0.817639 0.511025 0.674553 0.470143 0.511025L1.47175 0.388379C1.53307 0.715435 1.79881 0.878962 2.16674 0.899403 2.98438 0.899403 3.02527 0.143087 2.98438-0.715435 2.75953-0.265733 2.37115 0 1.73748 0 0.654112 0 0.306615-0.878962 0.306615-1.98278 0.306615-3.12747 0.674553-3.94511 1.79881-3.96555 2.41204-3.96555 2.73909-3.67938 3.00483-3.27056L3.04571-3.88379 4.00643-3.88379ZM2.1463-0.715435C2.80042-0.715435 2.98438-1.26734 2.98438-2.00322 2.98438-2.71865 2.80042-3.27056 2.16674-3.27056 1.51263-3.27056 1.36955-2.67777 1.34911-1.98278 1.34911-1.2469 1.53307-0.715435 2.1463-0.715435" fill="#333333" transform="matrix(1 0 0 1.3778 228.405 95.1847)"/><path d="M3.78158-0.981167C3.51585-0.367938 3.02527 0.102205 2.10542 0.0817639 0.878962 0.040882 0.286174-0.674553 0.286174-1.96233 0.286174-3.25012 0.899403-3.96555 2.12586-3.96555 3.3932-3.96555 3.82246-3.04571 3.84291-1.75792L1.34911-1.75792C1.34911-1.12425 1.51263-0.633671 2.1463-0.61323 2.51424-0.61323 2.75953-0.756316 2.8413-1.06293ZM2.86174-2.3916C2.96394-3.33188 1.6966-3.67938 1.43087-2.82086 1.38999-2.69821 1.34911-2.55512 1.34911-2.3916L2.86174-2.3916" fill="#333333" transform="matrix(1 0 0 1.3778 232.882 95.1847)"/><path d="M0.490584-5.06936C2.3916-5.04892 4.70143-5.39642 4.66054-3.45453 4.6401-1.92145 3.25012-1.65572 1.55351-1.77837L1.55351 0 0.490584 0 0.490584-5.06936ZM1.55351-2.59601C2.51424-2.59601 3.59761-2.45292 3.59761-3.43409 3.59761-4.39481 2.4938-4.23128 1.55351-4.23128L1.55351-2.59601" fill="#333333" transform="matrix(1 0 0 1.3778 199.624 107.351)"/><path d="M2.75953-3.06615C1.96233-3.31144 1.53307-2.80042 1.53307-1.90101L1.53307 0 0.511025 0 0.490584-3.88379 1.45131-3.88379C1.49219-3.61805 1.43087-3.291 1.51263-3.06615 1.63528-3.6385 2.06454-4.14952 2.75953-3.90423L2.75953-3.06615" fill="#333333" transform="matrix(1 0 0 1.3778 204.53 107.351)"/><path d="M3.78158-0.981167C3.51585-0.367938 3.02527 0.102205 2.10542 0.0817639 0.878962 0.040882 0.286174-0.674553 0.286174-1.96233 0.286174-3.25012 0.899403-3.96555 2.12586-3.96555 3.3932-3.96555 3.82246-3.04571 3.84291-1.75792L1.34911-1.75792C1.34911-1.12425 1.51263-0.633671 2.1463-0.61323 2.51424-0.61323 2.75953-0.756316 2.8413-1.06293ZM2.86174-2.3916C2.96394-3.33188 1.6966-3.67938 1.43087-2.82086 1.38999-2.69821 1.34911-2.55512 1.34911-2.3916L2.86174-2.3916" fill="#333333" transform="matrix(1 0 0 1.3778 207.392 107.351)"/><path d="M0.286174-1.47175 0.286174-2.35071 2.1463-2.35071 2.1463-1.47175 0.286174-1.47175" fill="#333333" transform="matrix(1 0 0 1.3778 211.48 107.351)"/><path d="M2.75953-3.96555C3.84291-3.96555 4.1904-3.06615 4.1904-1.96233 4.1904-0.817639 3.80202 0.040882 2.69821 0.0817639 2.06454 0.102205 1.77837-0.265733 1.49219-0.61323 1.55351 0.061323 1.53307 0.797198 1.53307 1.53307L0.511025 1.53307 0.490584-3.88379 1.47175-3.88379C1.51263-3.67938 1.47175-3.41364 1.53307-3.25012 1.75792-3.7407 2.12586-3.96555 2.75953-3.96555ZM2.33027-0.61323C3.00483-0.61323 3.12747-1.2469 3.14791-1.96233 3.14791-2.73909 2.96394-3.27056 2.33027-3.27056 1.18558-3.27056 1.20602-0.61323 2.33027-0.61323" fill="#333333" transform="matrix(1 0 0 1.3778 213.913 107.351)"/><path d="M2.75953-3.06615C1.96233-3.31144 1.53307-2.80042 1.53307-1.90101L1.53307 0 0.511025 0 0.490584-3.88379 1.45131-3.88379C1.49219-3.61805 1.43087-3.291 1.51263-3.06615 1.63528-3.6385 2.06454-4.14952 2.75953-3.90423L2.75953-3.06615" fill="#333333" transform="matrix(1 0 0 1.3778 218.389 107.351)"/><path d="M2.24851-3.96555C3.55673-3.96555 4.21084-3.22968 4.21084-1.94189 4.21084-0.633671 3.49541 0.0817639 2.22807 0.0817639 0.981167 0.0817639 0.286174-0.654112 0.286174-1.94189 0.286174-3.20923 0.981167-3.96555 2.24851-3.96555ZM2.22807-0.61323C2.9435-0.61323 3.14791-1.18558 3.14791-1.94189 3.14791-2.75953 2.9435-3.27056 2.26895-3.27056 1.57396-3.27056 1.34911-2.73909 1.34911-1.94189 1.34911-1.20602 1.55351-0.61323 2.22807-0.61323" fill="#333333" transform="matrix(1 0 0 1.3778 221.251 107.351)"/><path d="M3.88379-1.28778C3.7407-0.429261 3.10703 0.0817639 2.12586 0.0817639 0.919844 0.0817639 0.40882-0.694994 0.286174-1.92145 0.040882-4.16996 3.43409-4.72187 3.84291-2.65733L2.8413-2.61645C2.80042-3.00483 2.53468-3.27056 2.12586-3.27056 1.51263-3.27056 1.41043-2.69821 1.34911-1.96233 1.22646-0.449702 2.67777-0.183969 2.86174-1.34911" fill="#333333" transform="matrix(1 0 0 1.3778 225.728 107.351)"/><path d="M3.78158-0.981167C3.51585-0.367938 3.02527 0.102205 2.10542 0.0817639 0.878962 0.040882 0.286174-0.674553 0.286174-1.96233 0.286174-3.25012 0.899403-3.96555 2.12586-3.96555 3.3932-3.96555 3.82246-3.04571 3.84291-1.75792L1.34911-1.75792C1.34911-1.12425 1.51263-0.633671 2.1463-0.61323 2.51424-0.61323 2.75953-0.756316 2.8413-1.06293ZM2.86174-2.3916C2.96394-3.33188 1.6966-3.67938 1.43087-2.82086 1.38999-2.69821 1.34911-2.55512 1.34911-2.3916L2.86174-2.3916" fill="#333333" transform="matrix(1 0 0 1.3778 229.816 107.351)"/><path d="M2.80042-2.82086C2.82086-3.41364 1.36955-3.51585 1.34911-2.90262 1.65572-1.96233 3.76114-2.75953 3.78158-1.1447 3.80202 0.551907 0.429261 0.40882 0.265733-0.960726L1.1447-1.10381C1.22646-0.715435 1.55351-0.592789 2.0441-0.592789 2.71865-0.429261 3.20923-1.20602 2.53468-1.43087 1.65572-1.71704 0.449702-1.65572 0.40882-2.77997 0.367938-4.41525 3.55673-4.29261 3.69982-2.92306" fill="#333333" transform="matrix(1 0 0 1.3778 233.904 107.351)"/><path d="M2.80042-2.82086C2.82086-3.41364 1.36955-3.51585 1.34911-2.90262 1.65572-1.96233 3.76114-2.75953 3.78158-1.1447 3.80202 0.551907 0.429261 0.40882 0.265733-0.960726L1.1447-1.10381C1.22646-0.715435 1.55351-0.592789 2.0441-0.592789 2.71865-0.429261 3.20923-1.20602 2.53468-1.43087 1.65572-1.71704 0.449702-1.65572 0.40882-2.77997 0.367938-4.41525 3.55673-4.29261 3.69982-2.92306" fill="#333333" transform="matrix(1 0 0 1.3778 237.992 107.351)"/><path d="M0.511025-4.57878 0.511025-5.3351 1.53307-5.3351 1.53307-4.57878 0.511025-4.57878ZM0.511025 0 0.511025-3.88379 1.53307-3.88379 1.53307 0 0.511025 0" fill="#333333" transform="matrix(1 0 0 1.3778 242.08 107.351)"/><path d="M2.75953-3.96555C4.5379-3.98599 3.94511-1.65572 4.04732 0L3.02527 0C2.88218-1.16514 3.49541-3.20923 2.33027-3.20923 1.12425-3.20923 1.63528-1.22646 1.53307 0L0.511025 0 0.490584-3.88379 1.45131-3.88379C1.49219-3.6385 1.43087-3.31144 1.51263-3.10703 1.75792-3.6385 2.08498-3.94511 2.75953-3.96555" fill="#333333" transform="matrix(1 0 0 1.3778 244.125 107.351)"/><path d="M3.98599-0.122646C4.21084 1.67616 1.53307 2.0441 0.633671 0.940285 0.551907 0.817639 0.511025 0.674553 0.470143 0.511025L1.47175 0.388379C1.53307 0.715435 1.79881 0.878962 2.16674 0.899403 2.98438 0.899403 3.02527 0.143087 2.98438-0.715435 2.75953-0.265733 2.37115 0 1.73748 0 0.654112 0 0.306615-0.878962 0.306615-1.98278 0.306615-3.12747 0.674553-3.94511 1.79881-3.96555 2.41204-3.96555 2.73909-3.67938 3.00483-3.27056L3.04571-3.88379 4.00643-3.88379ZM2.1463-0.715435C2.80042-0.715435 2.98438-1.26734 2.98438-2.00322 2.98438-2.71865 2.80042-3.27056 2.16674-3.27056 1.51263-3.27056 1.36955-2.67777 1.34911-1.98278 1.34911-1.2469 1.53307-0.715435 2.1463-0.715435" fill="#333333" transform="matrix(1 0 0 1.3778 248.601 107.351)"/><path d="M40.5651 112.149 52.983 112.149" stroke="#5E5E5E" stroke-width="0.662288" fill="none" transform="matrix(1 0 0 1.3778 130.319 -55.2765)"/><path d="M40.5751 112.48 40.234 112.48 40.234 111.817 40.5751 111.817" fill="#5E5E5E" transform="matrix(1 0 0 1.3778 130.319 -55.2765)"/><path d="M58.0363 112.149 53.3142 113.682 53.3142 110.612Z" stroke="#5E5E5E" stroke-width="0.662288" fill="#5E5E5E" transform="matrix(1 0 0 1.3778 130.319 -55.2765)"/><path d="M133.285 112.149 156.376 112.149" stroke="#5E5E5E" stroke-width="0.662288" fill="none" transform="matrix(1 0 0 1.3778 130.319 -55.2765)"/><path d="M133.295 112.48 132.954 112.48 132.954 111.817 133.295 111.817" fill="#5E5E5E" transform="matrix(1 0 0 1.3778 130.319 -55.2765)"/><path d="M161.433 112.149 156.707 113.682 156.707 110.612Z" stroke="#5E5E5E" stroke-width="0.662288" fill="#5E5E5E" transform="matrix(1 0 0 1.3778 130.319 -55.2765)"/><path d="M-119.649 94.7072C-119.649 93.6144-118.761 92.7203-117.662 92.7203L-62.0299 92.7203C-60.9371 92.7203-60.043 93.6144-60.043 94.7072L-60.043 103.979C-60.043 105.072-60.9371 105.966-62.0299 105.966L-117.662 105.966C-118.761 105.966-119.649 105.072-119.649 103.979Z" stroke="#5E5E5E" stroke-width="0.993432" fill="#FFFFFF" transform="matrix(1 0 0 1.3778 130.319 -55.2765)"/><path d="M0.490584-5.06936C2.3916-5.04892 4.70143-5.39642 4.66054-3.45453 4.6401-1.92145 3.25012-1.65572 1.55351-1.77837L1.55351 0 0.490584 0 0.490584-5.06936ZM1.55351-2.59601C2.51424-2.59601 3.59761-2.45292 3.59761-3.43409 3.59761-4.39481 2.4938-4.23128 1.55351-4.23128L1.55351-2.59601" fill="#333333" transform="matrix(1 0 0 1.3778 22.3108 86.0597)"/><path d="M0.490584 0 0.490584-5.06936 1.55351-5.06936 1.55351 0 0.490584 0" fill="#333333" transform="matrix(1 0 0 1.3778 27.2167 86.0597)"/><path d="M4.90584-3.55673C4.90584-2.73909 4.43569-2.30983 3.80202-2.12586L5.17157 0 3.96555 0 2.80042-1.92145 1.55351-1.92145 1.55351 0 0.490584 0 0.490584-5.06936C2.3916-4.9876 4.92628-5.53951 4.90584-3.55673ZM1.55351-2.73909C2.53468-2.77997 3.84291-2.4938 3.84291-3.51585 3.84291-4.49702 2.4938-4.16996 1.55351-4.23128L1.55351-2.73909" fill="#333333" transform="matrix(1 0 0 1.3778 29.2608 86.0597)"/><path d="M3.45453-3.72026C3.43409-4.59922 1.53307-4.66054 1.47175-3.78158 1.83969-2.43248 4.55834-3.57717 4.61966-1.45131 4.68099 0.490584 1.2469 0.449702 0.449702-0.715435 0.327056-0.878962 0.245292-1.10381 0.20441-1.32866L1.22646-1.49219C1.28778-0.551907 3.51585-0.347497 3.59761-1.38999 3.25012-2.80042 0.531466-1.5944 0.449702-3.72026 0.367938-5.49863 3.57717-5.51907 4.29261-4.43569 4.39481-4.27217 4.45613-4.06776 4.49702-3.86335" fill="#333333" transform="matrix(1 0 0 1.3778 36.599 86.0597)"/><path d="M0.511025-4.57878 0.511025-5.3351 1.53307-5.3351 1.53307-4.57878 0.511025-4.57878ZM0.511025 0 0.511025-3.88379 1.53307-3.88379 1.53307 0 0.511025 0" fill="#333333" transform="matrix(1 0 0 1.3778 41.5049 86.0597)"/><path d="M3.98599-0.122646C4.21084 1.67616 1.53307 2.0441 0.633671 0.940285 0.551907 0.817639 0.511025 0.674553 0.470143 0.511025L1.47175 0.388379C1.53307 0.715435 1.79881 0.878962 2.16674 0.899403 2.98438 0.899403 3.02527 0.143087 2.98438-0.715435 2.75953-0.265733 2.37115 0 1.73748 0 0.654112 0 0.306615-0.878962 0.306615-1.98278 0.306615-3.12747 0.674553-3.94511 1.79881-3.96555 2.41204-3.96555 2.73909-3.67938 3.00483-3.27056L3.04571-3.88379 4.00643-3.88379ZM2.1463-0.715435C2.80042-0.715435 2.98438-1.26734 2.98438-2.00322 2.98438-2.71865 2.80042-3.27056 2.16674-3.27056 1.51263-3.27056 1.36955-2.67777 1.34911-1.98278 1.34911-1.2469 1.53307-0.715435 2.1463-0.715435" fill="#333333" transform="matrix(1 0 0 1.3778 43.549 86.0597)"/><path d="M2.75953-3.96555C4.5379-3.98599 3.94511-1.65572 4.04732 0L3.02527 0C2.88218-1.16514 3.49541-3.20923 2.33027-3.20923 1.12425-3.20923 1.63528-1.22646 1.53307 0L0.511025 0 0.490584-3.88379 1.45131-3.88379C1.49219-3.6385 1.43087-3.31144 1.51263-3.10703 1.75792-3.6385 2.08498-3.94511 2.75953-3.96555" fill="#333333" transform="matrix(1 0 0 1.3778 48.0255 86.0597)"/><path d="M2.71865-0.694994C2.3916-0.306615 2.10542 0.102205 1.41043 0.0817639 0.654112 0.061323 0.224851-0.327056 0.224851-1.10381 0.20441-2.33027 1.34911-2.3916 2.59601-2.35071 2.61645-2.88218 2.53468-3.31144 2.02366-3.31144 1.65572-3.291 1.49219-3.12747 1.45131-2.75953L0.388379-2.80042C0.531466-3.57717 1.12425-3.98599 2.06454-3.96555 3.00483-3.94511 3.57717-3.51585 3.59761-2.57556L3.61805-0.899403C3.59761-0.61323 3.86335-0.531466 4.12908-0.592789L4.12908-0.040882C3.51585 0.122646 2.67777 0.061323 2.71865-0.694994ZM1.73748-0.633671C2.33027-0.633671 2.61645-1.12425 2.59601-1.79881 1.94189-1.79881 1.2469-1.86013 1.26734-1.18558 1.26734-0.83808 1.43087-0.633671 1.73748-0.633671" fill="#333333" transform="matrix(1 0 0 1.3778 52.5021 86.0597)"/><path d="M0.511025 0 0.511025-5.3351 1.53307-5.3351 1.53307 0 0.511025 0" fill="#333333" transform="matrix(1 0 0 1.3778 56.5903 86.0597)"/><path d="M407.969 114.129C407.969 113.029 408.857 112.142 409.956 112.142L458.966 112.142C460.058 112.142 460.952 113.029 460.952 114.129L460.952 122.96C460.952 124.06 460.058 124.947 458.966 124.947L409.956 124.947C408.857 124.947 407.969 124.06 407.969 122.96Z" stroke="#5E5E5E" stroke-width="0.993432" fill="#FFFFFF" transform="matrix(1 0 0 1.3778 130.319 -55.2765)"/><path d="M3.72026-2.65733C4.47658-2.57556 4.9876-2.20763 4.9876-1.45131 4.9876 0.470143 2.37115-0.0817639 0.490584 0L0.490584-5.06936C2.20763-4.96716 4.6401-5.53951 4.68099-3.78158 4.68099-3.14791 4.29261-2.75953 3.72026-2.65733ZM1.55351-3.02527C2.37115-3.08659 3.61805-2.75953 3.61805-3.6385 3.61805-4.5379 2.3916-4.21084 1.55351-4.27217L1.55351-3.02527ZM1.55351-0.776757C2.53468-0.83808 3.92467-0.490584 3.92467-1.53307 3.92467-2.51424 2.51424-2.18719 1.55351-2.24851L1.55351-0.776757" fill="#333333" transform="matrix(1 0 0 1.3778 552.74 112.817)"/><path d="M1.73748 0.0817639C-0.040882 0.102205 0.551907-2.22807 0.449702-3.88379L1.47175-3.88379C1.61484-2.71865 1.00161-0.817639 2.1463-0.674553 3.37276-0.776757 2.86174-2.65733 2.96394-3.88379L3.98599-3.88379 4.00643 0 3.04571 0C3.00483-0.245292 3.06615-0.572348 2.98438-0.776757 2.73909-0.265733 2.41204 0.0817639 1.73748 0.0817639" fill="#333333" transform="matrix(1 0 0 1.3778 558.034 112.817)"/><path d="M0.245292 0 0.245292-0.715435 2.18719-3.16835 0.388379-3.16835 0.388379-3.88379 3.291-3.88379 3.291-3.16835 1.36955-0.735875 3.47497-0.735875 3.47497 0 0.245292 0" fill="#333333" transform="matrix(1 0 0 1.3778 562.511 112.817)"/><path d="M0.245292 0 0.245292-0.715435 2.18719-3.16835 0.388379-3.16835 0.388379-3.88379 3.291-3.88379 3.291-3.16835 1.36955-0.735875 3.47497-0.735875 3.47497 0 0.245292 0" fill="#333333" transform="matrix(1 0 0 1.3778 566.19 112.817)"/><path d="M3.78158-0.981167C3.51585-0.367938 3.02527 0.102205 2.10542 0.0817639 0.878962 0.040882 0.286174-0.674553 0.286174-1.96233 0.286174-3.25012 0.899403-3.96555 2.12586-3.96555 3.3932-3.96555 3.82246-3.04571 3.84291-1.75792L1.34911-1.75792C1.34911-1.12425 1.51263-0.633671 2.1463-0.61323 2.51424-0.61323 2.75953-0.756316 2.8413-1.06293ZM2.86174-2.3916C2.96394-3.33188 1.6966-3.67938 1.43087-2.82086 1.38999-2.69821 1.34911-2.55512 1.34911-2.3916L2.86174-2.3916" fill="#333333" transform="matrix(1 0 0 1.3778 569.869 112.817)"/><path d="M2.75953-3.06615C1.96233-3.31144 1.53307-2.80042 1.53307-1.90101L1.53307 0 0.511025 0 0.490584-3.88379 1.45131-3.88379C1.49219-3.61805 1.43087-3.291 1.51263-3.06615 1.63528-3.6385 2.06454-4.14952 2.75953-3.90423L2.75953-3.06615" fill="#333333" transform="matrix(1 0 0 1.3778 573.958 112.817)"/><path d="M377.272 115.635 390.535 115.635C391.462 115.635 392.207 116.384 392.207 117.308 392.207 118.235 392.955 118.983 393.879 118.983L401.346 118.983" stroke="#5E5E5E" stroke-width="0.662288" fill="none" transform="matrix(1 0 0 1.3778 130.319 -55.2765)"/><path d="M377.282 115.967 376.852 115.967 376.944 115.635 376.944 115.304 377.286 115.304" fill="#5E5E5E" transform="matrix(1 0 0 1.3778 130.319 -55.2765)"/><path d="M406.4 118.98 401.674 120.517 401.674 117.447Z" stroke="#5E5E5E" stroke-width="0.662288" fill="#5E5E5E" transform="matrix(1 0 0 1.3778 130.319 -55.2765)"/><path d="M-118.768 112.811C-118.768 111.718-117.874 110.824-116.781 110.824L-61.149 110.824C-60.0496 110.824-59.1622 111.718-59.1622 112.811L-59.1622 122.083C-59.1622 123.176-60.0496 124.07-61.149 124.07L-116.781 124.07C-117.874 124.07-118.768 123.176-118.768 122.083Z" stroke="#5E5E5E" stroke-width="0.993432" fill="#FFFFFF" transform="matrix(1 0 0 1.3778 130.319 -55.2765)"/><path d="M1.36955-2.55512C1.36955-1.45131 1.83969-0.756316 2.90262-0.756316 3.47497-0.756316 3.98599-0.899403 4.29261-1.18558L4.29261-1.88057 3.06615-1.88057 3.06615-2.67777 5.27377-2.67777 5.27377-0.817639C4.74231-0.286174 3.92467 0.0817639 2.86174 0.0817639 1.18558 0.0817639 0.40882-0.858521 0.306615-2.55512 0.163528-4.82407 2.57556-5.72348 4.39481-4.78319 4.78319-4.57878 4.9876-4.25173 5.15113-3.82246L4.1904-3.51585C3.96555-3.98599 3.59761-4.31305 2.90262-4.31305 1.81925-4.29261 1.36955-3.6385 1.36955-2.55512" fill="#333333" transform="matrix(1 0 0 1.3778 20.5465 111.002)"/><path d="M4.86495-1.94189C4.86495-0.531466 3.96555 0.0817639 2.59601 0.0817639 1.28778 0.0817639 0.449702-0.511025 0.449702-1.90101L0.449702-5.06936 1.49219-5.06936 1.49219-1.98278C1.47175-1.20602 1.88057-0.776757 2.61645-0.756316 4.45613-0.735875 3.61805-3.41364 3.80202-5.06936L4.86495-5.06936 4.86495-1.94189" fill="#333333" transform="matrix(1 0 0 1.3778 26.27 111.002)"/><path d="M0.490584 0 0.490584-5.06936 1.55351-5.06936 1.55351 0 0.490584 0" fill="#333333" transform="matrix(1 0 0 1.3778 31.5642 111.002)"/><path d="M3.98599 0 2.18719-2.33027 1.55351-1.83969 1.55351 0 0.490584 0 0.490584-5.06936 1.55351-5.06936 1.55351-2.75953 3.84291-5.06936 5.06936-5.06936 2.90262-2.92306 5.25333 0 3.98599 0" fill="#333333" transform="matrix(1 0 0 1.3778 35.6523 111.002)"/><path d="M3.78158-0.981167C3.51585-0.367938 3.02527 0.102205 2.10542 0.0817639 0.878962 0.040882 0.286174-0.674553 0.286174-1.96233 0.286174-3.25012 0.899403-3.96555 2.12586-3.96555 3.3932-3.96555 3.82246-3.04571 3.84291-1.75792L1.34911-1.75792C1.34911-1.12425 1.51263-0.633671 2.1463-0.61323 2.51424-0.61323 2.75953-0.756316 2.8413-1.06293ZM2.86174-2.3916C2.96394-3.33188 1.6966-3.67938 1.43087-2.82086 1.38999-2.69821 1.34911-2.55512 1.34911-2.3916L2.86174-2.3916" fill="#333333" transform="matrix(1 0 0 1.3778 40.9465 111.002)"/><path d="M2.51424 0.20441C2.20763 1.08337 1.63528 1.75792 0.388379 1.47175L0.388379 0.756316C1.10381 0.919844 1.47175 0.531466 1.5944-0.040882L0.061323-3.88379 1.12425-3.88379 2.10542-0.858521C2.35071-1.92145 2.67777-2.90262 3.00483-3.88379L4.04732-3.88379" fill="#333333" transform="matrix(1 0 0 1.3778 45.0347 111.002)"/><path d="M2.75953-3.96555C3.84291-3.96555 4.1904-3.06615 4.1904-1.96233 4.1904-0.817639 3.80202 0.040882 2.69821 0.0817639 2.06454 0.102205 1.77837-0.265733 1.49219-0.61323 1.55351 0.061323 1.53307 0.797198 1.53307 1.53307L0.511025 1.53307 0.490584-3.88379 1.47175-3.88379C1.51263-3.67938 1.47175-3.41364 1.53307-3.25012 1.75792-3.7407 2.12586-3.96555 2.75953-3.96555ZM2.33027-0.61323C3.00483-0.61323 3.12747-1.2469 3.14791-1.96233 3.14791-2.73909 2.96394-3.27056 2.33027-3.27056 1.18558-3.27056 1.20602-0.61323 2.33027-0.61323" fill="#333333" transform="matrix(1 0 0 1.3778 49.1229 111.002)"/><path d="M2.71865-0.694994C2.3916-0.306615 2.10542 0.102205 1.41043 0.0817639 0.654112 0.061323 0.224851-0.327056 0.224851-1.10381 0.20441-2.33027 1.34911-2.3916 2.59601-2.35071 2.61645-2.88218 2.53468-3.31144 2.02366-3.31144 1.65572-3.291 1.49219-3.12747 1.45131-2.75953L0.388379-2.80042C0.531466-3.57717 1.12425-3.98599 2.06454-3.96555 3.00483-3.94511 3.57717-3.51585 3.59761-2.57556L3.61805-0.899403C3.59761-0.61323 3.86335-0.531466 4.12908-0.592789L4.12908-0.040882C3.51585 0.122646 2.67777 0.061323 2.71865-0.694994ZM1.73748-0.633671C2.33027-0.633671 2.61645-1.12425 2.59601-1.79881 1.94189-1.79881 1.2469-1.86013 1.26734-1.18558 1.26734-0.83808 1.43087-0.633671 1.73748-0.633671" fill="#333333" transform="matrix(1 0 0 1.3778 53.5995 111.002)"/><path d="M1.79881-3.96555C2.43248-3.98599 2.73909-3.65894 2.98438-3.27056L2.96394-5.3351 3.98599-5.3351 4.00643 0 3.02527 0C2.98438-0.20441 3.02527-0.470143 2.96394-0.633671 2.73909-0.163528 2.37115 0.0817639 1.71704 0.0817639 0.654112 0.0817639 0.327056-0.83808 0.306615-1.94189 0.306615-3.08659 0.694994-3.92467 1.79881-3.96555ZM2.1463-0.61323C2.82086-0.61323 2.96394-1.22646 2.98438-1.96233 3.00483-2.71865 2.80042-3.27056 2.1463-3.27056 1.49219-3.27056 1.36955-2.65733 1.34911-1.94189 1.34911-1.06293 1.61484-0.61323 2.1463-0.61323" fill="#333333" transform="matrix(1 0 0 1.3778 57.6877 111.002)"/><path d="M-59.2152 99.3432-48.5656 99.3432C-47.4728 99.3432-46.5787 100.237-46.5787 101.33L-46.5787 102.257C-46.5787 103.35-45.6846 104.244-44.5918 104.244L-39.7373 104.244" stroke="#5E5E5E" stroke-width="0.662288" fill="none" transform="matrix(1 0 0 1.3778 130.319 -55.2765)"/><path d="M-59.2085 99.6743-59.5463 99.6743-59.5463 99.012-59.2085 99.012" fill="#5E5E5E" transform="matrix(1 0 0 1.3778 130.319 -55.2765)"/><path d="M-34.684 104.244-39.4061 105.777-39.4061 102.708Z" stroke="#5E5E5E" stroke-width="0.662288" fill="#5E5E5E" transform="matrix(1 0 0 1.3778 130.319 -55.2765)"/><path d="M-58.3343 117.447-48.1251 117.447C-47.0257 117.447-46.1383 116.553-46.1383 115.46L-46.1383 114.135C-46.1383 113.036-45.2442 112.149-44.1514 112.149L-39.7373 112.149" stroke="#5E5E5E" stroke-width="0.662288" fill="none" transform="matrix(1 0 0 1.3778 130.319 -55.2765)"/><path d="M-58.3244 117.778-58.6655 117.778-58.6655 117.116-58.3244 117.116" fill="#5E5E5E" transform="matrix(1 0 0 1.3778 130.319 -55.2765)"/><path d="M-34.684 112.149-39.4061 113.682-39.4061 110.612Z" stroke="#5E5E5E" stroke-width="0.662288" fill="#5E5E5E" transform="matrix(1 0 0 1.3778 130.319 -55.2765)"/><path d="M-115.586 80.6104-111.499 80.6104M-107.42 80.6104-103.337 80.6104M-99.2538 80.6104-95.1708 80.6104M-91.0811 80.6104-86.9981 80.6104M-82.9151 80.6104-78.8288 80.6104M-74.7458 80.6104-70.6628 80.6104M-66.5765 80.6104-62.4935 80.6104M-58.4105 80.6104-56.3673 80.6104-55.3673 80.8819-54.6553 81.5972-54.3838 82.6005-54.3838 84.6636M-54.3838 88.7863-54.3838 92.9124M-54.3838 97.0351-54.3838 101.161M-54.3838 105.284-54.3838 109.41M-54.3838 113.533-54.3838 117.659M-54.3838 121.782-54.3838 125.904M-54.3838 130.027-54.3838 132.09-54.6553 133.093-55.3706 133.805-56.3739 134.08-58.4171 134.08M-62.5001 134.08-66.5831 134.08M-70.6694 134.08-74.7524 134.08M-78.8354 134.08-82.9184 134.08M-86.9981 134.08-91.0811 134.08M-95.1675 134.08-99.2471 134.08M-103.33 134.08-107.413 134.08M-111.496 134.08-115.586 134.08M-119.669 134.08-121.709 134.08-122.712 133.809-123.424 133.1-123.696 132.097-123.696 130.034M-123.696 125.911-123.696 121.762M-123.696 117.642-123.696 113.516M-123.696 109.397-123.696 105.271M-123.696 101.151-123.696 97.0252M-123.696 92.9057-123.696 88.7797M-123.696 84.6603-123.696 82.5972-123.424 81.5972-122.712 80.8852-121.709 80.6137-119.669 80.6137" stroke="#5E5E5E" stroke-width="0.993432" fill="none" transform="matrix(1 0 0 1.3778 130.319 -55.2765)"/><path d="M0.490584 0 0.490584-5.06936 1.55351-5.06936 1.55351 0 0.490584 0" fill="#C92D39" transform="matrix(1 0 0 1.3778 27.1846 67.4848)"/><path d="M3.57717 0 1.36955-3.90423C1.49219-2.71865 1.41043-1.28778 1.43087 0L0.490584 0 0.490584-5.06936 1.6966-5.06936 3.94511-1.12425C3.82246-2.30983 3.90423-3.76114 3.88379-5.06936L4.82407-5.06936 4.82407 0 3.57717 0" fill="#C92D39" transform="matrix(1 0 0 1.3778 29.2287 67.4848)"/><path d="M0.490584-5.06936C2.3916-5.04892 4.70143-5.39642 4.66054-3.45453 4.6401-1.92145 3.25012-1.65572 1.55351-1.77837L1.55351 0 0.490584 0 0.490584-5.06936ZM1.55351-2.59601C2.51424-2.59601 3.59761-2.45292 3.59761-3.43409 3.59761-4.39481 2.4938-4.23128 1.55351-4.23128L1.55351-2.59601" fill="#C92D39" transform="matrix(1 0 0 1.3778 34.5229 67.4848)"/><path d="M4.86495-1.94189C4.86495-0.531466 3.96555 0.0817639 2.59601 0.0817639 1.28778 0.0817639 0.449702-0.511025 0.449702-1.90101L0.449702-5.06936 1.49219-5.06936 1.49219-1.98278C1.47175-1.20602 1.88057-0.776757 2.61645-0.756316 4.45613-0.735875 3.61805-3.41364 3.80202-5.06936L4.86495-5.06936 4.86495-1.94189" fill="#C92D39" transform="matrix(1 0 0 1.3778 39.4287 67.4848)"/><path d="M2.77997-4.25173 2.77997 0 1.71704 0 1.71704-4.25173 0.0817639-4.25173 0.0817639-5.06936 4.41525-5.06936 4.41525-4.25173 2.77997-4.25173" fill="#C92D39" transform="matrix(1 0 0 1.3778 44.723 67.4848)"/><path d="M3.45453-3.72026C3.43409-4.59922 1.53307-4.66054 1.47175-3.78158 1.83969-2.43248 4.55834-3.57717 4.61966-1.45131 4.68099 0.490584 1.2469 0.449702 0.449702-0.715435 0.327056-0.878962 0.245292-1.10381 0.20441-1.32866L1.22646-1.49219C1.28778-0.551907 3.51585-0.347497 3.59761-1.38999 3.25012-2.80042 0.531466-1.5944 0.449702-3.72026 0.367938-5.49863 3.57717-5.51907 4.29261-4.43569 4.39481-4.27217 4.45613-4.06776 4.49702-3.86335" fill="#C92D39" transform="matrix(1 0 0 1.3778 49.1995 67.4848)"/><path d="M407.416 98.5716C407.416 97.4788 408.304 96.5848 409.403 96.5848L458.412 96.5848C459.505 96.5848 460.399 97.4788 460.399 98.5716L460.399 107.407C460.399 108.499 459.505 109.393 458.412 109.393L409.403 109.393C408.304 109.393 407.416 108.499 407.416 107.407Z" stroke="#5E5E5E" stroke-width="0.993432" fill="#FFFFFF" transform="matrix(1 0 0 1.3778 130.319 -55.2765)"/><path d="M0.490584 0 0.490584-5.06936 1.55351-5.06936 1.55351-0.817639 4.27217-0.817639 4.27217 0 0.490584 0" fill="#333333" transform="matrix(1 0 0 1.3778 546.107 91.3846)"/><path d="M0.511025-4.57878 0.511025-5.3351 1.53307-5.3351 1.53307-4.57878 0.511025-4.57878ZM0.511025 0 0.511025-3.88379 1.53307-3.88379 1.53307 0 0.511025 0" fill="#333333" transform="matrix(1 0 0 1.3778 550.584 91.3846)"/><path d="M3.98599-0.122646C4.21084 1.67616 1.53307 2.0441 0.633671 0.940285 0.551907 0.817639 0.511025 0.674553 0.470143 0.511025L1.47175 0.388379C1.53307 0.715435 1.79881 0.878962 2.16674 0.899403 2.98438 0.899403 3.02527 0.143087 2.98438-0.715435 2.75953-0.265733 2.37115 0 1.73748 0 0.654112 0 0.306615-0.878962 0.306615-1.98278 0.306615-3.12747 0.674553-3.94511 1.79881-3.96555 2.41204-3.96555 2.73909-3.67938 3.00483-3.27056L3.04571-3.88379 4.00643-3.88379ZM2.1463-0.715435C2.80042-0.715435 2.98438-1.26734 2.98438-2.00322 2.98438-2.71865 2.80042-3.27056 2.16674-3.27056 1.51263-3.27056 1.36955-2.67777 1.34911-1.98278 1.34911-1.2469 1.53307-0.715435 2.1463-0.715435" fill="#333333" transform="matrix(1 0 0 1.3778 552.628 91.3846)"/><path d="M2.33027-3.20923C1.12425-3.20923 1.63528-1.22646 1.53307 0L0.511025 0 0.511025-5.3351 1.53307-5.3351 1.51263-3.10703C1.75792-3.6385 2.08498-3.94511 2.75953-3.96555 4.51746-3.98599 3.94511-1.65572 4.04732 0L3.02527 0C2.88218-1.16514 3.49541-3.20923 2.33027-3.20923" fill="#333333" transform="matrix(1 0 0 1.3778 557.104 91.3846)"/><path d="M2.35071-0.061323C1.61484 0.224851 0.572348 0.0817639 0.572348-0.919844L0.572348-3.20923 0.0817639-3.20923 0.0817639-3.88379 0.633671-3.88379 0.940285-4.80363 1.57396-4.80363 1.57396-3.88379 2.30983-3.88379 2.30983-3.20923 1.57396-3.20923 1.57396-1.18558C1.55351-0.715435 1.90101-0.551907 2.35071-0.674553L2.35071-0.061323" fill="#333333" transform="matrix(1 0 0 1.3778 561.581 91.3846)"/><path d="M3.72026-2.65733C4.47658-2.57556 4.9876-2.20763 4.9876-1.45131 4.9876 0.470143 2.37115-0.0817639 0.490584 0L0.490584-5.06936C2.20763-4.96716 4.6401-5.53951 4.68099-3.78158 4.68099-3.14791 4.29261-2.75953 3.72026-2.65733ZM1.55351-3.02527C2.37115-3.08659 3.61805-2.75953 3.61805-3.6385 3.61805-4.5379 2.3916-4.21084 1.55351-4.27217L1.55351-3.02527ZM1.55351-0.776757C2.53468-0.83808 3.92467-0.490584 3.92467-1.53307 3.92467-2.51424 2.51424-2.18719 1.55351-2.24851L1.55351-0.776757" fill="#333333" transform="matrix(1 0 0 1.3778 566.055 91.3846)"/><path d="M1.73748 0.0817639C-0.040882 0.102205 0.551907-2.22807 0.449702-3.88379L1.47175-3.88379C1.61484-2.71865 1.00161-0.817639 2.1463-0.674553 3.37276-0.776757 2.86174-2.65733 2.96394-3.88379L3.98599-3.88379 4.00643 0 3.04571 0C3.00483-0.245292 3.06615-0.572348 2.98438-0.776757 2.73909-0.265733 2.41204 0.0817639 1.73748 0.0817639" fill="#333333" transform="matrix(1 0 0 1.3778 571.349 91.3846)"/><path d="M0.511025 0 0.511025-5.3351 1.53307-5.3351 1.53307 0 0.511025 0" fill="#333333" transform="matrix(1 0 0 1.3778 575.826 91.3846)"/><path d="M2.75953-3.96555C3.82246-3.96555 4.1904-3.08659 4.1904-1.96233 4.1904-0.817639 3.80202 0.061323 2.69821 0.0817639 2.08498 0.102205 1.75792-0.224851 1.51263-0.633671L1.47175 0 0.490584 0 0.511025-5.3351 1.53307-5.3351 1.53307-3.20923C1.75792-3.67938 2.12586-3.96555 2.75953-3.96555ZM2.33027-0.61323C2.96394-0.61323 3.14791-1.16514 3.14791-1.96233 3.14791-2.71865 3.00483-3.25012 2.35071-3.25012 1.6966-3.25012 1.51263-2.67777 1.51263-1.92145 1.51263-1.18558 1.67616-0.61323 2.33027-0.61323" fill="#333333" transform="matrix(1 0 0 1.3778 577.87 91.3846)"/><path d="M377.272 109.486 389.945 109.486C391.038 109.486 391.932 108.592 391.932 107.499L391.932 104.973C391.932 103.88 392.82 102.986 393.919 102.986L400.793 102.986" stroke="#5E5E5E" stroke-width="0.662288" fill="none" transform="matrix(1 0 0 1.3778 130.319 -55.2765)"/><path d="M377.282 109.817 376.944 109.817 376.944 109.155 377.286 109.155" fill="#5E5E5E" transform="matrix(1 0 0 1.3778 130.319 -55.2765)"/><path d="M405.85 102.986 401.125 104.526 401.125 101.453Z" stroke="#5E5E5E" stroke-width="0.662288" fill="#5E5E5E" transform="matrix(1 0 0 1.3778 130.319 -55.2765)"/><path d="M406.744 78.2957 410.83 78.2957M414.913 78.2957 418.996 78.2957M423.083 78.2957 427.166 78.2957M431.249 78.2957 435.332 78.2957M439.415 78.2957 443.501 78.2957M447.584 78.2957 451.667 78.2957M455.75 78.2957 459.83 78.2957M463.913 78.2957 465.956 78.2957 466.959 78.5672 467.671 79.2792 467.943 80.2859 467.943 82.3456M467.943 86.4683 467.943 90.5944M467.943 94.7171 467.943 98.8432M467.943 102.966 467.943 107.092M467.943 111.215 467.943 115.341M467.943 119.463 467.943 123.59M467.943 127.712 467.943 129.775 467.671 130.779 466.959 131.491 465.956 131.765 463.913 131.765M459.83 131.765 455.747 131.765M451.66 131.765 447.577 131.765M443.494 131.765 439.408 131.765M435.325 131.765 431.242 131.765M427.159 131.765 423.076 131.765M418.99 131.765 414.907 131.765M410.824 131.765 406.741 131.765M402.661 131.765 400.618 131.765 399.618 131.494 398.906 130.785 398.634 129.782 398.634 127.722M398.634 123.603 398.634 119.444M398.634 115.324 398.634 111.198M398.634 107.079 398.634 102.953M398.634 98.8332 398.634 94.7072M398.634 90.5877 398.634 86.4617M398.634 82.3423 398.634 80.2825 398.909 79.2792 399.621 78.5705 400.625 78.299 402.671 78.299" stroke="#5E5E5E" stroke-width="0.993432" fill="none" transform="matrix(1 0 0 1.3778 130.319 -55.2765)"/><path d="M2.86174-5.13069C4.49702-5.13069 5.41686-4.21084 5.41686-2.55512 5.41686-0.899403 4.47658 0.0817639 2.8413 0.0817639 1.18558 0.0817639 0.306615-0.899403 0.306615-2.55512 0.306615-4.21084 1.20602-5.13069 2.86174-5.13069ZM2.8413-0.756316C3.90423-0.756316 4.33349-1.47175 4.33349-2.55512 4.33349-3.57717 3.90423-4.31305 2.86174-4.31305 1.79881-4.31305 1.36955-3.59761 1.36955-2.55512 1.36955-1.51263 1.81925-0.756316 2.8413-0.756316" fill="#C92D39" transform="matrix(1 0 0 1.3778 545.928 69.7652)"/><path d="M4.86495-1.94189C4.86495-0.531466 3.96555 0.0817639 2.59601 0.0817639 1.28778 0.0817639 0.449702-0.511025 0.449702-1.90101L0.449702-5.06936 1.49219-5.06936 1.49219-1.98278C1.47175-1.20602 1.88057-0.776757 2.61645-0.756316 4.45613-0.735875 3.61805-3.41364 3.80202-5.06936L4.86495-5.06936 4.86495-1.94189" fill="#C92D39" transform="matrix(1 0 0 1.3778 551.652 69.7652)"/><path d="M2.77997-4.25173 2.77997 0 1.71704 0 1.71704-4.25173 0.0817639-4.25173 0.0817639-5.06936 4.41525-5.06936 4.41525-4.25173 2.77997-4.25173" fill="#C92D39" transform="matrix(1 0 0 1.3778 556.946 69.7652)"/><path d="M0.490584-5.06936C2.3916-5.04892 4.70143-5.39642 4.66054-3.45453 4.6401-1.92145 3.25012-1.65572 1.55351-1.77837L1.55351 0 0.490584 0 0.490584-5.06936ZM1.55351-2.59601C2.51424-2.59601 3.59761-2.45292 3.59761-3.43409 3.59761-4.39481 2.4938-4.23128 1.55351-4.23128L1.55351-2.59601" fill="#C92D39" transform="matrix(1 0 0 1.3778 561.422 69.7652)"/><path d="M4.86495-1.94189C4.86495-0.531466 3.96555 0.0817639 2.59601 0.0817639 1.28778 0.0817639 0.449702-0.511025 0.449702-1.90101L0.449702-5.06936 1.49219-5.06936 1.49219-1.98278C1.47175-1.20602 1.88057-0.776757 2.61645-0.756316 4.45613-0.735875 3.61805-3.41364 3.80202-5.06936L4.86495-5.06936 4.86495-1.94189" fill="#C92D39" transform="matrix(1 0 0 1.3778 566.328 69.7652)"/><path d="M2.77997-4.25173 2.77997 0 1.71704 0 1.71704-4.25173 0.0817639-4.25173 0.0817639-5.06936 4.41525-5.06936 4.41525-4.25173 2.77997-4.25173" fill="#C92D39" transform="matrix(1 0 0 1.3778 571.623 69.7652)"/><path d="M3.45453-3.72026C3.43409-4.59922 1.53307-4.66054 1.47175-3.78158 1.83969-2.43248 4.55834-3.57717 4.61966-1.45131 4.68099 0.490584 1.2469 0.449702 0.449702-0.715435 0.327056-0.878962 0.245292-1.10381 0.20441-1.32866L1.22646-1.49219C1.28778-0.551907 3.51585-0.347497 3.59761-1.38999 3.25012-2.80042 0.531466-1.5944 0.449702-3.72026 0.367938-5.49863 3.57717-5.51907 4.29261-4.43569 4.39481-4.27217 4.45613-4.06776 4.49702-3.86335" fill="#C92D39" transform="matrix(1 0 0 1.3778 576.099 69.7652)"/></g></svg>